<svg width="16" height="16" viewBox="0 0 16 16" fill="none" xmlns="http://www.w3.org/2000/svg">
<g clip-path="url(#clip0_116_3212)">
<path d="M1.99472 10.8949C2.09274 11.1421 2.11457 11.4131 2.05738 11.6729L1.34738 13.8662C1.3245 13.9774 1.33042 14.0927 1.36457 14.201C1.39871 14.3093 1.45996 14.4071 1.54249 14.4851C1.62503 14.563 1.72612 14.6187 1.83618 14.6466C1.94624 14.6746 2.06162 14.674 2.17138 14.6449L4.44672 13.9795C4.69186 13.9309 4.94573 13.9522 5.17938 14.0409C6.60297 14.7057 8.21563 14.8463 9.73282 14.438C11.25 14.0297 12.5742 13.0986 13.4718 11.8091C14.3695 10.5196 14.7828 8.95447 14.6389 7.3899C14.495 5.82533 13.8032 4.36185 12.6854 3.25767C11.5677 2.15348 10.0958 1.47956 8.52964 1.3548C6.96342 1.23004 5.40347 1.66246 4.12501 2.57576C2.84655 3.48907 1.93174 4.82456 1.54198 6.34663C1.15222 7.86869 1.31256 9.47951 1.99472 10.8949Z" stroke="#003672" stroke-width="1.33333" stroke-linecap="round" stroke-linejoin="round"/>
<path d="M8.61063 9.5225C8.67947 9.55412 8.75703 9.56134 8.83052 9.54298C8.90402 9.52462 8.96907 9.48178 9.01496 9.4215L9.13329 9.2665C9.19539 9.18371 9.27591 9.1165 9.36848 9.07022C9.46105 9.02393 9.56313 8.99984 9.66663 8.99984H10.6666C10.8434 8.99984 11.013 9.07008 11.138 9.1951C11.2631 9.32012 11.3333 9.48969 11.3333 9.6665V10.6665C11.3333 10.8433 11.2631 11.0129 11.138 11.1379C11.013 11.2629 10.8434 11.3332 10.6666 11.3332C9.07533 11.3332 7.5492 10.701 6.42399 9.57581C5.29877 8.45059 4.66663 6.92447 4.66663 5.33317C4.66663 5.15636 4.73686 4.98679 4.86189 4.86177C4.98691 4.73674 5.15648 4.6665 5.33329 4.6665H6.33329C6.5101 4.6665 6.67967 4.73674 6.8047 4.86177C6.92972 4.98679 6.99996 5.15636 6.99996 5.33317V6.33317C6.99996 6.43667 6.97586 6.53874 6.92958 6.63131C6.88329 6.72388 6.81609 6.80441 6.73329 6.8665L6.57729 6.9835C6.5161 7.03023 6.47297 7.0967 6.45522 7.17162C6.43748 7.24654 6.44622 7.3253 6.47996 7.3945C6.93552 8.31979 7.68477 9.0681 8.61063 9.5225Z" fill="#003672"/>
</g>
<defs>
<clipPath id="clip0_116_3212">
<rect width="16" height="16" fill="white"/>
</clipPath>
</defs>
</svg>
