<svg width="208" height="23" viewBox="0 0 208 23" fill="none" xmlns="http://www.w3.org/2000/svg">
<path d="M3.528 6.94948C4.44 6.94948 5.228 7.12148 5.892 7.46548C6.564 7.80148 7.076 8.28548 7.428 8.91748C7.788 9.54948 7.968 10.2935 7.968 11.1495C7.968 12.0055 7.788 12.7495 7.428 13.3815C7.076 14.0055 6.564 14.4855 5.892 14.8215C5.228 15.1495 4.44 15.3135 3.528 15.3135H0.924V6.94948H3.528ZM3.528 14.4135C4.608 14.4135 5.432 14.1295 6 13.5615C6.568 12.9855 6.852 12.1815 6.852 11.1495C6.852 10.1095 6.564 9.29748 5.988 8.71348C5.42 8.12948 4.6 7.83748 3.528 7.83748H2.016V14.4135H3.528ZM15.4084 11.7735C15.4084 11.9815 15.3964 12.2015 15.3724 12.4335H10.1164C10.1564 13.0815 10.3764 13.5895 10.7764 13.9575C11.1844 14.3175 11.6764 14.4975 12.2524 14.4975C12.7244 14.4975 13.1164 14.3895 13.4284 14.1735C13.7484 13.9495 13.9724 13.6535 14.1004 13.2855H15.2764C15.1004 13.9175 14.7484 14.4335 14.2204 14.8335C13.6924 15.2255 13.0364 15.4215 12.2524 15.4215C11.6284 15.4215 11.0684 15.2815 10.5724 15.0015C10.0844 14.7215 9.70038 14.3255 9.42038 13.8135C9.14038 13.2935 9.00038 12.6935 9.00038 12.0135C9.00038 11.3335 9.13638 10.7375 9.40838 10.2255C9.68038 9.71348 10.0604 9.32148 10.5484 9.04948C11.0444 8.76948 11.6124 8.62948 12.2524 8.62948C12.8764 8.62948 13.4284 8.76548 13.9084 9.03748C14.3884 9.30948 14.7564 9.68548 15.0124 10.1655C15.2764 10.6375 15.4084 11.1735 15.4084 11.7735ZM14.2804 11.5455C14.2804 11.1295 14.1884 10.7735 14.0044 10.4775C13.8204 10.1735 13.5684 9.94548 13.2484 9.79348C12.9364 9.63348 12.5884 9.55348 12.2044 9.55348C11.6524 9.55348 11.1804 9.72948 10.7884 10.0815C10.4044 10.4335 10.1844 10.9215 10.1284 11.5455H14.2804ZM19.1778 15.4215C18.6738 15.4215 18.2218 15.3375 17.8218 15.1695C17.4218 14.9935 17.1058 14.7535 16.8738 14.4495C16.6418 14.1375 16.5138 13.7815 16.4898 13.3815H17.6178C17.6498 13.7095 17.8018 13.9775 18.0738 14.1855C18.3538 14.3935 18.7178 14.4975 19.1658 14.4975C19.5818 14.4975 19.9098 14.4055 20.1498 14.2215C20.3898 14.0375 20.5098 13.8055 20.5098 13.5255C20.5098 13.2375 20.3818 13.0255 20.1258 12.8895C19.8698 12.7455 19.4738 12.6055 18.9378 12.4695C18.4498 12.3415 18.0498 12.2135 17.7378 12.0855C17.4338 11.9495 17.1698 11.7535 16.9458 11.4975C16.7298 11.2335 16.6218 10.8895 16.6218 10.4655C16.6218 10.1295 16.7218 9.82148 16.9218 9.54148C17.1218 9.26148 17.4058 9.04148 17.7738 8.88148C18.1418 8.71348 18.5618 8.62948 19.0338 8.62948C19.7618 8.62948 20.3498 8.81348 20.7978 9.18148C21.2458 9.54948 21.4858 10.0535 21.5178 10.6935H20.4258C20.4018 10.3495 20.2618 10.0735 20.0058 9.86548C19.7578 9.65748 19.4218 9.55348 18.9978 9.55348C18.6058 9.55348 18.2938 9.63748 18.0618 9.80548C17.8298 9.97348 17.7138 10.1935 17.7138 10.4655C17.7138 10.6815 17.7818 10.8615 17.9178 11.0055C18.0618 11.1415 18.2378 11.2535 18.4458 11.3415C18.6618 11.4215 18.9578 11.5135 19.3338 11.6175C19.8058 11.7455 20.1898 11.8735 20.4858 12.0015C20.7818 12.1215 21.0338 12.3055 21.2418 12.5535C21.4578 12.8015 21.5698 13.1255 21.5778 13.5255C21.5778 13.8855 21.4778 14.2095 21.2778 14.4975C21.0778 14.7855 20.7938 15.0135 20.4258 15.1815C20.0658 15.3415 19.6498 15.4215 19.1778 15.4215ZM29.1193 11.7735C29.1193 11.9815 29.1073 12.2015 29.0833 12.4335H23.8273C23.8673 13.0815 24.0873 13.5895 24.4873 13.9575C24.8953 14.3175 25.3873 14.4975 25.9633 14.4975C26.4353 14.4975 26.8273 14.3895 27.1393 14.1735C27.4593 13.9495 27.6833 13.6535 27.8113 13.2855H28.9873C28.8113 13.9175 28.4593 14.4335 27.9313 14.8335C27.4033 15.2255 26.7473 15.4215 25.9633 15.4215C25.3393 15.4215 24.7793 15.2815 24.2833 15.0015C23.7953 14.7215 23.4113 14.3255 23.1313 13.8135C22.8513 13.2935 22.7113 12.6935 22.7113 12.0135C22.7113 11.3335 22.8473 10.7375 23.1193 10.2255C23.3913 9.71348 23.7713 9.32148 24.2593 9.04948C24.7553 8.76948 25.3233 8.62948 25.9633 8.62948C26.5873 8.62948 27.1393 8.76548 27.6193 9.03748C28.0993 9.30948 28.4673 9.68548 28.7233 10.1655C28.9873 10.6375 29.1193 11.1735 29.1193 11.7735ZM27.9913 11.5455C27.9913 11.1295 27.8993 10.7735 27.7153 10.4775C27.5313 10.1735 27.2793 9.94548 26.9593 9.79348C26.6473 9.63348 26.2993 9.55348 25.9153 9.55348C25.3633 9.55348 24.8913 9.72948 24.4993 10.0815C24.1153 10.4335 23.8953 10.9215 23.8393 11.5455H27.9913ZM33.7647 8.61748C34.5647 8.61748 35.2127 8.86148 35.7087 9.34948C36.2047 9.82948 36.4527 10.5255 36.4527 11.4375V15.3135H35.3727V11.5935C35.3727 10.9375 35.2087 10.4375 34.8807 10.0935C34.5527 9.74148 34.1047 9.56548 33.5367 9.56548C32.9607 9.56548 32.5007 9.74548 32.1567 10.1055C31.8207 10.4655 31.6527 10.9895 31.6527 11.6775V15.3135H30.5607V8.73748H31.6527V9.67348C31.8687 9.33748 32.1607 9.07748 32.5287 8.89348C32.9047 8.70948 33.3167 8.61748 33.7647 8.61748ZM40.6845 14.3055L42.7245 8.73748H43.8885L41.3085 15.3135H40.0365L37.4565 8.73748H38.6325L40.6845 14.3055ZM47.8311 15.4215C47.2151 15.4215 46.6551 15.2815 46.1511 15.0015C45.6551 14.7215 45.2631 14.3255 44.9751 13.8135C44.6951 13.2935 44.5551 12.6935 44.5551 12.0135C44.5551 11.3415 44.6991 10.7495 44.9871 10.2375C45.2831 9.71748 45.6831 9.32148 46.1871 9.04948C46.6911 8.76948 47.2551 8.62948 47.8791 8.62948C48.5031 8.62948 49.0671 8.76948 49.5711 9.04948C50.0751 9.32148 50.4711 9.71348 50.7591 10.2255C51.0551 10.7375 51.2031 11.3335 51.2031 12.0135C51.2031 12.6935 51.0511 13.2935 50.7471 13.8135C50.4511 14.3255 50.0471 14.7215 49.5351 15.0015C49.0231 15.2815 48.4551 15.4215 47.8311 15.4215ZM47.8311 14.4615C48.2231 14.4615 48.5911 14.3695 48.9351 14.1855C49.2791 14.0015 49.5551 13.7255 49.7631 13.3575C49.9791 12.9895 50.0871 12.5415 50.0871 12.0135C50.0871 11.4855 49.9831 11.0375 49.7751 10.6695C49.5671 10.3015 49.2951 10.0295 48.9591 9.85348C48.6231 9.66948 48.2591 9.57748 47.8671 9.57748C47.4671 9.57748 47.0991 9.66948 46.7631 9.85348C46.4351 10.0295 46.1711 10.3015 45.9711 10.6695C45.7711 11.0375 45.6711 11.4855 45.6711 12.0135C45.6711 12.5495 45.7671 13.0015 45.9591 13.3695C46.1591 13.7375 46.4231 14.0135 46.7511 14.1975C47.0791 14.3735 47.4391 14.4615 47.8311 14.4615ZM53.7308 6.43348V15.3135H52.6388V6.43348H53.7308ZM58.04 14.3055L60.08 8.73748H61.244L58.664 15.3135H57.392L54.812 8.73748H55.988L58.04 14.3055ZM62.8825 7.66948C62.6745 7.66948 62.4985 7.59748 62.3545 7.45348C62.2105 7.30948 62.1385 7.13348 62.1385 6.92548C62.1385 6.71748 62.2105 6.54148 62.3545 6.39748C62.4985 6.25348 62.6745 6.18148 62.8825 6.18148C63.0825 6.18148 63.2505 6.25348 63.3865 6.39748C63.5305 6.54148 63.6025 6.71748 63.6025 6.92548C63.6025 7.13348 63.5305 7.30948 63.3865 7.45348C63.2505 7.59748 63.0825 7.66948 62.8825 7.66948ZM63.4105 8.73748V15.3135H62.3185V8.73748H63.4105ZM64.8637 12.0015C64.8637 11.3295 64.9997 10.7415 65.2717 10.2375C65.5437 9.72548 65.9157 9.32948 66.3877 9.04948C66.8677 8.76948 67.4037 8.62948 67.9957 8.62948C68.5077 8.62948 68.9837 8.74948 69.4237 8.98948C69.8637 9.22148 70.1997 9.52948 70.4317 9.91348V6.43348H71.5357V15.3135H70.4317V14.0775C70.2157 14.4695 69.8957 14.7935 69.4717 15.0495C69.0477 15.2975 68.5517 15.4215 67.9837 15.4215C67.3997 15.4215 66.8677 15.2775 66.3877 14.9895C65.9157 14.7015 65.5437 14.2975 65.2717 13.7775C64.9997 13.2575 64.8637 12.6655 64.8637 12.0015ZM70.4317 12.0135C70.4317 11.5175 70.3317 11.0855 70.1317 10.7175C69.9317 10.3495 69.6597 10.0695 69.3157 9.87748C68.9797 9.67748 68.6077 9.57748 68.1997 9.57748C67.7917 9.57748 67.4197 9.67348 67.0837 9.86548C66.7477 10.0575 66.4797 10.3375 66.2797 10.7055C66.0797 11.0735 65.9797 11.5055 65.9797 12.0015C65.9797 12.5055 66.0797 12.9455 66.2797 13.3215C66.4797 13.6895 66.7477 13.9735 67.0837 14.1735C67.4197 14.3655 67.7917 14.4615 68.1997 14.4615C68.6077 14.4615 68.9797 14.3655 69.3157 14.1735C69.6597 13.9735 69.9317 13.6895 70.1317 13.3215C70.3317 12.9455 70.4317 12.5095 70.4317 12.0135ZM76.249 15.4215C75.633 15.4215 75.073 15.2815 74.569 15.0015C74.073 14.7215 73.681 14.3255 73.393 13.8135C73.113 13.2935 72.973 12.6935 72.973 12.0135C72.973 11.3415 73.117 10.7495 73.405 10.2375C73.701 9.71748 74.101 9.32148 74.605 9.04948C75.109 8.76948 75.673 8.62948 76.297 8.62948C76.921 8.62948 77.485 8.76948 77.989 9.04948C78.493 9.32148 78.889 9.71348 79.177 10.2255C79.473 10.7375 79.621 11.3335 79.621 12.0135C79.621 12.6935 79.469 13.2935 79.165 13.8135C78.869 14.3255 78.465 14.7215 77.953 15.0015C77.441 15.2815 76.873 15.4215 76.249 15.4215ZM76.249 14.4615C76.641 14.4615 77.009 14.3695 77.353 14.1855C77.697 14.0015 77.973 13.7255 78.181 13.3575C78.397 12.9895 78.505 12.5415 78.505 12.0135C78.505 11.4855 78.401 11.0375 78.193 10.6695C77.985 10.3015 77.713 10.0295 77.377 9.85348C77.041 9.66948 76.677 9.57748 76.285 9.57748C75.885 9.57748 75.517 9.66948 75.181 9.85348C74.853 10.0295 74.589 10.3015 74.389 10.6695C74.189 11.0375 74.089 11.4855 74.089 12.0135C74.089 12.5495 74.185 13.0015 74.377 13.3695C74.577 13.7375 74.841 14.0135 75.169 14.1975C75.497 14.3735 75.857 14.4615 76.249 14.4615ZM85.348 9.94948C85.564 9.57348 85.884 9.26148 86.308 9.01348C86.74 8.75748 87.24 8.62948 87.808 8.62948C88.392 8.62948 88.92 8.76948 89.392 9.04948C89.872 9.32948 90.248 9.72548 90.52 10.2375C90.792 10.7415 90.928 11.3295 90.928 12.0015C90.928 12.6655 90.792 13.2575 90.52 13.7775C90.248 14.2975 89.872 14.7015 89.392 14.9895C88.92 15.2775 88.392 15.4215 87.808 15.4215C87.248 15.4215 86.752 15.2975 86.32 15.0495C85.896 14.7935 85.572 14.4775 85.348 14.1015V18.4335H84.256V8.73748H85.348V9.94948ZM89.812 12.0015C89.812 11.5055 89.712 11.0735 89.512 10.7055C89.312 10.3375 89.04 10.0575 88.696 9.86548C88.36 9.67348 87.988 9.57748 87.58 9.57748C87.18 9.57748 86.808 9.67748 86.464 9.87748C86.128 10.0695 85.856 10.3535 85.648 10.7295C85.448 11.0975 85.348 11.5255 85.348 12.0135C85.348 12.5095 85.448 12.9455 85.648 13.3215C85.856 13.6895 86.128 13.9735 86.464 14.1735C86.808 14.3655 87.18 14.4615 87.58 14.4615C87.988 14.4615 88.36 14.3655 88.696 14.1735C89.04 13.9735 89.312 13.6895 89.512 13.3215C89.712 12.9455 89.812 12.5055 89.812 12.0015ZM95.2334 15.4215C94.6174 15.4215 94.0574 15.2815 93.5534 15.0015C93.0574 14.7215 92.6654 14.3255 92.3774 13.8135C92.0974 13.2935 91.9574 12.6935 91.9574 12.0135C91.9574 11.3415 92.1014 10.7495 92.3894 10.2375C92.6854 9.71748 93.0854 9.32148 93.5894 9.04948C94.0934 8.76948 94.6574 8.62948 95.2814 8.62948C95.9054 8.62948 96.4694 8.76948 96.9734 9.04948C97.4774 9.32148 97.8734 9.71348 98.1614 10.2255C98.4574 10.7375 98.6054 11.3335 98.6054 12.0135C98.6054 12.6935 98.4534 13.2935 98.1494 13.8135C97.8534 14.3255 97.4494 14.7215 96.9374 15.0015C96.4254 15.2815 95.8574 15.4215 95.2334 15.4215ZM95.2334 14.4615C95.6254 14.4615 95.9934 14.3695 96.3374 14.1855C96.6814 14.0015 96.9574 13.7255 97.1654 13.3575C97.3814 12.9895 97.4894 12.5415 97.4894 12.0135C97.4894 11.4855 97.3854 11.0375 97.1774 10.6695C96.9694 10.3015 96.6974 10.0295 96.3614 9.85348C96.0254 9.66948 95.6614 9.57748 95.2694 9.57748C94.8694 9.57748 94.5014 9.66948 94.1654 9.85348C93.8374 10.0295 93.5734 10.3015 93.3734 10.6695C93.1734 11.0375 93.0734 11.4855 93.0734 12.0135C93.0734 12.5495 93.1694 13.0015 93.3614 13.3695C93.5614 13.7375 93.8254 14.0135 94.1534 14.1975C94.4814 14.3735 94.8414 14.4615 95.2334 14.4615ZM101.133 9.80548C101.325 9.42948 101.597 9.13748 101.949 8.92948C102.309 8.72148 102.745 8.61748 103.257 8.61748V9.74548H102.969C101.745 9.74548 101.133 10.4095 101.133 11.7375V15.3135H100.041V8.73748H101.133V9.80548Z" fill="#003772"/>
<path d="M116.262 11.2564C118.187 12.4492 120.877 13.0506 123.096 12.4273C122.917 11.8779 122.808 11.5727 122.527 11.0551C122.505 11.09 122.482 11.096 122.45 11.1039C122.445 11.1052 122.439 11.1066 122.434 11.1081C120.597 11.6126 116.793 10.5403 115.757 8.86997C115.293 8.12357 115.431 7.22007 116.421 7.10133V7.10097L114.44 6.67754C113.227 8.45969 114.749 10.3189 116.262 11.2564Z" fill="url(#paint0_linear_116_3314)"/>
<path d="M118.017 16.2784C116.74 17.6744 115.098 20.6264 117.231 22.0268L117.79 20.5237C117.324 19.5892 118.382 18.0799 118.997 17.3931C120.148 16.1085 121.772 14.9551 123.489 14.5807C124.025 14.4299 124.347 14.378 124.967 14.3607H126.112C126.134 13.8023 126.17 13.4894 126.292 12.9315L124.783 12.8997C124.193 12.9236 123.868 12.9597 123.301 13.0795C121.261 13.5774 119.418 14.7476 118.017 16.2784Z" fill="url(#paint1_linear_116_3314)"/>
<path d="M123.914 18.2714C124.572 17.0632 124.934 15.7388 124.967 14.3615L124.967 14.3607C124.347 14.378 124.025 14.4299 123.489 14.5807C123.38 16.7318 122.105 18.9027 120.38 20.1847C119.785 20.6268 118.277 21.5018 117.79 20.5237L117.231 22.0268C119.698 23.6463 122.852 20.2212 123.914 18.2714Z" fill="url(#paint2_linear_116_3314)"/>
<path d="M129.328 21.1382C130.59 22.2606 132.828 23.46 134.208 21.8328L132.932 21.0104C132.235 21.5047 131.025 20.6658 130.494 20.2059C128.93 18.8519 127.616 16.7574 127.592 14.6537L127.592 14.6534L127.593 14.6537C127.611 14.0807 127.642 13.7592 127.776 13.1847C127.775 13.1786 127.776 13.1664 127.782 13.1427C127.807 13.0293 127.854 12.9122 127.902 12.7941C127.957 12.6586 128.012 12.5218 128.035 12.3875C127.484 12.227 127.186 12.0983 126.663 11.8293L126.292 12.9315C126.17 13.4894 126.134 13.8023 126.112 14.3607C126.017 16.8842 127.47 19.4872 129.328 21.1382Z" fill="url(#paint3_linear_116_3314)"/>
<path d="M131.953 15.4743C130.675 14.3319 129.435 13.748 127.827 13.1949C127.813 13.1899 127.801 13.1904 127.792 13.1907C127.784 13.1911 127.778 13.1913 127.776 13.1847C127.642 13.7592 127.611 14.0807 127.593 14.6537C129.413 15.2421 131.15 16.4724 132.279 18.0025C132.751 18.6411 133.828 20.3754 132.932 21.0104L134.208 21.8328C135.879 19.8628 133.449 16.8107 131.953 15.4743Z" fill="url(#paint4_linear_116_3314)"/>
<path d="M131.73 6.55953C129.978 7.43453 128.413 8.87654 127.388 10.5242C127.909 10.8034 128.208 10.9435 128.774 11.1095C128.711 11.0419 129.409 10.2163 129.494 10.1227C130.646 8.85718 132.957 7.18208 134.743 7.20802C135.135 7.21376 135.459 7.31928 135.663 7.51783L136.958 6.80102C135.809 5.11349 133.249 5.80144 131.73 6.55953Z" fill="url(#paint5_linear_116_3314)"/>
<path d="M135.888 10.8154C137.065 9.87247 137.91 8.19956 136.958 6.80102L135.663 7.51783C135.9 7.74878 135.975 8.10561 135.804 8.57769C135.485 9.45562 134.342 10.1852 133.518 10.5568C132.052 11.2177 130.356 11.476 128.774 11.1095C128.208 10.9435 127.909 10.8034 127.388 10.5242C127.353 10.4869 127.254 10.4178 127.141 10.3386C126.928 10.1902 126.665 10.0061 126.672 9.92801C126.276 10.4425 126.023 10.6647 125.559 11.0529H125.632L126.663 11.8293C127.186 12.0983 127.484 12.227 128.035 12.3875C130.566 13.2808 133.835 12.4606 135.888 10.8154Z" fill="url(#paint6_linear_116_3314)"/>
<path fill-rule="evenodd" clip-rule="evenodd" d="M124.54 11.8044L125.559 11.0529C126.023 10.6647 126.276 10.4425 126.672 9.92801C128.022 8.09653 128.729 5.84418 128.591 3.56334C128.481 1.75013 127.326 -0.350235 125.18 0.0494521L125.966 1.51887C126.807 1.76767 127.071 2.99157 127.113 3.74637C127.21 5.50514 126.676 7.3326 125.669 8.77169C125.317 9.24566 125.094 9.49559 124.631 9.89074L123.913 10.4881C123.896 10.4916 123.884 10.4925 123.876 10.4915C124.186 10.9767 124.319 11.2711 124.54 11.8044Z" fill="url(#paint7_linear_116_3314)"/>
<path d="M122.872 5.89168C123.117 7.32712 123.749 8.73369 124.631 9.89074C125.094 9.49559 125.317 9.24566 125.669 8.77169C125.589 8.82613 124.971 7.62268 124.924 7.51783C124.345 6.23547 124.024 4.41715 124.32 3.03541C124.481 2.28463 125.025 1.24048 125.966 1.51887L125.18 0.0494521C122.693 0.512709 122.54 3.94878 122.872 5.89168Z" fill="url(#paint8_linear_116_3314)"/>
<path d="M123.096 12.4273L123.301 13.0795C123.868 12.9597 124.193 12.9236 124.783 12.8997L124.54 11.8044C124.319 11.2711 124.186 10.9767 123.876 10.4915L123.853 10.4471L123.85 10.4413C122.821 8.78996 121.472 7.47472 119.743 6.53651C118.225 5.71266 115.626 4.93521 114.44 6.67754L116.421 7.10097C117.631 6.95593 119.145 7.80755 120.085 8.5006C121.025 9.1933 121.913 10.0639 122.527 11.0551C122.808 11.5727 122.917 11.8779 123.096 12.4273Z" fill="url(#paint9_linear_116_3314)"/>
<path d="M146.957 21.0596C146.678 21.0596 146.363 21.0317 146.014 20.9758C145.679 20.92 145.358 20.8502 145.051 20.7665C144.758 20.6827 144.528 20.592 144.36 20.4943C144.263 20.4384 144.186 20.3826 144.13 20.3268C144.088 20.257 144.067 20.1453 144.067 19.9917L143.963 16.7044C143.963 16.4252 144.053 16.2857 144.235 16.2857C144.388 16.2857 144.493 16.4113 144.549 16.6625L144.737 17.4582C145.212 19.4543 146.098 20.4524 147.396 20.4524C148.094 20.4524 148.646 20.2221 149.051 19.7614C149.469 19.2868 149.679 18.6238 149.679 17.7723C149.679 16.9487 149.462 16.181 149.03 15.4691C148.611 14.7572 147.934 14.0522 146.999 13.3543C145.966 12.6145 145.212 11.9026 144.737 11.2186C144.263 10.5206 144.025 9.78081 144.025 8.99911C144.025 7.96615 144.381 7.14258 145.093 6.52839C145.819 5.90024 146.74 5.58616 147.857 5.58616C148.276 5.58616 148.681 5.63502 149.071 5.73273C149.462 5.83044 149.783 5.97003 150.035 6.1515C150.118 6.20733 150.181 6.27015 150.223 6.33994C150.279 6.40974 150.307 6.50047 150.307 6.61214L150.37 9.77383C150.37 10.0111 150.279 10.1298 150.097 10.1298C149.972 10.1298 149.881 10.0321 149.825 9.83665L149.679 9.31319C149.372 8.23835 149.051 7.45666 148.716 6.96809C148.394 6.46557 147.927 6.21431 147.313 6.21431C146.712 6.21431 146.231 6.40974 145.868 6.80059C145.519 7.19144 145.344 7.74281 145.344 8.45472C145.344 9.05495 145.54 9.62726 145.931 10.1717C146.322 10.7161 147.006 11.3791 147.983 12.1608C149.03 13.0123 149.79 13.8359 150.265 14.6315C150.754 15.4132 150.998 16.2508 150.998 17.1441C150.998 17.9258 150.823 18.6098 150.474 19.1961C150.125 19.7824 149.644 20.243 149.03 20.578C148.429 20.8991 147.738 21.0596 146.957 21.0596Z" fill="#171717"/>
<path d="M155.462 21.0596C154.751 21.0596 154.108 20.8223 153.536 20.3477C152.978 19.8591 152.531 19.1961 152.196 18.3586C151.861 17.521 151.694 16.5858 151.694 15.5528C151.694 14.5199 151.861 13.5916 152.196 12.768C152.531 11.9444 152.985 11.2884 153.557 10.7998C154.129 10.3112 154.764 10.067 155.462 10.067C156.174 10.067 156.809 10.3112 157.368 10.7998C157.94 11.2884 158.394 11.9444 158.729 12.768C159.064 13.5916 159.231 14.5199 159.231 15.5528C159.231 16.5858 159.064 17.521 158.729 18.3586C158.408 19.1961 157.961 19.8591 157.389 20.3477C156.816 20.8223 156.174 21.0596 155.462 21.0596ZM155.462 20.5361C156.914 20.5361 157.64 18.875 157.64 15.5528C157.64 12.2446 156.914 10.5904 155.462 10.5904C154.011 10.5904 153.285 12.2446 153.285 15.5528C153.285 18.875 154.011 20.5361 155.462 20.5361Z" fill="#171717"/>
<path d="M160.89 21.0805C160.429 21.0805 160.101 20.913 159.906 20.578C159.71 20.229 159.703 19.6637 159.885 18.882L162.544 7.47061C162.614 7.21935 162.614 7.04487 162.544 6.94716C162.488 6.84944 162.362 6.79361 162.167 6.77965L161.539 6.71683C161.329 6.70287 161.239 6.61214 161.267 6.44464C161.295 6.31901 161.392 6.24223 161.56 6.21431C162.062 6.13056 162.509 6.03285 162.9 5.92118C163.291 5.79555 163.605 5.63502 163.842 5.43959C163.954 5.35584 164.058 5.31396 164.156 5.31396C164.324 5.31396 164.386 5.41866 164.345 5.62804L161.246 18.9029C161.176 19.21 161.162 19.4543 161.204 19.6358C161.26 19.8033 161.392 19.887 161.602 19.887C161.853 19.887 162.125 19.7056 162.418 19.3427C162.725 18.9658 163.067 18.2608 163.444 17.2279C163.5 17.0464 163.598 16.9557 163.737 16.9557C163.947 16.9557 164.003 17.0813 163.905 17.3326C163.612 18.2818 163.284 19.0356 162.921 19.5939C162.572 20.1383 162.223 20.5222 161.874 20.7455C161.525 20.9689 161.197 21.0805 160.89 21.0805Z" fill="#171717"/>
<path d="M166.464 21.0596C165.878 21.0596 165.396 20.8781 165.019 20.5152C164.643 20.1383 164.454 19.6428 164.454 19.0286C164.454 18.4283 164.643 17.863 165.019 17.3326C165.396 16.7882 165.913 16.2996 166.569 15.8669C167.225 15.4342 167.972 15.0852 168.809 14.82C168.991 14.7641 169.081 14.6455 169.081 14.464V12.5586C169.081 11.8886 168.977 11.414 168.767 11.1348C168.558 10.8417 168.272 10.6951 167.909 10.6951C167.56 10.6951 167.239 10.8556 166.946 11.1767C166.667 11.4838 166.464 12.0073 166.339 12.7471C166.269 13.1938 166.115 13.5218 165.878 13.7312C165.655 13.9266 165.424 14.0243 165.187 14.0243C164.796 14.0243 164.601 13.8289 164.601 13.438C164.601 13.0332 164.712 12.6354 164.936 12.2446C165.173 11.8397 165.48 11.4768 165.857 11.1558C166.234 10.8207 166.646 10.5555 167.092 10.3601C167.539 10.1647 167.986 10.067 168.432 10.067C169.814 10.067 170.505 10.8696 170.505 12.4749V18.882C170.505 19.4683 170.652 19.7614 170.945 19.7614C171.126 19.7614 171.294 19.6428 171.448 19.4055C171.601 19.1542 171.678 18.7354 171.678 18.1492C171.678 17.9258 171.769 17.8142 171.95 17.8142C172.118 17.8142 172.201 17.9328 172.201 18.1701C172.201 19.1891 172.02 19.9289 171.657 20.3896C171.308 20.8363 170.91 21.0596 170.463 21.0596C170.128 21.0596 169.863 20.927 169.668 20.6618C169.472 20.3826 169.34 20.0546 169.27 19.6777C169.256 19.5381 169.193 19.4683 169.081 19.4683C168.984 19.4543 168.886 19.5171 168.788 19.6567C168.453 20.1174 168.111 20.4663 167.762 20.7036C167.413 20.9409 166.981 21.0596 166.464 21.0596ZM167.03 20.0964C167.392 20.0964 167.727 19.9708 168.035 19.7195C168.342 19.4543 168.593 19.1054 168.788 18.6726C168.984 18.2399 169.081 17.7513 169.081 17.2069V15.6784C169.081 15.4132 168.935 15.3365 168.642 15.4481C167.79 15.7552 167.127 16.181 166.653 16.7254C166.192 17.2558 165.962 17.8979 165.962 18.6517C165.962 19.6149 166.318 20.0964 167.03 20.0964Z" fill="#171717"/>
<path d="M172.524 20.8712C172.315 20.8712 172.21 20.7944 172.21 20.6408C172.21 20.5152 172.301 20.4314 172.482 20.3896L172.733 20.3477C173.027 20.2919 173.215 20.2081 173.299 20.0964C173.396 19.9708 173.445 19.7614 173.445 19.4683V12.433C173.445 12.1817 173.403 12.0142 173.32 11.9305C173.25 11.8328 173.117 11.77 172.922 11.742L172.482 11.6792C172.301 11.6653 172.21 11.5885 172.21 11.4489C172.21 11.3372 172.322 11.2605 172.545 11.2186C172.978 11.1488 173.306 11.0371 173.529 10.8836C173.766 10.73 174.011 10.5416 174.262 10.3182C174.388 10.1926 174.492 10.1298 174.576 10.1298C174.702 10.1298 174.764 10.2135 174.764 10.381V11.3233C174.764 11.4489 174.806 11.5327 174.89 11.5745C174.988 11.6024 175.092 11.5606 175.204 11.4489C175.763 10.9185 176.251 10.5555 176.67 10.3601C177.103 10.1647 177.556 10.067 178.031 10.067C178.659 10.067 179.161 10.2903 179.538 10.737C179.915 11.1697 180.104 11.8118 180.104 12.6633V19.4683C180.104 19.7614 180.146 19.9708 180.229 20.0964C180.327 20.2081 180.522 20.2849 180.816 20.3268L181.276 20.3896C181.43 20.4175 181.507 20.5012 181.507 20.6408C181.507 20.7944 181.423 20.8712 181.255 20.8712H177.738C177.542 20.8712 177.445 20.7944 177.445 20.6408C177.445 20.5012 177.521 20.4175 177.675 20.3896L177.968 20.3477C178.261 20.3058 178.45 20.2221 178.533 20.0964C178.631 19.9708 178.68 19.7614 178.68 19.4683V12.8936C178.68 12.2097 178.554 11.7281 178.303 11.4489C178.052 11.1697 177.696 11.0301 177.235 11.0301C176.788 11.0301 176.384 11.1627 176.021 11.428C175.672 11.6792 175.393 12.0212 175.183 12.4539C174.974 12.8727 174.869 13.3403 174.869 13.8568V19.4683C174.869 19.7614 174.911 19.9708 174.995 20.0964C175.092 20.2221 175.288 20.2988 175.581 20.3268L176.146 20.3896C176.3 20.4175 176.377 20.4943 176.377 20.6199C176.377 20.7874 176.272 20.8712 176.063 20.8712H172.524Z" fill="#171717"/>
<path d="M183.699 8.20346C183.406 8.20346 183.155 8.09876 182.946 7.88938C182.75 7.68 182.652 7.41478 182.652 7.09372C182.652 6.77267 182.75 6.51443 182.946 6.319C183.155 6.10962 183.406 6.00493 183.699 6.00493C183.993 6.00493 184.237 6.10962 184.432 6.319C184.628 6.51443 184.725 6.77267 184.725 7.09372C184.725 7.41478 184.628 7.68 184.432 7.88938C184.237 8.09876 183.993 8.20346 183.699 8.20346ZM181.941 20.8712C181.731 20.8712 181.626 20.7944 181.626 20.6408C181.626 20.5152 181.717 20.4314 181.899 20.3896L182.15 20.3477C182.499 20.2919 182.722 20.2081 182.82 20.0964C182.918 19.9708 182.967 19.7614 182.967 19.4683V12.433C182.967 12.1817 182.925 12.0142 182.841 11.9305C182.771 11.8328 182.639 11.77 182.443 11.742L182.003 11.6792C181.822 11.6653 181.731 11.5885 181.731 11.4489C181.731 11.3372 181.843 11.2605 182.066 11.2186C182.499 11.1488 182.848 11.0371 183.113 10.8836C183.378 10.73 183.637 10.5416 183.888 10.3182C184.013 10.1926 184.118 10.1298 184.202 10.1298C184.328 10.1298 184.39 10.2135 184.39 10.381V19.4683C184.39 19.7614 184.432 19.9708 184.516 20.0964C184.6 20.2221 184.76 20.2988 184.998 20.3268L185.521 20.3896C185.675 20.4175 185.751 20.4943 185.751 20.6199C185.751 20.7874 185.647 20.8712 185.437 20.8712H181.941Z" fill="#171717"/>
<path d="M188.299 21.0596C187.978 21.0596 187.636 21.0177 187.273 20.934C186.91 20.8642 186.617 20.7734 186.393 20.6618C186.268 20.592 186.205 20.4733 186.205 20.3058L186.142 17.9607C186.142 17.7234 186.233 17.6048 186.414 17.6048C186.568 17.6048 186.672 17.7164 186.728 17.9398C186.966 18.9309 187.252 19.6079 187.587 19.9708C187.936 20.3337 188.354 20.5152 188.843 20.5152C189.248 20.5152 189.583 20.3617 189.848 20.0546C190.113 19.7335 190.246 19.2938 190.246 18.7354C190.246 18.1771 190.092 17.6815 189.785 17.2488C189.478 16.8161 188.962 16.3415 188.236 15.825C187.51 15.3365 186.98 14.8479 186.645 14.3593C186.309 13.8568 186.142 13.3124 186.142 12.7261C186.142 11.9305 186.421 11.2884 186.98 10.7998C187.538 10.3112 188.278 10.067 189.199 10.067C189.478 10.067 189.75 10.1019 190.016 10.1717C190.281 10.2275 190.518 10.3252 190.727 10.4648C190.853 10.5485 190.916 10.6602 190.916 10.7998L190.958 13.103C190.958 13.3124 190.874 13.4171 190.707 13.4171C190.609 13.4171 190.539 13.3892 190.497 13.3333C190.455 13.2636 190.42 13.1798 190.392 13.0821C190.113 12.1748 189.834 11.5466 189.555 11.1976C189.276 10.8347 188.934 10.6532 188.529 10.6532C188.166 10.6532 187.866 10.7789 187.629 11.0301C187.391 11.2814 187.273 11.5955 187.273 11.9724C187.273 12.4609 187.419 12.8867 187.712 13.2496C188.005 13.6125 188.536 14.0592 189.304 14.5896C190.002 15.0922 190.525 15.6366 190.874 16.2228C191.237 16.7952 191.418 17.4233 191.418 18.1073C191.418 19.0007 191.132 19.7195 190.56 20.2639C189.988 20.7944 189.234 21.0596 188.299 21.0596Z" fill="#171717"/>
<path d="M193.818 21.0596C193.511 21.0596 193.246 20.9619 193.023 20.7665C192.813 20.5571 192.709 20.2849 192.709 19.9499C192.709 19.6288 192.813 19.3706 193.023 19.1751C193.246 18.9658 193.511 18.8611 193.818 18.8611C194.098 18.8611 194.349 18.9658 194.572 19.1751C194.795 19.3706 194.907 19.6288 194.907 19.9499C194.907 20.2849 194.795 20.5571 194.572 20.7665C194.349 20.9619 194.098 21.0596 193.818 21.0596Z" fill="#171717"/>
<path d="M198.129 21.0596C197.543 21.0596 197.061 20.8781 196.685 20.5152C196.308 20.1383 196.119 19.6428 196.119 19.0286C196.119 18.4283 196.308 17.863 196.685 17.3326C197.061 16.7882 197.578 16.2996 198.234 15.8669C198.89 15.4342 199.637 15.0852 200.474 14.82C200.656 14.7641 200.747 14.6455 200.747 14.464V12.5586C200.747 11.8886 200.642 11.414 200.433 11.1348C200.223 10.8417 199.937 10.6951 199.574 10.6951C199.225 10.6951 198.904 10.8556 198.611 11.1767C198.332 11.4838 198.129 12.0073 198.004 12.7471C197.934 13.1938 197.78 13.5218 197.543 13.7312C197.32 13.9266 197.089 14.0243 196.852 14.0243C196.461 14.0243 196.266 13.8289 196.266 13.438C196.266 13.0332 196.377 12.6354 196.601 12.2446C196.838 11.8397 197.145 11.4768 197.522 11.1558C197.899 10.8207 198.311 10.5555 198.757 10.3601C199.204 10.1647 199.651 10.067 200.098 10.067C201.479 10.067 202.17 10.8696 202.17 12.4749V18.882C202.17 19.4683 202.317 19.7614 202.61 19.7614C202.792 19.7614 202.959 19.6428 203.113 19.4055C203.266 19.1542 203.343 18.7354 203.343 18.1492C203.343 17.9258 203.434 17.8142 203.615 17.8142C203.783 17.8142 203.866 17.9328 203.866 18.1701C203.866 19.1891 203.685 19.9289 203.322 20.3896C202.973 20.8363 202.575 21.0596 202.129 21.0596C201.794 21.0596 201.528 20.927 201.333 20.6618C201.137 20.3826 201.005 20.0546 200.935 19.6777C200.921 19.5381 200.858 19.4683 200.747 19.4683C200.649 19.4543 200.551 19.5171 200.453 19.6567C200.118 20.1174 199.776 20.4663 199.428 20.7036C199.079 20.9409 198.646 21.0596 198.129 21.0596ZM198.695 20.0964C199.058 20.0964 199.393 19.9708 199.7 19.7195C200.007 19.4543 200.258 19.1054 200.453 18.6726C200.649 18.2399 200.747 17.7513 200.747 17.2069V15.6784C200.747 15.4132 200.6 15.3365 200.307 15.4481C199.455 15.7552 198.792 16.181 198.318 16.7254C197.857 17.2558 197.627 17.8979 197.627 18.6517C197.627 19.6149 197.983 20.0964 198.695 20.0964Z" fill="#171717"/>
<path d="M205.948 8.20346C205.655 8.20346 205.404 8.09876 205.194 7.88938C204.999 7.68 204.901 7.41478 204.901 7.09372C204.901 6.77267 204.999 6.51443 205.194 6.319C205.404 6.10962 205.655 6.00493 205.948 6.00493C206.241 6.00493 206.485 6.10962 206.681 6.319C206.876 6.51443 206.974 6.77267 206.974 7.09372C206.974 7.41478 206.876 7.68 206.681 7.88938C206.485 8.09876 206.241 8.20346 205.948 8.20346ZM204.189 20.8712C203.98 20.8712 203.875 20.7944 203.875 20.6408C203.875 20.5152 203.966 20.4314 204.147 20.3896L204.399 20.3477C204.748 20.2919 204.971 20.2081 205.069 20.0964C205.166 19.9708 205.215 19.7614 205.215 19.4683V12.433C205.215 12.1817 205.173 12.0142 205.09 11.9305C205.02 11.8328 204.887 11.77 204.692 11.742L204.252 11.6792C204.071 11.6653 203.98 11.5885 203.98 11.4489C203.98 11.3372 204.091 11.2605 204.315 11.2186C204.748 11.1488 205.097 11.0371 205.362 10.8836C205.627 10.73 205.885 10.5416 206.136 10.3182C206.262 10.1926 206.367 10.1298 206.451 10.1298C206.576 10.1298 206.639 10.2135 206.639 10.381V19.4683C206.639 19.7614 206.681 19.9708 206.765 20.0964C206.848 20.2221 207.009 20.2988 207.246 20.3268L207.77 20.3896C207.923 20.4175 208 20.4943 208 20.6199C208 20.7874 207.895 20.8712 207.686 20.8712H204.189Z" fill="#171717"/>
<defs>
<linearGradient id="paint0_linear_116_3314" x1="115.218" y1="9.55913" x2="122.805" y2="11.9622" gradientUnits="userSpaceOnUse">
<stop stop-color="#5DB9F3"/>
<stop offset="1" stop-color="#4279EE"/>
</linearGradient>
<linearGradient id="paint1_linear_116_3314" x1="126.292" y1="13.27" x2="121.165" y2="14.2637" gradientUnits="userSpaceOnUse">
<stop stop-color="#4279EE"/>
<stop offset="1" stop-color="#5DB9F3"/>
</linearGradient>
<linearGradient id="paint2_linear_116_3314" x1="124.11" y1="14.9996" x2="117.11" y2="21.6881" gradientUnits="userSpaceOnUse">
<stop stop-color="#4279EE"/>
<stop offset="1" stop-color="#5DB9F3"/>
</linearGradient>
<linearGradient id="paint3_linear_116_3314" x1="127.302" y1="11.7506" x2="127.949" y2="17.6682" gradientUnits="userSpaceOnUse">
<stop stop-color="#4279EE"/>
<stop offset="1" stop-color="#5DB9F3"/>
</linearGradient>
<linearGradient id="paint4_linear_116_3314" x1="127.777" y1="13.2817" x2="133.417" y2="21.7036" gradientUnits="userSpaceOnUse">
<stop stop-color="#4279EE"/>
<stop offset="1" stop-color="#5DB9F3"/>
</linearGradient>
<linearGradient id="paint5_linear_116_3314" x1="127.848" y1="10.8339" x2="131.808" y2="7.5651" gradientUnits="userSpaceOnUse">
<stop stop-color="#4279EE"/>
<stop offset="1" stop-color="#5DB9F3"/>
</linearGradient>
<linearGradient id="paint6_linear_116_3314" x1="125.684" y1="10.4546" x2="131.577" y2="12.2625" gradientUnits="userSpaceOnUse">
<stop stop-color="#4279EE"/>
<stop offset="1" stop-color="#5DB9F3"/>
</linearGradient>
<linearGradient id="paint7_linear_116_3314" x1="126.281" y1="6.88326" x2="124.148" y2="11.333" gradientUnits="userSpaceOnUse">
<stop stop-color="#5DB9F3"/>
<stop offset="1" stop-color="#4279EE"/>
</linearGradient>
<linearGradient id="paint8_linear_116_3314" x1="123.084" y1="5.52424" x2="125.64" y2="9.94322" gradientUnits="userSpaceOnUse">
<stop stop-color="#5DB9F3"/>
<stop offset="1" stop-color="#4279EE"/>
</linearGradient>
<linearGradient id="paint9_linear_116_3314" x1="121.856" y1="9.17635" x2="124.19" y2="13.8994" gradientUnits="userSpaceOnUse">
<stop stop-color="#5DB9F3"/>
<stop offset="1" stop-color="#4279EE"/>
</linearGradient>
</defs>
</svg>
