<svg width="80" height="43" viewBox="0 0 80 43" fill="none" xmlns="http://www.w3.org/2000/svg">
<path d="M50.8667 2.795C50.9 1.20731 50.9833 0.463077 51.15 0.281154C51.2667 0.115769 51.4167 0 51.4833 0C51.5333 0 52.2167 0.396923 53 0.86C53.7833 1.32308 54.8333 2.01769 55.3333 2.38154C55.8333 2.74538 56.8167 3.60538 57.5167 4.3C58.2 4.97808 59.15 6.10269 59.6167 6.78077C60.0833 7.45885 60.7833 8.69923 61.2 9.50962C61.6167 10.3365 62.15 11.4777 62.3833 12.0731C62.6167 12.6685 62.95 13.7104 63.1333 14.3885C63.3167 15.0665 63.5167 16.1085 63.6833 17.7788L64.8667 18.5231C65.5167 18.9365 66.4167 19.6808 66.8667 20.1769C67.3167 20.6731 67.8667 21.4669 68.0833 21.9135C68.3 22.3765 68.5333 23.0381 68.5833 23.4019C68.65 23.7658 68.6167 24.3777 68.5167 24.7746C68.4167 25.155 68.0833 25.7338 67.8 26.0646C67.5 26.3954 66.9833 26.7923 66.6667 26.9577C66.35 27.1065 65.6333 27.3215 65.0833 27.4208C64.5333 27.5365 63.8167 27.6358 63.5 27.6523C62.9167 27.7019 62.9167 27.7019 64 28.2146C64.6 28.4958 66.1333 29.3062 67.4167 30.0008C68.7 30.7119 70.6167 31.8696 71.6667 32.5477C72.7167 33.2423 74.3 34.3835 75.1667 35.0781C76.0333 35.7727 77.2667 36.8808 77.8833 37.5588C78.5 38.2369 79.2333 39.2292 79.5167 39.775C79.8389 40.4365 80 41.0154 80 41.5115C80 41.925 79.8833 42.4212 79.75 42.6362C79.55 42.9173 79.35 43 78.75 43C78.3333 43 77.65 42.8842 77.2167 42.7354C76.7667 42.5865 76.1167 42.3385 75.75 42.1731C75.3833 42.0242 73.9667 41.4619 72.5833 40.9658C71.2167 40.4531 69.4167 39.8412 68.5833 39.6096C67.7667 39.3615 66.5167 39.0308 65.8333 38.8654C65.15 38.6835 64.1 38.4354 63.5 38.3031C62.9 38.1708 61.8167 37.9392 61.0833 37.8069C60.35 37.6746 59 37.4431 58.0833 37.3108C57.1667 37.1619 55.3333 36.9469 54 36.8146C52.6667 36.6658 50.2833 36.4838 48.7167 36.3846C47.1333 36.3019 44.0333 36.2192 41.8333 36.2192C39.6333 36.2192 36.5 36.3019 34.8833 36.3846C33.25 36.4838 30.7167 36.6658 29.25 36.8146C27.7833 36.9469 25.5333 37.2115 24.25 37.3935C22.9667 37.5754 20.9 37.9062 19.6667 38.1377C18.4333 38.3527 16.9 38.6669 16.25 38.8158C15.6167 38.9646 14.1167 39.3285 12.9167 39.6262C11.7333 39.9238 9.93333 40.4035 8.91667 40.6846C7.91667 40.9658 6.71667 41.3131 6.25 41.4454C5.8 41.5942 4.75 41.8754 3.91667 42.1069C3.1 42.3219 2.01667 42.5038 1.55 42.5038C0.883333 42.5038 0.583333 42.4212 0.333333 42.1731C0.1 41.9415 0 41.6273 0 41.065C0 40.5854 0.15 39.9735 0.383333 39.5435C0.583333 39.13 1.16667 38.3527 1.66667 37.8235C2.16667 37.2777 3.15 36.4177 3.83333 35.905C4.51667 35.3923 5.95 34.4496 7 33.8212C8.05 33.1927 9.85 32.25 11 31.7208C12.15 31.175 13.2333 30.6788 13.4167 30.5962C13.6 30.5135 14.4333 30.1827 15.25 29.8354C16.0833 29.5046 17.7333 28.9092 18.9167 28.5123C20.1167 28.1154 20.9 27.7846 20.6667 27.7846C20.4333 27.7846 19.6167 27.6358 18.8333 27.4538C18.05 27.2554 16.7167 26.7758 15.8833 26.3788C14.8333 25.8827 14.0167 25.3369 12.4167 23.8154L13.0833 23.22C13.45 22.8892 14.1667 22.4262 14.6667 22.1615C15.1667 21.9135 15.9167 21.5992 17.0833 21.2685L15.75 21.0535C15.0167 20.9377 13.8167 20.6565 13.0833 20.425C12.35 20.1935 11.15 19.6642 10.4167 19.2508C9.68333 18.8373 8.68333 18.1923 8.18333 17.8119C7.68333 17.4315 6.91667 16.7038 6.45 16.2077C6 15.7115 5.3 14.8515 4.91667 14.3058C4.51667 13.76 3.96667 12.8669 3.66667 12.3212C3.36667 11.7754 2.91667 10.7665 2.65 10.0885C2.26667 9.11269 2.21667 8.815 2.38333 8.66615C2.48333 8.56692 3.06667 8.36846 3.66667 8.21962C4.26667 8.07077 5.51667 7.83923 6.46667 7.69038C7.4 7.55808 9.2 7.44231 10.4667 7.44231C11.7167 7.44231 13.2333 7.525 13.8333 7.60769C14.4333 7.70692 15.1167 7.82269 15.8333 7.93846L15.45 7.24385C15.2333 6.84692 14.9333 6.11923 14.7833 5.62308C14.65 5.12692 14.4833 4.15115 14.4167 3.47308C14.3667 2.795 14.3833 2.13346 14.45 2.01769C14.5667 1.83577 14.9333 1.83577 16.4167 1.98462C17.4333 2.08385 18.6667 2.23269 19.1667 2.33192C19.6667 2.43115 20.8 2.66269 21.6667 2.84462C22.5333 3.02654 23.6667 3.29115 24.1667 3.42346C24.6667 3.55577 26.1 4.00231 27.3333 4.41577C28.5667 4.82923 30.45 5.55692 31.5 6.03654C32.55 6.49962 34.2 7.35962 35.1667 7.93846C36.1333 8.51731 37.6 9.47654 38.4167 10.0554C39.25 10.6508 40.6333 11.6927 41.5 12.3873C42.3667 13.0654 44.1 14.62 47.5833 18.0269L48.0833 17.7954C48.3667 17.6631 48.9167 17.415 50.05 16.9519L48.7333 15.9762C48 15.4304 46.85 14.4215 46.15 13.7435C45.4667 13.0488 44.5833 12.04 44.2167 11.4942C43.85 10.9485 43.3167 10.0554 43.05 9.50962C42.7667 8.96385 42.35 8.00462 42.1167 7.35962C41.8833 6.73115 41.6 5.87115 41.4833 5.45769C41.3833 5.04423 41.2333 4.44885 41.1667 4.13462C41.1 3.82038 41.1 3.44 41.1833 3.30769C41.3 3.09269 41.4833 3.09269 42.7833 3.29115C43.5833 3.40692 44.8167 3.655 45.5 3.83692C46.1833 4.01885 47.3833 4.44885 48.1667 4.81269C48.95 5.17654 49.9 5.70577 50.3 5.97038C50.6833 6.235 51.0333 6.45 51.0833 6.45C51.1333 6.45 51.0833 6.13577 50.9833 5.75538C50.8833 5.34192 50.8333 4.085 50.8667 2.795Z" fill="#B3B7BC"/>
</svg>
