<svg width="118" height="41" viewBox="0 0 118 41" fill="none" xmlns="http://www.w3.org/2000/svg">
<path fill-rule="evenodd" clip-rule="evenodd" d="M112.258 0.00107811C112.637 -0.010207 113.284 0.068789 113.707 0.15907C114.12 0.249351 114.755 0.50891 115.123 0.734612C115.491 0.94903 116.038 1.36658 116.328 1.65999C116.617 1.95341 117.008 2.4161 117.186 2.69823C117.364 2.98036 117.61 3.53333 117.744 3.93959C117.933 4.49256 118 4.93269 118 5.74522C118 6.55775 117.933 6.99787 117.744 7.55084C117.61 7.9571 117.364 8.51008 117.186 8.7922C117.008 9.07433 116.573 9.58216 116.216 9.932C115.859 10.2818 115.302 10.6994 114.99 10.8574C114.666 11.0267 114.109 11.2411 113.763 11.3314C113.406 11.4216 112.804 11.5006 112.425 11.5006C112.035 11.5006 111.388 11.4216 110.976 11.3314C110.552 11.2411 109.916 10.9815 109.548 10.7558C109.18 10.5414 108.612 10.09 108.288 9.77401C107.898 9.37903 107.541 8.8712 107.229 8.23923C106.783 7.32514 106.761 7.22357 106.716 6.09506C106.683 5.19224 106.727 4.72955 106.872 4.22172C106.973 3.84931 107.196 3.29634 107.341 2.98036C107.497 2.67566 107.965 2.07754 108.366 1.67128C108.812 1.21987 109.359 0.802323 109.771 0.610476C110.139 0.429914 110.697 0.215496 110.998 0.147785C111.31 0.068789 111.868 0.00107811 112.258 0.00107811ZM110.05 1.87441C109.838 1.99855 109.415 2.38224 109.125 2.70951C108.824 3.04807 108.478 3.54461 108.355 3.82674C108.221 4.10887 108.065 4.63927 107.998 5.01168C107.92 5.47437 107.92 5.91449 107.998 6.42232C108.065 6.82859 108.244 7.40413 108.389 7.72012C108.534 8.02481 108.913 8.55522 109.214 8.88249C109.571 9.26618 110.039 9.62731 110.496 9.84172C111.154 10.169 111.31 10.2028 112.336 10.2028C113.362 10.2028 113.507 10.169 114.176 9.84172C114.633 9.61602 115.112 9.2549 115.491 8.85991C115.803 8.51008 116.205 7.93453 116.372 7.57341C116.651 7.00915 116.684 6.79473 116.684 5.80164C116.673 4.86497 116.629 4.56028 116.406 3.99602C116.238 3.56718 115.915 3.08192 115.514 2.66437C115.146 2.25811 114.633 1.86313 114.231 1.65999C113.696 1.40044 113.373 1.32144 112.615 1.2763C111.89 1.24244 111.522 1.2763 111.054 1.43429C110.719 1.54714 110.262 1.73899 110.05 1.87441ZM97.5064 11.0154C98.1196 11.0379 99.0451 11.1282 99.5691 11.2185C100.093 11.3088 100.941 11.5119 101.465 11.6812C101.989 11.8392 102.814 12.1777 103.304 12.426C103.795 12.6743 104.453 13.0467 104.754 13.2611C105.066 13.4643 105.612 13.8931 105.98 14.2204C106.348 14.5363 106.917 15.1119 107.24 15.4956C107.564 15.8793 107.998 16.4435 108.21 16.7482C108.411 17.0642 108.779 17.6962 109.024 18.1589C109.27 18.6216 109.649 19.5131 109.861 20.1338C110.072 20.7545 110.362 21.8153 110.496 22.5037C110.63 23.192 110.764 24.4447 110.797 25.3249C110.831 26.2616 110.808 27.3901 110.73 28.0898C110.663 28.7443 110.474 29.8051 110.307 30.4597C110.15 31.1142 109.838 32.1073 109.615 32.6603C109.381 33.2133 108.991 34.0258 108.746 34.4659C108.5 34.906 107.998 35.6396 107.631 36.1022C107.263 36.5649 106.716 37.1856 106.415 37.4678C106.114 37.7499 105.568 38.2013 105.2 38.4834C104.832 38.7543 104.129 39.1944 103.639 39.4426C103.148 39.7022 102.368 40.052 101.911 40.21C101.453 40.3793 100.573 40.6276 99.9594 40.7517C99.0674 40.9549 98.4653 41 96.8931 41C95.321 41 94.7189 40.9549 93.8269 40.7517C93.2136 40.6276 92.3328 40.3793 91.8756 40.21C91.4185 40.052 90.638 39.7022 90.1474 39.4539C89.6568 39.1944 88.8763 38.6978 88.4192 38.348C87.962 37.9981 87.2373 37.3323 86.8136 36.8809C86.401 36.4182 85.7878 35.6396 85.4644 35.143C85.1299 34.6465 84.6951 33.8565 84.4721 33.3938C84.2602 32.9311 83.9592 32.1637 83.8031 31.701C83.6581 31.2384 83.4128 30.3243 83.279 29.6697C83.0672 28.6653 83.0226 28.1349 83.0226 26.1713C83.0114 24.219 83.056 23.666 83.2567 22.6165C83.3905 21.9281 83.6916 20.8447 83.9034 20.1902C84.1264 19.5357 84.5167 18.6216 84.762 18.1589C85.0073 17.6962 85.3752 17.0642 85.5759 16.7482C85.7878 16.4435 86.2449 15.8454 86.6017 15.4279C86.9585 15.0103 87.6052 14.3783 88.0289 14.0059C88.4638 13.6448 89.1662 13.1483 89.5899 12.8887C90.0247 12.6292 90.7718 12.2567 91.2624 12.0649C91.753 11.8618 92.6338 11.5796 93.2136 11.4216C93.7934 11.2749 94.7523 11.1169 95.3321 11.0605C95.9119 11.0041 96.8931 10.9815 97.5064 11.0154ZM93.9941 16.9175C93.6596 17.0529 93.1133 17.3463 92.7788 17.572C92.4443 17.809 91.8979 18.2943 91.5634 18.6667C91.2178 19.0617 90.7607 19.7726 90.4708 20.3595C90.2032 20.9124 89.8464 21.883 89.6791 22.5037C89.4004 23.5532 89.3781 23.7902 89.3781 26.0585C89.3781 28.3494 89.3892 28.5412 89.6791 29.6133C89.8464 30.234 90.192 31.1706 90.4596 31.701C90.7941 32.3782 91.1732 32.9086 91.7641 33.5405C92.4331 34.2515 92.7788 34.5223 93.4924 34.8722C93.983 35.1204 94.7412 35.3913 95.1649 35.4816C95.5997 35.5718 96.3691 35.6508 96.8931 35.6508C97.4172 35.6508 98.1977 35.5718 98.6214 35.4816C99.0562 35.3913 99.781 35.1317 100.238 34.906C100.874 34.59 101.297 34.2628 101.966 33.5744C102.658 32.8747 102.97 32.4346 103.338 31.701C103.594 31.1706 103.94 30.234 104.107 29.6133C104.386 28.5638 104.408 28.3155 104.408 26.1713C104.419 24.298 104.375 23.6886 104.207 22.9551C104.096 22.4585 103.862 21.6686 103.683 21.2059C103.516 20.7432 103.126 19.9758 102.825 19.5131C102.535 19.0504 101.989 18.3959 101.621 18.0686C101.264 17.7526 100.662 17.3351 100.294 17.1432C99.9259 16.9626 99.3238 16.7257 98.9559 16.6354C98.5879 16.5338 97.8074 16.4322 97.2276 16.4097C96.5809 16.3758 95.8673 16.421 95.3879 16.5112C94.9642 16.6015 94.3286 16.7821 93.9941 16.9175ZM0 11.6135L6.29973 11.6699L6.35548 22.6729H17.6169L17.6727 11.6699L23.939 11.6135L23.9724 40.3906H17.6169V27.9769H6.35548V40.3906H0V11.6135ZM26.5369 11.6135H47.8333V17.0304H32.8924V23.1243H46.6068V28.0898H32.8924V34.9737H48.1678V40.3906H26.5369V11.6135ZM49.5058 11.6135H55.7498V40.3906H49.5058V11.6135ZM58.4258 11.6135H64.6698L64.7255 23.3952L75.6525 11.6361L79.4657 11.6248C81.9076 11.6248 83.3013 11.6586 83.3459 11.7263C83.3682 11.7941 80.9375 14.3558 77.9382 17.4253C74.058 21.3977 72.497 23.0566 72.5751 23.1582C72.6308 23.2372 75.3291 27.108 78.5849 31.7575C81.8407 36.4182 84.4832 40.2665 84.4498 40.3116C84.4275 40.3568 82.6546 40.3906 76.656 40.3793L68.182 27.5255L64.6809 31.1932L64.6698 40.3906H58.4258V11.6135ZM109.939 2.47252H111.522C112.592 2.47252 113.295 2.52895 113.674 2.6418C113.997 2.73208 114.365 2.9465 114.566 3.16092C114.845 3.45433 114.9 3.61232 114.934 4.21044C114.956 4.75212 114.911 4.97783 114.733 5.27124C114.61 5.47437 114.354 5.70008 113.852 5.91449L114.153 6.04991C114.321 6.12891 114.521 6.33204 114.61 6.50132C114.688 6.68188 114.8 7.25742 114.845 7.77654C114.889 8.30694 114.945 8.81477 114.967 8.90506C115.001 9.04048 114.878 9.08562 114.454 9.10819C114.086 9.13076 113.863 9.0969 113.819 8.99534C113.774 8.91634 113.707 8.44236 113.663 7.94582C113.596 7.21228 113.529 6.99787 113.317 6.79473C113.083 6.56903 112.938 6.53518 111.054 6.53518V9.13076H109.939V2.47252ZM111.054 5.46309C112.838 5.33895 113.183 5.25995 113.395 5.10196C113.585 4.94397 113.674 4.75212 113.696 4.46999C113.718 4.12016 113.674 4.01859 113.417 3.8606C113.206 3.73646 112.793 3.65746 112.102 3.62361L111.087 3.57847L111.054 5.46309Z" fill="#B6B6B6"/>
</svg>
