<svg width="118" height="62" viewBox="0 0 118 62" fill="none" xmlns="http://www.w3.org/2000/svg">
<path fill-rule="evenodd" clip-rule="evenodd" d="M5.79141 0H7.99939L7.8908 7.58588C7.78221 14.0776 7.67362 15.3176 7.16687 16.1565C6.80491 16.7035 5.8638 17.4694 5.06748 17.8706C4.19877 18.3082 2.89571 18.6 1.80982 18.6C0.108589 18.6 0 18.5271 0 17.6882C0 16.8494 0.144785 16.7765 1.44785 16.7765C2.24417 16.7765 3.36626 16.5212 3.9816 16.2294C4.59693 15.9376 5.24847 15.2812 5.42945 14.7706C5.61043 14.26 5.79141 10.7224 5.79141 6.92941V0ZM19.1117 0C21.2834 0 22.9123 0.182353 23.8172 0.583529C24.5411 0.875294 25.6994 1.56824 26.3871 2.11529C27.0748 2.66235 28.0159 3.90235 28.4865 4.92353C29.1018 6.27294 29.319 7.40353 29.319 9.3C29.319 11.3788 29.138 12.2176 28.3417 13.8224C27.7626 14.9165 26.8577 16.1929 26.2423 16.6306C25.627 17.1047 24.4325 17.7247 23.5276 18.0529C22.5865 18.3812 20.7767 18.6365 19.184 18.6365C17.6276 18.6365 15.7816 18.3812 14.8405 18.0529C13.9356 17.7247 12.7411 17.1047 12.1258 16.6306C11.5104 16.1929 10.6055 14.9165 10.0264 13.8224C9.23006 12.2541 9.04908 11.3788 9.04908 9.37294C9.04908 7.98706 9.30245 6.34588 9.62822 5.54353C9.91779 4.81412 10.5331 3.72 11.0037 3.1C11.438 2.48 12.7049 1.56824 13.7908 0.984706C15.492 0.109412 16.1436 0 19.1117 0ZM12.4153 4.85059C11.5828 6.05412 11.3656 6.78353 11.2933 8.89882C11.1847 11.0871 11.2933 11.7435 12.0534 13.1294C12.7049 14.3694 13.3926 15.0259 14.8767 15.7918C16.4331 16.5941 17.338 16.8129 19.184 16.8129C21.0301 16.8129 21.935 16.5941 23.4914 15.7918C25.0117 14.9894 25.6632 14.4059 26.3147 13.1294C26.9301 11.9259 27.1472 10.9047 27.1472 9.3C27.1472 7.91412 26.8577 6.52824 26.4233 5.54353C25.9528 4.59529 25.1202 3.64706 24.1791 2.99059C22.8761 2.15176 22.2245 2.00588 19.5822 1.89647C16.9399 1.78706 16.2521 1.89647 14.9491 2.58941C14.1166 3.02706 12.9945 4.04824 12.4153 4.85059ZM30.4049 0H32.5767V18.6H30.4049V0ZM34.7485 0H35.762C36.5583 0.0364706 37.9337 1.31294 50.8558 15.4271L51.0368 0L54.4393 0.182353L56.4663 4.01177C57.5883 6.12706 59.4706 9.70118 62.8006 16.0835L71.3067 0L74.7454 0.182353V18.4176L72.7546 18.6L72.5736 2.04235L68.2301 10.3212C63.9589 18.4541 63.8503 18.6 62.8006 18.5271C61.7871 18.4176 61.4613 17.9071 53.0276 2.04235L52.8466 18.6H52.0141C51.435 18.6365 49.3718 16.6306 37.1012 3.35529L36.9202 18.6H34.7485V0ZM76.7362 0H78.908V16.7765H90.1288V0H92.3006V16.7765H103.883V0H118V1.82353H105.693V8.02353L117.095 8.20588V10.0294L105.693 10.2118V16.7765H118V18.6H76.7362V0ZM10.4969 22.3929C12.6687 22.4659 14.4785 22.7212 15.3834 23.1224C16.1798 23.4871 16.9399 23.9612 17.0847 24.18C17.1933 24.4353 17.1209 25.0188 16.9037 25.5294C16.6865 26.04 16.3607 26.6235 16.1436 26.8788C15.8178 27.2071 15.2748 27.1341 13.7546 26.6235C12.6687 26.2224 10.8227 25.9306 9.70061 25.8941C8.54233 25.8941 7.20307 26.1129 6.69632 26.3682C6.18957 26.5871 5.79141 27.0976 5.79141 27.4624C5.79141 27.7906 6.11718 28.2282 6.51534 28.4471C6.9135 28.6659 8.75951 29.0306 10.6055 29.3224C12.4153 29.5776 14.5509 30.0882 15.311 30.4165C16.035 30.7447 16.9761 31.5471 17.4104 32.2035C17.9534 33.0788 18.0982 33.7718 17.9534 35.0118C17.8448 36.0329 17.4466 36.9812 16.9399 37.5282C16.4693 38.0024 15.4558 38.6953 14.6595 39.06C13.8632 39.3882 12.3067 39.7894 11.2209 39.9353C10.135 40.0812 8.03558 40.0082 6.58773 39.7894C5.17607 39.5706 3.33006 39.1329 2.53374 38.8412C1.52025 38.44 1.08589 38.0753 1.08589 37.5647C1.08589 37.1635 1.26687 36.4706 1.48405 36.0329C1.73742 35.5588 2.06319 35.1212 2.24417 35.0118C2.38896 34.9024 3.40245 35.1212 4.45215 35.4494C5.53804 35.8141 7.49264 36.0694 9.15767 36.1059C10.6779 36.1059 12.2706 35.96 12.6687 35.7412C13.0669 35.5224 13.3926 35.0482 13.3926 34.6471C13.3926 34.2459 13.1755 33.8082 12.9583 33.6624C12.7049 33.5529 10.8227 33.2247 8.7957 32.9329C6.73251 32.6777 4.59693 32.2035 3.9816 31.9118C3.36626 31.62 2.56994 31 2.17178 30.5624C1.77362 30.0882 1.37546 29.1765 1.26687 28.5565C1.15828 27.9 1.30307 26.8059 1.59264 26.1859C1.84601 25.5294 2.46135 24.6176 2.9319 24.18C3.40245 23.7059 4.52454 23.0859 5.42945 22.7941C6.55153 22.4294 8.10798 22.2835 10.4969 22.3929ZM29.138 22.2835C30.5135 22.2471 32.2509 22.3929 32.9386 22.6118C33.6264 22.7941 34.9656 23.4506 35.9429 24.0706C36.9926 24.7635 38.0061 25.8212 38.6215 26.9153C39.4178 28.3012 39.5988 29.0671 39.5988 31C39.5988 32.6412 39.3454 33.8082 38.8386 34.8294C38.4405 35.6318 37.4994 36.8353 36.7755 37.4918C36.0515 38.1118 35.2552 38.6588 35.038 38.6588C34.7847 38.6953 35.0018 38.9141 35.5448 39.2059C36.1239 39.4976 37.0288 40.4459 37.608 41.3212C38.1871 42.16 38.5491 43.0353 38.4405 43.2541C38.2957 43.4729 37.6442 43.9471 37.0288 44.2753C36.3773 44.6035 35.6172 44.8588 35.4 44.8588C35.1466 44.8588 34.4589 44.0929 33.8436 43.1447C33.2282 42.2329 32.4319 41.1753 32.0337 40.8835C31.6356 40.5188 30.2239 40.1541 28.7761 40.0082C27.4006 39.8988 25.5184 39.5341 24.6135 39.2059C23.7086 38.9141 22.4055 38.1847 21.7178 37.6376C21.0301 37.0541 20.089 35.8871 19.6546 34.9753C19.0755 33.8447 18.8221 32.7141 18.8221 31.1824C18.8221 29.8694 19.1117 28.4106 19.4736 27.5353C19.8356 26.7329 20.8491 25.4565 21.754 24.6906C22.6227 23.9247 24.0706 23.0859 24.9755 22.7941C25.8804 22.5388 27.7626 22.2835 29.138 22.2835ZM25.3374 27.0976C25.0117 27.3165 24.4687 27.9365 24.1429 28.4471C23.781 28.9941 23.5276 30.0518 23.5276 31C23.5276 31.9847 23.8172 33.1153 24.2515 33.8447C24.6497 34.4647 25.5546 35.2671 26.2423 35.5588C26.9301 35.8506 28.2693 36.1059 29.2466 36.1059C30.1877 36.1059 31.4908 35.8141 32.1785 35.4494C32.8663 35.1212 33.7712 34.3553 34.1693 33.8082C34.6761 33.1153 34.9294 32.24 34.9294 31.0729C34.9294 30.0882 34.6399 28.9212 34.2779 28.3741C33.9521 27.7906 33.1196 27.0976 32.4681 26.7694C31.8528 26.4412 30.5859 26.1129 29.681 26.04C28.7761 25.9671 27.5816 26.0765 26.9663 26.2588C26.3509 26.4776 25.627 26.8424 25.3374 27.0976ZM41.6258 22.2471H45.9693L46.0779 28.0824C46.1503 33.7353 46.1865 33.9176 47.0552 34.8659C47.7067 35.5224 48.4669 35.8506 49.7699 35.9965C50.7472 36.1059 52.1589 36.0329 52.8466 35.8141C53.5344 35.5953 54.3669 35.1212 54.6564 34.7929C55.0908 34.3188 55.2356 32.7871 55.5613 22.4294H59.9049V28.2647C59.9049 31.4741 59.7963 34.5376 59.6153 35.1212C59.4706 35.6682 58.8914 36.6529 58.3485 37.3094C57.7693 37.9294 56.6834 38.7318 55.8871 39.0965C55.127 39.4247 53.4982 39.7894 52.3037 39.9353C51.073 40.0812 49.1908 40.0082 47.9601 39.7894C46.7656 39.5706 45.173 38.9506 44.4129 38.4765C43.689 37.9659 42.7479 36.9082 42.3497 36.1059C41.6982 34.8294 41.6258 33.9176 41.6258 28.4471V22.2471ZM71.3067 22.2471C72.8632 22.2471 73.189 22.3929 73.7681 23.2682C74.1301 23.8153 76.2656 27.5718 78.4736 31.6565C80.7178 35.7047 82.4552 39.1694 82.3466 39.3882C82.238 39.6071 81.2607 39.7529 78.184 39.7529L76.5552 36.4706H66.2393L65.4067 38.0388C64.6104 39.5341 64.5742 39.5706 62.511 39.68C60.8822 39.7165 60.4479 39.6435 60.3755 39.1694C60.3755 38.8776 62.3301 35.0482 64.7914 30.7082C67.2166 26.3682 69.2798 22.6847 69.3883 22.5388C69.4607 22.3565 70.3294 22.2471 71.3067 22.2471ZM69.5331 30.1976C68.9178 31.4376 68.411 32.5318 68.411 32.6412C68.411 32.7506 69.7865 32.8235 71.4877 32.8235H74.5644C72.6098 28.9941 71.9221 27.6812 71.7411 27.4259C71.4877 27.0247 71.3791 27.0247 71.0534 27.4259C70.8362 27.6812 70.1485 28.9212 69.5331 30.1976ZM83.3601 22.1376L89.5497 22.32C94.9791 22.4294 95.9564 22.5753 97.4405 23.2682C98.5626 23.7788 99.3589 24.4718 99.7209 25.1647C100.01 25.7847 100.264 26.9153 100.264 27.7176C100.264 28.52 100.047 29.6141 99.7571 30.1976C99.5037 30.7447 98.635 31.5106 97.8748 31.9118C97.0785 32.3129 96.3908 32.6776 96.2822 32.7141C96.1736 32.7871 96.4994 33.1153 97.0061 33.48C97.5129 33.8447 98.6712 35.2671 99.6123 36.58C100.59 37.9294 101.277 39.1694 101.169 39.3882C101.06 39.6071 100.047 39.7529 96.8251 39.7894L95.3049 37.4918C94.4724 36.2153 93.4589 34.8294 93.0607 34.3918C92.4454 33.6988 91.9025 33.5529 87.9571 33.5529L87.7761 39.5706L83.2515 39.7529L83.3601 22.1376ZM87.9571 30.2706C92.0472 30.2706 93.7485 30.0882 94.4 29.9059C95.1239 29.6506 95.6669 29.2129 95.8117 28.7024C95.9202 28.2647 95.9202 27.6082 95.8117 27.2435C95.6669 26.8788 95.1601 26.4412 94.6534 26.2588C94.1828 26.04 92.4454 25.8941 90.8528 25.8941H87.9571V30.2706ZM117.095 22.4294L117.276 25.8941H107.141V29.1765H116.552V32.8235H107.141V36.1059H117.276V39.7529H102.436L102.399 31.2188C102.363 26.5506 102.472 22.6118 102.653 22.4659C102.798 22.32 106.128 22.2471 117.095 22.4294ZM11.0399 44.2388C13.8632 44.3118 15.0215 44.4941 16.1074 45.0776C16.9037 45.4788 17.7 46.0988 17.8448 46.4271C17.9896 46.7918 17.9172 47.1929 17.6638 47.4118C17.338 47.6671 16.6141 47.4847 15.2025 46.8647C13.7546 46.1718 12.5963 45.9529 10.8589 45.9529C9.59202 45.9529 7.92699 46.0988 7.16687 46.3176C6.40675 46.5 5.28466 47.1929 4.59693 47.8494C3.80061 48.6518 3.25767 49.6729 2.9319 51.0588C2.67853 52.1529 2.56994 53.7212 2.67853 54.5235C2.78712 55.3259 3.25767 56.5294 3.72822 57.2588C4.19877 58.0247 5.24847 58.8635 6.33436 59.4106C7.8546 60.14 8.65092 60.2859 11.2209 60.2129C12.9221 60.2129 14.8043 60.0306 15.3834 59.8847C16.4693 59.5565 16.4693 59.52 16.6503 54.3412H13.7546C10.9313 54.3412 10.8589 54.3047 10.8589 52.5176H18.4601V60.9059L17.4828 61.3071C16.9399 61.5624 14.6233 61.8176 12.3067 61.9271C8.94049 62.0365 7.78221 61.9635 6.15337 61.4165C4.9227 60.9788 3.69202 60.2494 2.82331 59.3741C1.88221 58.3894 1.26687 57.3318 0.868712 55.8729C0.470552 54.4141 0.361963 53.2106 0.542945 51.9706C0.68773 50.9494 1.0135 49.6365 1.23067 49.0529C1.48405 48.4329 2.35276 47.3024 3.11288 46.5729C3.9092 45.8071 5.17607 44.9318 5.97239 44.64C6.98589 44.3118 8.57853 44.1659 11.0399 44.2388ZM30.7307 44.1294C31.5994 44.1294 32.0699 44.8224 36.0877 52.4082C38.5129 56.9671 40.5399 60.9424 40.6123 61.2706C40.6847 61.5988 40.4313 61.8176 39.8159 61.8906C39.0558 61.9635 38.7663 61.6718 36.7031 57.8059L24.7945 57.5871L23.6362 59.7753C22.8037 61.3435 22.2607 62 21.7178 62C21.3196 62 20.9215 61.8176 20.8129 61.6353C20.7405 61.4165 22.6951 57.4047 25.1926 52.7C29.3914 44.7859 29.862 44.1294 30.7307 44.1294ZM25.8442 55.6176C32.9387 55.7635 35.1104 55.7635 35.219 55.6906C35.3638 55.6541 34.5313 53.5753 33.373 51.1318C32.2147 48.6882 31.0564 46.6824 30.8393 46.6824C30.6583 46.6824 29.4276 48.6882 28.1607 51.1318L25.8442 55.6176ZM43.146 44.0565L49.0098 44.2024C53.9687 44.3118 55.0546 44.4212 56.2491 45.0412C57.0092 45.4424 57.8779 46.2082 58.1675 46.7918C58.4209 47.3388 58.638 48.5059 58.638 49.4176C58.638 50.7671 58.4209 51.2776 57.4798 52.2988C56.8282 52.9918 55.8147 53.6847 55.1994 53.8306C54.1497 54.0859 54.1135 54.1224 54.8374 54.7059C55.2356 55.0341 56.5025 56.6388 57.6607 58.28C58.7828 59.9212 59.6515 61.4529 59.5429 61.6353C59.4344 61.8541 59 62 58.5656 62C57.9141 62 57.2264 61.1976 55.5613 58.6812C54.3669 56.8576 53.1 55.2165 52.7742 55.0341C52.4123 54.8518 50.5663 54.7059 45.2454 54.7059V62H43.0736L43.146 44.0565ZM45.2454 52.8824C53.2086 52.7 54.3669 52.5541 55.127 52.0435C55.6699 51.7153 56.2853 50.9494 56.5025 50.4024C56.7558 49.7824 56.792 48.98 56.5748 48.3235C56.3939 47.5941 55.8509 47.0106 55.0184 46.5729C54.0411 46.0988 52.8466 45.9529 49.5166 45.9529H45.2454V52.8824ZM62.2577 44.1294H66.9632C69.5693 44.1294 72.465 44.2753 73.4061 44.4941C74.3472 44.6765 75.8675 45.2965 76.7362 45.88C77.8945 46.5729 78.6546 47.4482 79.2699 48.6882C80.0301 50.1471 80.1748 51.0224 80.1748 53.2471C80.1748 55.4353 79.9939 56.2741 79.2699 57.5871C78.7632 58.4988 77.8221 59.5929 77.0982 60.0671C76.4104 60.5412 75.035 61.1612 74.0215 61.4529C72.827 61.8176 70.5466 62 62.2577 62V44.1294ZM64.4294 60.1765C70.4018 60.1765 72.6098 59.9576 73.7681 59.6294C74.9988 59.2647 75.9761 58.6812 76.5552 57.9882C77.062 57.3682 77.6411 56.2012 77.8583 55.3259C78.1117 54.4871 78.1841 52.9553 78.0393 51.9706C77.9307 50.9494 77.5325 49.6365 77.1705 49.0529C76.8086 48.4329 75.7951 47.5576 74.9264 47.0471C73.5147 46.2812 72.7546 46.1353 68.9178 45.9894L64.538 45.8435L64.4294 60.1765ZM97.0061 44.1294V45.9529H85.4233V52.1529H96.2822V53.9765H85.4233V60.1765H97.0061V62L83.4325 61.8176L83.3601 53.4659C83.3239 48.8341 83.3601 44.8588 83.4687 44.6035C83.5411 44.2388 85.1699 44.1294 97.0061 44.1294ZM99.938 44.0929L100.915 44.2024C101.675 44.3118 103.521 46.0624 115.285 58.7906L115.43 44.1294H117.638V62H116.625C115.828 62 114.525 60.7965 102.255 47.4118L102.074 62H99.9018L99.938 44.0929Z" fill="#B6B6B6"/>
</svg>
