<svg width="75" height="57" viewBox="0 0 75 57" fill="none" xmlns="http://www.w3.org/2000/svg">
<path fill-rule="evenodd" clip-rule="evenodd" d="M23.6028 0.00325873C23.6733 0.0266836 24.1314 1.22135 24.6248 2.67369C25.13 4.12603 25.7291 5.81262 25.9758 6.42167C26.2225 7.03071 26.7864 8.27223 27.2328 9.17408C27.6675 10.0759 28.4546 11.4463 28.9597 12.2193C29.4649 12.9923 30.2402 14.0699 30.6866 14.6204C31.1331 15.1708 31.8614 16.0259 32.3196 16.5412C32.7777 17.0448 33.741 17.9818 34.4459 18.626C35.1625 19.2702 36.1258 20.0784 36.5957 20.4297C37.3476 20.9919 37.4768 21.0505 37.7118 20.9216C37.8527 20.8514 38.5224 20.336 39.2037 19.7855C39.8851 19.2351 41.0716 18.1575 41.847 17.3728C42.6223 16.5998 43.6209 15.5222 44.0555 14.9717C44.4902 14.4212 45.2186 13.4491 45.6532 12.8049C46.0879 12.1608 46.7105 11.1652 47.0395 10.5796C47.3684 9.99395 47.897 8.93984 48.226 8.23709C48.5432 7.53435 48.9896 6.52708 49.1893 6.01173C49.4007 5.49638 49.9294 3.99719 50.3641 2.67369C50.881 1.13936 51.2216 0.272644 51.3274 0.272644C51.4214 0.272644 51.5858 0.717716 51.7973 1.56101C51.9735 2.26376 52.4317 4.45398 52.8193 6.42167C53.207 8.38935 54.3465 14.187 55.3568 19.3053C56.3671 24.4237 57.2247 28.8275 57.2717 29.0852C57.3305 29.3897 57.4244 29.5537 57.5419 29.542C57.6359 29.5303 58.47 29.3897 59.4098 29.2257C60.3496 29.0501 61.5831 28.8627 62.1705 28.7924C62.7579 28.7338 64.2264 28.6753 65.4599 28.6753C67.0458 28.6753 67.8799 28.7221 68.3381 28.851C68.6905 28.9447 69.2661 29.1438 69.6068 29.2843C69.9475 29.4366 70.2059 29.6005 70.1824 29.6708C70.159 29.7411 69.3484 29.9051 68.385 30.0456C67.4217 30.1745 66.0003 30.4321 65.2249 30.6078C64.4496 30.7835 63.0751 31.1583 62.1705 31.4511C61.2659 31.7439 59.9854 32.2241 58.1058 33.0674L58.1763 33.5359C58.2233 33.7936 58.7519 36.5343 59.3628 39.6264C60.2439 44.0185 60.4906 45.4943 60.5023 46.361C60.5141 47.0052 60.4788 47.4971 60.4084 47.5323C60.3496 47.5557 60.0912 47.216 59.8445 46.771C59.5978 46.3142 58.2585 43.7609 56.8605 41.0904C55.4743 38.42 54.2878 36.1829 54.2291 36.1127C54.1586 36.0424 53.9706 36.1361 53.7004 36.4055C53.4655 36.628 53.019 37.1785 52.6901 37.6353C52.3729 38.0921 51.9618 38.8534 51.7855 39.3336C51.5976 39.8138 51.3861 40.6336 51.3039 41.149C51.2099 41.84 51.1981 42.2968 51.2921 42.8707C51.3626 43.3158 51.5036 43.9131 51.6093 44.2177C51.715 44.5339 51.903 44.9907 52.044 45.2483C52.1732 45.506 52.4786 46.0097 52.7136 46.361C52.9603 46.7124 53.4067 47.2863 53.7239 47.6377C54.0411 47.989 54.7225 48.5981 55.2394 48.9963C55.7563 49.3945 56.5434 49.9567 57.0015 50.2261C57.4597 50.5072 58.3525 50.9874 58.9986 51.292C59.6448 51.6082 60.9722 52.1235 61.9356 52.4398C62.9106 52.756 64.3086 53.1425 65.0487 53.3065C65.7888 53.4822 67.0106 53.693 67.7507 53.7867C68.4908 53.8804 70.0532 54.0209 71.2163 54.0912C72.3793 54.1615 73.695 54.2318 74.1414 54.2435C74.6818 54.2552 74.9755 54.3138 74.999 54.4075C75.0225 54.5012 74.6231 54.7588 74.0709 55.0282C73.5305 55.2742 72.438 55.6724 71.6274 55.8949C70.8168 56.1058 69.5011 56.3986 68.6905 56.5391C67.8799 56.668 66.5877 56.8436 65.8123 56.9139C64.9665 56.9959 63.498 57.0193 62.1118 56.9842C60.8548 56.9491 59.2688 56.8319 58.5875 56.7265C57.9061 56.6211 56.8488 56.4337 56.2379 56.2932C55.627 56.1643 54.4053 55.8247 53.5359 55.5436C52.6666 55.2625 51.3744 54.7471 50.6578 54.3957C49.9411 54.0444 48.8604 53.4353 48.2495 53.0371C47.5329 52.5569 46.6753 51.8424 45.8412 50.9991C44.9484 50.0856 44.3845 49.4063 44.0085 48.7621C43.7031 48.2467 43.3272 47.4854 43.1627 47.0638C42.9982 46.6421 42.775 45.7988 42.6693 45.1898C42.5518 44.5456 42.4931 43.6672 42.5518 42.0977L40.4372 40.8445L40.1083 41.231C39.9203 41.4418 39.6971 41.7346 39.6032 41.8752C39.4504 42.1328 39.4974 42.2265 40.496 43.5735C41.0951 44.3933 41.612 45.2132 41.6825 45.4826C41.753 45.7403 41.7765 46.1385 41.7412 46.361C41.706 46.5836 41.518 46.9935 41.3183 47.2629C41.0951 47.5791 40.8484 47.7899 40.6487 47.8368C40.4607 47.8719 40.2963 47.8719 40.261 47.8251C40.2258 47.7899 40.2728 47.5908 40.3433 47.38C40.4255 47.1692 40.496 46.8178 40.496 46.5953C40.496 46.3727 40.3903 46.0097 40.261 45.7988C40.1318 45.5997 39.7441 45.2483 39.4152 45.0375C39.0745 44.815 38.4871 44.5105 37.4181 44.0771L36.349 44.6276C35.6912 44.9555 35.1155 45.342 34.8688 45.6231C34.4929 46.0448 34.4812 46.1033 34.5399 46.7124C34.5751 47.0638 34.6339 47.4737 34.6691 47.6143C34.7279 47.8368 34.6926 47.8836 34.4812 47.8836C34.3284 47.8836 34.07 47.7431 33.8938 47.5674C33.7176 47.38 33.4943 47.0403 33.4004 46.7944C33.2946 46.5601 33.2124 46.2205 33.2124 46.0331C33.2241 45.8574 33.2829 45.5294 33.3651 45.3069C33.4474 45.0844 33.976 44.2762 35.5619 42.1446L35.092 41.5004C34.8336 41.149 34.5869 40.8679 34.5281 40.8796C34.4812 40.903 33.9878 41.1724 32.4253 42.086L32.4136 43.55C32.4136 44.6627 32.3548 45.2366 32.1669 45.9511C32.0259 46.4664 31.7322 47.2863 31.4972 47.7665C31.2623 48.2467 30.8394 48.9846 30.5339 49.4063C30.2402 49.8279 29.6998 50.4721 29.3357 50.8586C28.9832 51.2334 28.2666 51.8776 27.7497 52.2758C27.2328 52.674 26.4457 53.2362 25.9876 53.5056C25.5411 53.7867 24.6601 54.2435 24.0492 54.5363C23.4383 54.8174 22.3223 55.2625 21.5822 55.4967C20.8421 55.7427 19.6203 56.0823 18.8802 56.2463C18.1401 56.4103 16.9536 56.6328 16.237 56.7499C15.2501 56.9139 14.2398 56.9608 11.8903 56.9608C9.52901 56.9608 8.53046 56.9139 7.48491 56.7499C6.74481 56.6328 5.52304 56.3986 4.78294 56.2346C4.04283 56.0706 2.9033 55.7661 2.25718 55.5553C1.61106 55.3444 0.835706 55.0282 0.530266 54.8642C0.213078 54.7003 -0.0218765 54.4894 0.00161891 54.4075C0.036862 54.302 0.647743 54.2435 2.26893 54.1849C3.49069 54.1381 5.22935 54.0092 6.13392 53.9155C7.0385 53.8101 8.55395 53.5759 9.51727 53.3885C10.4688 53.1894 12.0195 52.7794 12.9828 52.4632C13.9344 52.1587 15.2619 51.6433 15.9433 51.3154C16.6246 50.9991 17.6584 50.4369 18.2341 50.0621C18.8097 49.6874 19.679 49.0549 20.1489 48.6567C20.6306 48.2701 21.359 47.5206 21.7701 47.0052C22.1813 46.4899 22.7099 45.7051 22.9214 45.2483C23.1446 44.7916 23.4148 44.1122 23.5088 43.7257C23.6145 43.3392 23.6968 42.5428 23.6968 41.9689C23.6968 41.395 23.6145 40.6219 23.5205 40.2706C23.4266 39.9192 23.1916 39.3101 23.0154 38.9236C22.8274 38.5371 22.4632 37.9047 22.2048 37.5181C21.9346 37.1316 21.5234 36.6163 20.8186 35.937L17.7642 41.7932C16.0842 45.0141 14.6628 47.626 14.5923 47.6025C14.5218 47.5791 14.4865 47.134 14.4983 46.525C14.51 45.9511 14.5923 45.0375 14.6863 44.487C14.792 43.9366 15.2971 41.3013 15.814 38.6308C16.3427 35.9604 16.7891 33.6296 16.8243 33.4422C16.8831 33.1494 16.8243 33.0908 16.1547 32.7629C15.7436 32.5521 14.886 32.189 14.2398 31.9313C13.5937 31.6854 12.5129 31.3223 11.8316 31.1349C11.1502 30.9358 9.97543 30.643 9.22357 30.4907C8.45997 30.3267 7.19122 30.0925 6.40412 29.9636C5.60528 29.8348 4.93566 29.6942 4.90041 29.6591C4.86517 29.624 4.94741 29.5186 5.07663 29.4249C5.20586 29.3429 5.68751 29.1438 6.13392 29.0032C6.89753 28.7573 7.15598 28.7338 9.83445 28.7338C11.9843 28.7455 13.0533 28.7924 14.0636 28.9447C14.8037 29.0618 15.8963 29.2609 16.4719 29.378C17.0475 29.5068 17.541 29.6005 17.5644 29.5771C17.5762 29.5654 18.8802 23.0182 20.4661 15.0303C22.0521 7.04242 23.3796 0.389769 23.4148 0.237507C23.4501 0.0852457 23.544 -0.0201661 23.6028 0.00325873ZM27.0096 23.9903C26.7512 24.4705 25.7878 26.3562 24.848 28.1716C23.92 29.9988 23.1564 31.5214 23.1329 31.5682C23.1211 31.6268 23.3443 31.7791 23.638 31.9196C23.9317 32.0719 24.6601 32.4935 25.2592 32.8566C25.8466 33.2314 26.7277 33.8404 27.1976 34.2035C27.6557 34.5783 28.3606 35.1991 28.7483 35.5856C29.1359 35.9721 29.7821 36.7217 30.1697 37.2488C30.5692 37.7875 31.1683 38.7948 31.509 39.5093L32.1199 40.7976C33.835 37.1199 34.3754 36.0541 34.4459 36.0541C34.5164 36.0541 34.7044 36.1946 34.8688 36.3703C35.045 36.5577 35.6442 37.3542 36.2081 38.1623C36.772 38.9705 37.2889 39.6967 37.3711 39.7786C37.4768 39.9075 37.7588 39.5678 38.7573 38.1975C39.4387 37.2488 40.1436 36.3352 40.308 36.1712L40.6135 35.8784C41.1421 37.0614 41.5415 37.9281 41.847 38.5723C42.1524 39.2164 42.5048 39.9778 42.6341 40.2706L42.869 40.7976C43.8323 38.7948 44.3845 37.8227 44.7369 37.3425C45.0776 36.8622 45.8177 36.019 46.3698 35.4685C46.922 34.918 47.8618 34.1333 48.4609 33.7116C49.0483 33.29 50.0351 32.6575 50.646 32.3061C51.2569 31.9547 51.7855 31.6385 51.8208 31.6034C51.856 31.5682 51.3039 30.4087 50.5873 29.0266C49.8707 27.6446 48.8956 25.7589 48.4139 24.8336L47.5446 23.1704C47.2039 23.5804 45.3595 26.4148 43.2215 29.7294C41.0834 33.044 38.9453 36.3352 38.4754 37.0379C38.0055 37.7524 37.5708 38.338 37.5003 38.3614C37.4298 38.3849 36.4783 37.0145 35.374 35.3279C34.2579 33.6296 32.5193 30.9241 31.4855 29.3194C30.4517 27.7031 29.1359 25.6535 28.5486 24.7516L27.4913 23.1119L27.0096 23.9903Z" fill="#B6B6B6"/>
</svg>
