<svg width="182" height="52" viewBox="0 0 182 52" fill="none" xmlns="http://www.w3.org/2000/svg">
<path fill-rule="evenodd" clip-rule="evenodd" d="M2.69014 0C3.17996 0 5.09467 0.758633 6.92033 1.69577C9.19128 2.8114 10.26 3.61466 10.26 4.15017C10.26 4.5518 10.1264 4.99805 9.90373 5.13193C9.72562 5.22118 8.21165 5.62281 6.47505 5.97981C4.73845 6.33681 3.04637 6.47069 2.69014 6.29219C2.33392 6.06906 1.75505 4.99805 1.44335 3.83779C1.08712 2.40977 1.0426 1.51727 1.35429 0.892509C1.62146 0.401629 2.20033 0 2.69014 0ZM52.0275 0C52.2947 0 52.8736 0.312378 53.2298 0.669382C53.586 1.02639 53.8977 1.60652 53.8977 1.91889C53.8977 2.18665 53.6751 3.21303 53.4524 4.15017C53.1853 5.04268 52.6509 5.97981 52.2056 6.20294C51.7158 6.51532 50.38 6.42607 48.3317 5.97981C46.6396 5.62281 45.0811 5.22118 44.8585 5.13193C44.6804 4.99805 44.5468 4.5518 44.5022 4.10554C44.4577 3.48079 45.3928 2.85603 47.9754 1.65114C49.8902 0.758633 51.7158 0 51.983 0H52.0275ZM12.5309 5.35505C13.5996 5.35505 15.6924 6.15831 19.4328 8.03258C22.3717 9.54985 25.1769 11.1564 25.6668 11.6026C26.2605 12.1976 26.4089 12.6439 26.112 12.9414C25.8894 13.2091 24.4645 13.343 22.9951 13.2984C20.7241 13.1645 20.3234 13.0306 20.1898 12.272C20.1007 11.7811 19.8335 11.1564 19.6109 10.9332C19.3437 10.6655 19.2102 17.4486 19.2102 28.3372C19.2547 43.9114 19.1656 46.2766 18.5422 46.7675C18.186 47.0352 17.6071 47.1691 17.2954 46.9906C17.0283 46.8567 14.7573 45.3841 12.3083 43.7776C9.8592 42.2157 6.11882 39.6274 3.93694 38.0655C1.79958 36.5036 0.0184442 34.8971 0.0184442 34.4955C-0.0260841 34.0492 0.0184442 33.3798 0.0629726 33.0228C0.107501 32.6658 1.08712 31.2824 2.24486 30.0329C3.58071 28.5157 4.69392 27.6678 5.31731 27.6678C6.25241 27.6678 6.29694 27.8017 6.0743 30.1222C5.89618 32.3088 5.98524 32.7105 6.96486 33.6922C7.58826 34.317 8.52335 34.8079 9.05769 34.8079C9.63656 34.8079 10.5271 34.4062 11.0615 33.9153C12.0856 33.0228 12.0856 32.889 12.0856 21.1971C12.0856 12.0489 11.952 9.37135 11.5068 9.37135C11.2396 9.32672 10.5717 9.77297 10.0818 10.3085C9.28034 11.1564 9.14675 12.0935 8.92411 18.2518C8.79052 22.0896 8.52335 25.4811 8.34524 25.7935C8.21165 26.0613 7.72184 26.329 7.27656 26.329C6.65316 26.329 6.29694 25.258 5.22826 20.617C4.5158 17.4932 3.58071 13.5215 3.17996 11.8257C2.73467 10.13 2.51203 8.43421 2.69014 8.12183C2.82373 7.80945 4.73845 7.05082 6.96486 6.47069C9.19128 5.89056 11.6849 5.39968 12.5309 5.35505ZM41.9641 5.35505C42.6766 5.35505 45.1256 5.80131 47.3966 6.33681C49.623 6.87232 51.7604 7.58633 52.0721 7.89871C52.4728 8.34496 52.4728 8.92509 52.1611 10.1746C51.9385 11.0671 51.3151 13.7446 50.7807 16.0652C50.2464 18.3857 49.5785 21.5987 48.8215 25.972L51.8939 29.4082C54.1204 31.8179 55.0109 33.1121 54.9664 33.9153C54.9219 34.5401 54.6102 35.2541 54.2985 35.5665C53.9868 35.8789 51.4041 37.7085 48.5988 39.672C45.7936 41.6356 42.0087 44.1792 40.272 45.2948C37.5558 46.946 36.8879 47.2137 36.3536 46.7675C35.7302 46.2766 35.6411 43.9114 35.5966 28.5603C35.5966 14.9049 35.463 11.201 35.0622 12.1827C34.617 13.343 34.3943 13.3876 31.8117 13.3876C30.0305 13.3876 28.9173 13.1645 28.7392 12.8521C28.5611 12.5398 28.8283 11.915 29.2736 11.5134C29.7634 11.1117 32.4796 9.54985 35.4185 8.07721C38.3128 6.55994 41.2517 5.35505 41.9641 5.35505ZM43.1664 26.7753C43.3445 26.7753 43.9234 26.4629 44.5022 26.1059C45.0366 25.7489 45.66 24.9903 45.8826 24.4547C46.0607 23.8746 46.1053 20.617 45.8826 17.1808C45.5709 12.0935 45.3928 10.7994 44.7249 10.13C44.2796 9.68372 43.6562 9.32672 43.389 9.37135C42.9437 9.37135 42.8102 11.4241 42.8102 18.0733C42.8102 22.8482 42.9437 26.7753 43.1664 26.7753ZM42.6766 29.542C42.8102 38.1101 42.9437 39.2258 43.389 39.0473C43.6562 38.958 44.6358 38.0209 45.5264 36.9499C46.417 35.8789 47.263 34.5401 47.4856 33.9153C47.6637 33.2906 47.6637 32.2196 47.5302 31.4609C47.3521 30.7469 46.9068 29.6759 46.4615 29.1404C45.749 28.2033 45.66 28.1587 44.1905 28.8727L42.6766 29.542ZM117.707 13.7893C117.885 13.7893 118.375 13.8785 118.731 14.0124C119.265 14.1909 119.399 15.128 119.399 23.1606L120.957 21.8218C121.803 21.1078 123.139 20.3492 123.941 20.2153C124.787 20.0368 126.39 20.26 127.726 20.6616C129.596 21.2417 130.353 21.7772 131.422 23.2945C132.178 24.3209 132.757 25.4365 132.757 25.7489C132.757 26.0166 132.935 26.2844 133.203 26.2844C133.425 26.2844 133.648 25.972 133.648 25.615C133.648 25.258 134.405 24.0977 135.34 23.0714C136.453 21.8218 137.789 20.9293 139.036 20.5723C140.283 20.1707 141.529 20.0815 142.554 20.3046C143.4 20.4831 144.602 21.1078 145.27 21.688C146.383 22.7144 146.383 22.7144 146.695 21.8218C146.873 21.331 147.407 20.8401 147.897 20.7062C148.387 20.5723 149.188 20.5723 149.678 20.7062C150.524 20.9293 150.569 21.2863 150.569 37.4408H149.01C147.674 37.4408 147.363 37.2623 146.561 34.7632L145.314 36.102C144.602 36.9499 143.489 37.5746 142.554 37.7531C141.708 37.887 140.238 37.887 139.303 37.7085C138.412 37.5746 136.988 36.8606 136.186 36.1912C135.385 35.4772 134.36 34.1385 133.025 31.4163L132.713 32.7551C132.535 33.5137 131.555 34.8525 130.575 35.7896C129.418 36.816 128.126 37.53 127.058 37.7085C126.167 37.887 124.698 37.887 123.852 37.7531C122.828 37.5746 121.759 36.9053 119.399 34.317V35.8789C119.399 37.3961 119.354 37.4408 115.837 37.4408L115.748 26.1059C115.703 15.3065 115.703 14.7264 116.549 14.2801C116.994 14.0124 117.529 13.8339 117.707 13.7893ZM120.868 25.3026C120.378 25.972 119.844 27.043 119.666 27.757C119.532 28.4264 119.532 29.8098 119.666 30.8808C119.889 32.4427 120.2 32.889 121.447 33.5583C122.293 33.96 123.718 34.317 124.609 34.317C125.633 34.3616 126.791 34.0046 127.503 33.4245C128.305 32.889 128.928 31.8179 129.24 30.6577C129.596 29.1404 129.551 28.3818 129.017 26.9538C128.661 25.972 128.082 24.9456 127.77 24.6779C127.458 24.4101 126.479 24.0977 125.633 23.9639C124.787 23.83 123.54 23.83 122.917 23.9192C122.249 24.0531 121.358 24.6333 120.868 25.3026ZM137.21 27.6232C137.166 28.2479 137.121 29.4082 137.166 30.2114C137.21 31.1486 137.655 32.0857 138.546 32.9782C139.57 34.0046 140.283 34.317 141.663 34.317C142.643 34.317 144.157 33.96 145.003 33.5583C146.517 32.7551 146.517 32.7105 146.561 29.9883C146.561 28.4264 146.294 26.6414 145.938 25.972C145.626 25.258 145.003 24.5886 144.602 24.4101C144.201 24.187 142.776 24.0531 141.44 24.0531C139.348 24.0531 138.947 24.187 138.19 25.3026C137.7 25.972 137.255 26.9984 137.21 27.6232ZM22.9951 14.2355C23.9747 14.2355 25.2215 14.3694 25.7558 14.4586C26.6909 14.6818 26.78 14.9495 26.7354 17.4932C26.7354 19.4567 26.9581 20.4385 27.4479 20.9293C28.0713 21.5541 28.1603 21.2863 28.1158 18.1626C28.1158 15.4404 28.2494 14.6371 28.7837 14.4586C29.14 14.3248 30.3422 14.2355 31.4554 14.2355C32.6577 14.2355 33.7264 14.5033 34.1271 14.9049C34.706 15.485 34.7951 17.9841 34.7951 31.7733C34.7951 44.5808 34.6615 48.1062 34.2162 48.8202C33.86 49.3111 32.6132 50.2929 31.4109 50.9623C30.2086 51.6316 28.9619 52.0779 28.6502 51.9887C28.2494 51.7655 28.1158 48.8202 28.1158 39.3596C28.1603 28.6049 28.0713 26.8645 27.4479 26.2844C26.78 25.6596 26.7354 26.7753 26.7354 38.6903C26.78 49.8913 26.6909 51.7655 26.112 51.944C25.7558 52.0779 24.2864 51.4085 20.3234 48.8202L20.1452 31.9072C19.9671 17.5824 20.0562 14.9049 20.5905 14.5925C20.9022 14.414 22.0154 14.2355 22.9951 14.2355ZM62.7143 16.0205C63.026 16.0205 63.6049 16.3329 63.9611 16.6899C64.3173 17.0469 64.629 18.0733 64.629 18.9212C64.629 20.3046 64.7626 20.4831 65.7422 20.4831C66.3656 20.4831 67.1672 20.7955 67.5234 21.1525C67.8796 21.5095 68.1913 22.045 68.1913 22.2681C68.1913 22.5359 68.1022 23.0267 67.9687 23.3837C67.8351 23.83 67.1672 24.0531 64.629 24.0531V30.0776C64.629 33.3798 64.54 36.4144 64.4064 36.7714C64.2728 37.2176 63.6049 37.4408 60.6215 37.4408V24.0531H59.063C57.9498 24.0531 57.3709 23.7854 57.0592 23.1606C56.7921 22.6697 56.6139 22.1789 56.6139 22.045C56.6139 21.9111 56.9256 21.5095 57.3264 21.1525C57.6826 20.7955 58.5732 20.4831 59.3302 20.4831C60.5324 20.4831 60.6215 20.3938 60.5324 18.7427C60.4879 17.4039 60.666 16.8684 61.3339 16.5114C61.7792 16.2437 62.4026 16.0652 62.7143 16.0205ZM77.6313 16.4668C78.2102 16.4668 78.4328 16.8238 78.4328 17.8056C78.4328 18.5642 78.1211 19.4567 77.7204 19.8137C77.3641 20.1707 77.186 20.4831 77.4087 20.4831C77.5868 20.4831 78.5219 20.974 79.4124 21.5987C81.0155 22.6697 81.1045 22.6697 81.1045 21.8218C81.1045 21.331 81.4162 20.8401 81.7724 20.7062C82.1287 20.5723 82.7521 20.4831 83.1083 20.4831C83.4645 20.4831 84.0879 20.7955 84.4441 21.1525C84.9785 21.688 85.1121 23.2499 85.1566 29.0958C85.1566 33.0675 85.2902 36.0127 85.3792 35.6557C85.5128 35.2987 86.2253 33.0675 86.9823 30.7469C87.7392 28.4264 88.6298 25.9274 89.654 23.83L88.6298 24.8118C88.0509 25.3919 87.2049 25.8381 86.7596 25.8381C86.3589 25.8381 85.9136 25.4811 85.78 25.0795C85.6019 24.544 86.3143 23.5622 88.0064 21.9557C89.3423 20.6616 90.8562 19.5906 91.346 19.5906C91.8358 19.5906 92.4147 19.9922 92.6819 20.4831C92.9787 21.0781 92.9787 21.8218 92.6819 22.7144C92.4147 23.473 92.2811 24.187 92.3257 24.3209C92.4147 24.4101 93.3053 23.5176 94.3294 22.3127C95.4426 20.974 96.6004 20.0368 97.1347 20.0368C97.6245 20.0368 98.426 20.5723 98.9158 21.2863C99.5392 22.0896 99.8509 23.1606 99.8064 24.4994C99.8064 25.615 99.4947 27.3554 99.1385 28.4264C98.5151 30.1668 98.5151 30.3007 99.2275 30.3007C99.8509 30.3007 100.118 29.8098 100.341 28.2033C100.563 27.043 101.142 25.0795 101.721 23.83C102.3 22.6251 103.235 21.2417 103.814 20.8401C104.437 20.3938 105.239 20.0368 105.595 20.0368C105.951 20.0368 106.975 20.3938 107.822 20.8847C109.113 21.5987 109.469 21.5987 109.914 21.1078C110.226 20.7508 110.983 20.4831 111.606 20.4831C112.23 20.4831 112.809 20.7508 112.987 21.0632C113.12 21.331 112.809 24.0977 112.319 27.1769C111.785 30.2561 111.428 32.7997 111.473 32.889C111.562 32.9336 111.918 32.7105 112.274 32.3088C112.631 31.9072 113.298 31.5948 113.699 31.6394C114.145 31.6394 114.59 31.9518 114.723 32.3088C114.857 32.6658 114.723 33.3798 114.501 33.8707C114.234 34.3616 113.298 35.5665 112.363 36.5929C111.473 37.5746 110.36 38.3779 109.914 38.3779C109.514 38.3333 108.935 37.887 108.668 37.3515C108.267 36.5929 108.356 35.2987 108.846 32.0857C109.246 29.7652 109.514 27.8017 109.469 27.757C109.425 27.6678 108.712 28.8727 107.866 30.4346C107.065 31.9518 105.595 34.2723 104.66 35.5665C103.547 36.9945 102.567 37.887 102.033 37.887C101.365 37.887 101.009 37.4408 100.652 36.0127C100.43 34.9417 100.163 33.9153 100.074 33.6476C100.029 33.4245 99.5392 33.96 99.0049 34.8971C98.4706 35.7896 97.4019 36.8606 96.6894 37.2176C95.9324 37.5746 94.9528 37.887 94.463 37.887C93.9732 37.887 93.4834 37.6193 93.3943 37.3515C93.2607 37.0391 93.6615 35.388 94.2849 33.6476C94.8638 31.9518 95.7543 29.5867 96.2441 28.4264C96.734 27.2215 97.1347 25.7043 97.1347 23.6069L95.0419 25.972C93.8841 27.2215 92.2366 29.4082 91.346 30.7469C90.5 32.1303 89.2977 34.2277 88.6743 35.4326C88.0509 36.6821 87.3385 37.7978 87.1158 37.9763C86.8487 38.1101 86.4034 38.1994 86.0917 38.0655C85.78 37.9763 85.5574 37.5746 85.5574 37.2176C85.5574 36.8606 85.3347 36.5482 85.1121 36.5482C84.8449 36.5482 84.6668 36.7714 84.6668 36.9945C84.6668 37.2623 83.9543 37.4408 83.1083 37.4408C81.7279 37.4408 81.5053 37.2623 80.8819 34.7632L79.4124 36.2359C78.0766 37.53 77.6758 37.6639 75.1377 37.6639C72.7332 37.6639 72.1098 37.4854 70.6404 36.3251C69.6607 35.6111 68.5475 34.1831 68.1022 33.2013C67.657 32.2196 67.3007 30.5238 67.3007 29.4082C67.3007 28.2925 67.5679 26.6414 67.8796 25.7043C68.1468 24.7671 68.9928 23.3837 69.7498 22.6697C70.4622 21.9557 71.8872 21.1078 72.8668 20.7508C73.8909 20.3492 74.6034 19.8583 74.5143 19.5013C74.4253 19.1889 74.9151 18.3857 75.583 17.7163C76.2509 17.0023 77.186 16.4668 77.6313 16.4668ZM102.968 28.7388C102.701 30.2114 102.478 31.9072 102.478 32.532V33.6476C103.814 31.9072 104.571 30.7023 105.016 29.8544C105.462 29.0065 106.263 27.5339 106.797 26.6414C107.376 25.7043 107.822 24.8564 107.822 24.7225C107.822 24.5886 107.198 24.187 106.486 23.83C105.729 23.473 105.061 23.1606 104.972 23.1606C104.883 23.1606 104.482 23.83 104.126 24.6333C103.725 25.3919 103.235 27.2662 102.968 28.7388ZM71.4864 27.6232C71.3083 28.471 71.3083 29.9437 71.4864 30.8808C71.6645 32.1303 72.1098 32.7551 73.1785 33.4245C73.98 33.9153 75.3604 34.317 76.2064 34.317C77.097 34.317 78.3883 33.8707 79.1898 33.2906C80.2139 32.5766 80.6592 31.8626 80.8373 30.5238C80.9709 29.5421 80.8819 28.0248 80.6147 27.1769C80.3921 26.329 79.8577 25.258 79.4124 24.8118C78.8781 24.2316 77.9875 24.0531 76.1619 24.0531C74.2026 24.0531 73.4902 24.2762 72.7332 25.0795C72.1989 25.615 71.62 26.7753 71.4864 27.6232ZM157.916 20.0815C158.406 20.0368 159.563 20.3046 160.499 20.617C161.434 20.9293 162.591 21.5541 163.081 22.045C163.526 22.5359 164.061 23.6961 164.595 26.2844H162.903C161.612 26.2844 161.122 26.0613 160.677 25.1688C160.365 24.544 159.697 23.9639 159.118 23.83C158.584 23.6961 157.649 23.83 157.025 24.0531C156.357 24.3209 155.912 24.8564 155.912 25.3919C155.912 26.1059 156.58 26.5521 159.118 27.4893C160.899 28.1587 162.948 29.185 164.951 30.9701L164.684 29.8544C164.551 29.2297 164.729 27.757 165.129 26.5075C165.575 25.0795 166.421 23.6961 167.534 22.6251C168.781 21.4202 169.939 20.7955 171.586 20.3938C173.456 19.9922 174.391 20.0368 175.95 20.4831C177.063 20.7955 178.443 21.3756 179.067 21.8218C179.69 22.2235 180.492 23.2499 180.892 24.0977C181.293 24.9456 181.739 26.3736 181.917 27.3108C182.095 28.5157 182.006 29.1404 181.471 29.6313C180.937 30.1668 179.512 30.3007 174.792 30.3007C170.295 30.3007 168.825 30.4346 168.825 30.8808C168.825 31.1486 169.182 31.8626 169.627 32.3535C170.028 32.889 170.829 33.5583 171.363 33.8261C171.942 34.0938 173.189 34.317 174.169 34.317C175.505 34.317 176.306 34.0046 177.375 33.0228C178.221 32.2196 179.334 31.6841 180.046 31.6841C180.714 31.6394 181.382 31.9072 181.471 32.2196C181.56 32.4873 181.471 33.1567 181.293 33.6476C181.071 34.1385 180.447 35.031 179.868 35.6111C179.289 36.2359 178.176 36.9945 177.375 37.3069C176.573 37.6193 175.104 37.887 174.035 37.887C173.011 37.887 171.452 37.7085 170.606 37.4854C169.671 37.2176 168.291 36.2359 167.133 35.031C165.397 33.1121 165.263 33.0675 165.04 34.0046C164.907 34.5401 164.239 35.5219 163.571 36.2359C162.725 37.0838 161.745 37.53 160.142 37.7085C158.895 37.887 157.159 37.887 156.224 37.7085C155.155 37.53 153.997 36.8606 153.018 35.8789C151.86 34.7632 151.504 34.0046 151.548 33.1121C151.637 32.1303 151.905 31.8626 152.884 31.7733C153.775 31.6841 154.532 32.0411 155.467 32.9782C156.446 33.96 157.203 34.317 158.45 34.3616C159.474 34.3616 160.409 34.0492 160.81 33.6476C161.3 33.1121 161.345 32.7105 161.033 32.2196C160.766 31.8626 159.163 31.0593 157.471 30.5238C155.378 29.8098 153.953 29.0512 153.107 28.114C152.305 27.2215 151.905 26.2398 151.905 25.3026C151.905 24.4994 152.216 23.3837 152.617 22.8036C153.018 22.2235 154.175 21.3756 155.155 20.8847C156.179 20.4385 157.426 20.0815 157.916 20.0815ZM170.161 25.0795C169.671 25.4811 169.271 26.0613 169.271 26.2844C169.271 26.5521 170.963 26.7306 173.501 26.7306C175.816 26.7306 177.731 26.5968 177.731 26.4183C177.775 26.1951 177.419 25.615 176.974 25.0795C176.529 24.544 175.46 24.0085 174.614 23.8746C173.768 23.7854 172.61 23.83 172.076 23.9639C171.497 24.1424 170.651 24.6333 170.161 25.0795Z" fill="#B6B6B6"/>
</svg>
