<svg width="91" height="58" viewBox="0 0 91 58" fill="none" xmlns="http://www.w3.org/2000/svg">
<path fill-rule="evenodd" clip-rule="evenodd" d="M66.9873 0C67.0913 0 67.5594 0.573054 68.0449 1.26766C68.5477 1.94491 68.9811 2.60479 68.9984 2.72635C69.0331 2.83054 64.0398 6.49461 57.885 10.8533C51.7301 15.212 46.7021 18.8587 46.7021 18.9281C46.7021 19.015 50.031 21.585 54.1053 24.6413C58.197 27.715 61.5259 30.285 61.5259 30.3892C61.5259 30.4934 61.0751 31.1533 60.5203 31.8653C59.9828 32.5946 59.48 33.185 59.3933 33.1677C59.324 33.1677 56.1685 30.8234 45.4885 22.7659L45.4018 27.7844H41.5875L41.5008 22.4533L34.9125 27.1245C31.2889 29.6946 28.2548 31.7784 28.1508 31.7784C28.0467 31.7784 27.5439 31.1359 27.0238 30.3719C26.0702 29 26.0702 28.9826 26.417 28.6701C26.6077 28.4964 29.7285 26.2563 33.3521 23.7036C36.9757 21.1509 39.9924 18.9976 40.0791 18.9455C40.1485 18.8934 37.6692 16.9311 34.583 14.5868C31.4796 12.2425 28.931 10.2802 28.931 10.2108C28.931 10.124 29.3991 9.44671 31.0115 7.29341L31.5836 7.69281C31.8784 7.91856 34.2536 9.68982 41.5008 15.1251L41.5875 7.64072H45.4018L45.4885 15.1078L56.1512 7.55389C62.0113 3.40359 66.8832 0 66.9873 0V0ZM10.6396 7.11976C11.6799 7.11976 12.6508 7.24132 13.5871 7.46707C14.3499 7.67545 15.5289 8.12695 16.1877 8.47425C16.9159 8.85629 17.8521 9.56826 18.5283 10.2455C19.2392 10.9575 19.8633 11.791 20.2101 12.503C20.5048 13.1281 20.7996 13.8401 20.9556 14.5868L17.0546 14.6042L16.7079 13.8749C16.5171 13.4754 15.9277 12.7461 15.4075 12.2599C14.8354 11.7042 14.0378 11.2006 13.4137 10.9401C12.5641 10.5928 12.0613 10.5234 10.7263 10.506C9.21795 10.506 8.97523 10.5581 7.90029 11.079C7.24145 11.3916 6.37457 11.9994 5.87177 12.503C5.36898 13.0066 4.76216 13.8749 4.43274 14.5521C3.91261 15.6461 3.87793 15.8371 3.87793 17.5563C3.87793 19.3102 3.91261 19.4317 4.50209 20.682C4.95287 21.5677 5.42099 22.2275 6.06249 22.8006C6.58262 23.2695 7.43217 23.8599 7.9523 24.103C8.80185 24.5198 9.11393 24.5719 10.7263 24.5719C12.4254 24.5719 12.6335 24.5371 13.7258 24.0162C14.3673 23.7036 15.2168 23.1132 15.6156 22.6964C16.0317 22.2796 16.5171 21.6545 17.0546 20.6647H18.9964C20.9383 20.6647 20.9556 20.6647 20.8516 21.0641C20.7996 21.2725 20.5742 21.8455 20.3661 22.3144C20.1407 22.8006 19.6379 23.5994 19.2565 24.103C18.8577 24.5892 18.1122 25.3186 17.6094 25.6832C17.124 26.0653 16.2224 26.6036 15.6156 26.8988C15.0261 27.194 14.0552 27.5587 13.4484 27.6976C12.8589 27.8365 11.6279 27.9581 10.7263 27.9581C9.82477 27.9581 8.57646 27.8365 7.9523 27.6802C7.32814 27.5413 6.23586 27.1072 5.52502 26.7425C4.81417 26.3605 3.79125 25.6485 3.25378 25.1449C2.71631 24.6413 1.95345 23.721 1.55468 23.0958C1.15591 22.4707 0.670455 21.4982 0.47974 20.9251C0.237012 20.2479 0.0809721 19.2581 0.0289589 18.0599C-0.040392 16.7054 0.0116211 15.9413 0.219674 15.1078C0.375713 14.4826 0.739806 13.4754 1.05188 12.8503C1.43331 12.0515 2.00546 11.3048 2.99371 10.3323C3.82592 9.4988 4.83151 8.7 5.43833 8.38743C6.01047 8.07485 7.06808 7.67545 7.77892 7.48443C8.5938 7.27605 9.66873 7.13713 10.6396 7.11976ZM87.3591 54.7006H91V58H87.3591V54.7006ZM26.8504 38.0299H40.7206V41.503H30.6647V46.5389H39.3336V49.8383H30.6647V54.7006H40.894V58H26.8504V38.0299ZM45.055 38.0299L48.4359 38.0473L59.0119 51.2796L59.0813 38.0299H62.9129V58H59.532L48.956 44.785L48.8693 58H45.055V38.0299ZM67.438 38.0126L71.4777 38.1168L78.7249 47.9802C82.7126 53.3982 85.9721 57.8611 85.9721 57.9132C85.9721 57.9653 84.9838 58 81.5509 58L78.8636 54.3533H71.0616V58H67.4207L67.438 38.0126ZM71.0616 51.5748H76.7831C75.2574 49.491 74.1131 47.9455 73.2462 46.7994C72.3793 45.6533 71.5471 44.4377 71.3737 44.1078C71.0616 43.5 71.0616 43.5521 71.0616 47.5287V51.5748ZM2.05747 47.0599H18.8751V50.1856H2.05747V47.0599Z" fill="#B6B6B6"/>
</svg>
