<svg width="90" height="78" viewBox="0 0 90 78" fill="none" xmlns="http://www.w3.org/2000/svg">
<path fill-rule="evenodd" clip-rule="evenodd" d="M52.9688 0.00325838C55.0875 -0.0155937 55.8187 0.0409625 56.8125 0.342595C57.4875 0.549968 58.575 1.07783 59.2312 1.53027C59.9062 1.98272 60.7875 2.75566 61.2 3.28352C61.5938 3.79252 62.175 4.73512 62.4563 5.35724C62.7375 5.97936 63.1125 7.24245 63.3 8.18505C63.5438 9.5801 63.5812 10.4473 63.3375 16.1029L63.9563 15.9521C64.3125 15.8767 65.4 15.7636 66.375 15.6882C67.875 15.5939 68.3625 15.6316 69.4688 15.9709C70.35 16.2349 71.0437 16.5931 71.6062 17.0832C72.0563 17.4791 72.6188 18.1389 72.8625 18.5537C73.0875 18.9684 73.3688 19.6848 73.4812 20.1561C73.6062 20.7217 73.6 21.57 73.4625 22.7011C73.3687 23.6437 73.0875 25.0388 72.825 25.8117C72.5812 26.5847 72.1125 27.6404 71.7937 28.1682C71.475 28.6772 70.8563 29.5256 70.425 30.0346C70.0125 30.5436 69.15 31.3165 68.5312 31.769C67.9125 32.2026 66.75 32.8812 65.9438 33.2394C64.7438 33.805 64.5187 33.9747 64.65 34.2386C64.7437 34.4271 65.1188 35.2566 65.5125 36.0861C65.9062 36.9156 66.375 37.9336 66.5813 38.3483C66.7875 38.7631 67.2375 39.5737 67.5938 40.1393C68.2312 41.1761 68.25 41.1761 68.25 40.554C68.25 40.2335 68.3812 39.8188 68.5312 39.668C68.6813 39.5172 69 39.3475 69.225 39.2909C69.4688 39.2532 73.2937 38.6877 77.7188 38.0467C82.1438 37.4246 86.625 36.7836 87.6562 36.6516C88.6875 36.5197 89.6437 36.4443 89.775 36.482C89.9062 36.5197 90 36.8779 90 37.3492C90 37.8016 89.775 39.4795 89.5125 41.0819C89.2312 42.6843 88.9125 44.1171 88.8 44.249C88.6688 44.3998 88.3125 44.4753 87.0938 44.381L86.9625 42.7786C86.8875 41.8925 86.7375 40.9876 86.625 40.7425C86.5312 40.5163 86.2125 40.2335 85.9312 40.1204C85.5938 39.9885 84.8438 39.9696 83.9062 40.045C83.0813 40.1204 81.0188 40.3655 79.3125 40.6294C77.0625 40.9688 76.125 41.1761 75.9 41.4212C75.6937 41.6474 75.375 42.9671 74.9062 45.7006C74.55 47.8875 74.1188 50.3005 73.9688 51.0735C73.8187 51.8464 73.7063 52.7702 73.7063 53.0906C73.6875 53.43 73.7625 53.7128 73.875 53.7128C73.9875 53.7128 75.6 53.4488 77.4937 53.1283C79.3687 52.8079 81.2063 52.3931 81.5625 52.2046C81.9187 52.0349 82.4437 51.6202 82.7437 51.2808C83.025 50.9604 83.4187 50.1309 83.625 49.4333C83.85 48.717 84.1312 47.9629 84.2812 47.7367C84.45 47.4727 84.75 47.3031 85.0312 47.3031C85.2937 47.3031 85.6312 47.3408 85.7812 47.3973C85.9313 47.4539 86.0625 47.699 86.0625 47.9629C86.0625 48.2268 85.8562 49.6407 85.5938 51.13C85.3313 52.6005 84.9 55.0324 84.6375 56.5406C84.375 58.0487 84.075 59.4249 83.9812 59.6135C83.8875 59.7831 83.5875 59.9905 83.3062 60.047C83.0062 60.1225 82.65 60.0848 82.5 59.9905C82.2937 59.8585 82.2 59.3307 82.125 58.1995C82.0687 57.1627 81.9375 56.484 81.75 56.2766C81.525 56.0316 81.1687 55.9562 79.9688 55.975C79.1438 55.975 77.3062 56.1824 75.9 56.4086C74.4937 56.6348 73.2188 56.9365 73.0875 57.0684C72.9562 57.2192 72.4313 59.8585 71.85 63.2896C71.3063 66.5699 70.8938 69.5673 70.9688 70.5854L72.8438 70.5476C73.875 70.5099 75.525 70.3591 76.5 70.1895C77.475 70.0198 78.75 69.7182 79.3125 69.5108C79.875 69.3223 80.7562 68.8887 81.2625 68.5493C81.7687 68.21 82.4062 67.6821 82.6687 67.3805C82.95 67.0789 83.55 66.2305 84.0188 65.4953C84.5062 64.7601 85.05 63.8363 85.2563 63.4216C85.4625 63.0068 85.7812 62.5167 85.95 62.3281C86.1375 62.1585 86.5312 62.0077 86.8313 62.0077C87.1312 62.0077 87.4313 62.1208 87.4875 62.2339C87.5438 62.3659 86.9812 64.2134 86.25 66.3436C85.5 68.4739 84.7875 70.4911 84.6375 70.8116C84.4875 71.1509 84.1875 71.5468 83.9438 71.6976C83.7188 71.8484 81.7688 72.2443 79.5938 72.5648C77.4187 72.8853 73.2 73.5263 70.2188 73.9787C67.2375 74.4312 64.4062 74.8836 63.9375 74.9779C63.4688 75.0721 63 75.1098 62.8875 75.0344C62.775 74.9779 62.625 74.7705 62.5688 74.582C62.4938 74.4123 62.5687 73.9599 62.7188 73.6017C62.9625 73.055 63.15 72.9042 63.8813 72.7156C64.3875 72.5837 65.1 72.2443 65.475 71.9615C65.9438 71.6222 66.375 71.0189 66.75 70.246C67.2 69.2846 67.5187 67.7952 68.6062 61.5364C69.3187 57.3889 70.0687 53.0152 70.275 51.8276C70.4812 50.6399 70.5938 49.603 70.5188 49.5465C70.4625 49.4711 69.9375 49.4899 69.375 49.5653C68.8125 49.6407 68.1375 49.7727 67.875 49.8481C67.5563 49.9235 67.275 49.8669 67.0125 49.6219C66.7875 49.4333 65.5312 46.9072 64.2188 44.004C62.8875 41.1007 61.5 38.0279 61.0875 37.1607C60.6562 36.2369 60.2063 35.5205 59.9438 35.4074C59.625 35.2377 59.3438 35.2566 58.6313 35.5017C58.125 35.6713 57.7125 35.9353 57.6562 36.1238C57.6188 36.3123 57.1875 38.7065 56.7188 41.4589C56.175 44.5507 55.8937 46.7375 55.95 47.2088C56.0062 47.6235 56.1938 48.1703 56.3813 48.3965C56.6438 48.7358 56.9812 48.8678 57.825 48.962C58.6875 49.0752 58.95 49.1694 59.0625 49.4711C59.1375 49.6784 59.1187 50.1309 59.025 50.4514C58.9312 50.8284 58.7063 51.13 58.4438 51.2243C58.2188 51.3186 56.925 51.5448 55.5938 51.7144C54.2625 51.8841 52.95 52.1292 52.6875 52.2234C52.425 52.3177 51.975 52.8079 51.6562 53.298C51.3563 53.7882 50.55 54.7496 49.875 55.4283C49.2 56.107 48.15 56.9553 47.5312 57.3324C46.9125 57.6905 45.9937 58.143 45.5062 58.3504C44.9813 58.5577 44.625 58.8217 44.625 58.9913C44.625 59.1422 45.7688 61.6872 47.175 64.6469C48.5813 67.6067 49.8187 70.2272 49.95 70.4534C50.0625 70.6985 50.3625 71.0755 50.5875 71.3017C50.8875 71.5657 51.4688 71.7919 53.5312 72.1124L53.5875 72.8664C53.625 73.2623 53.5312 73.7525 53.4 73.941C53.2312 74.1861 52.6312 74.3558 51.2812 74.5631C50.25 74.7139 48.975 74.9025 48.4688 74.959C47.925 75.0156 47.3625 74.9779 47.1 74.8459C46.875 74.7328 46.4813 74.1861 46.2375 73.6394C45.9938 73.1115 44.775 70.4157 43.5375 67.6633C42.3 64.9109 41.0812 62.1962 40.8187 61.6306C40.5562 61.0651 40.2375 60.4806 40.1062 60.3487C39.9187 60.179 39.7125 60.179 39.3187 60.311C39.0375 60.4052 38.6063 60.4995 38.3438 60.4995C38.0625 60.4995 37.7625 60.6692 37.6125 60.9142C37.4625 61.1593 37.2938 61.8568 37.2188 62.479C37.1437 63.1011 36.8438 64.8732 36.5437 66.4379C36.2437 67.9838 35.9438 70.0386 35.8688 70.9624C35.8125 71.8861 35.8125 72.8853 35.8688 73.1681C35.9625 73.5263 36.2062 73.7902 36.6562 73.9787C37.0125 74.1295 37.5563 74.2615 37.875 74.2615C38.1937 74.2615 38.5687 74.2992 38.7188 74.3558C38.9062 74.4123 39 74.6951 39 75.1475C39.0187 75.6 38.8875 75.977 38.6813 76.1844C38.4562 76.3855 37.4688 76.6243 35.7188 76.9008C34.275 77.1082 32.0812 77.4663 30.8438 77.6737C29.6063 77.8811 28.2938 78.0319 27.9375 77.9942C27.3 77.9376 27.2812 77.9188 27.2812 77.0893C27.2812 76.2598 27.2812 76.2598 28.2188 75.9205C28.725 75.732 29.475 75.3738 29.85 75.1098C30.2437 74.8459 30.8062 74.1861 31.125 73.6394C31.425 73.0927 31.8562 71.905 32.0437 70.9624C32.25 70.0386 32.85 66.7584 33.3562 63.7043C33.8812 60.6503 34.275 58.1241 34.2562 58.1053C34.2375 58.0676 33.75 58.1807 33.1875 58.3504C32.625 58.5012 31.6125 58.7085 30.9375 58.8217C30.2625 58.9348 29.6063 59.0856 29.4563 59.161C29.3063 59.2176 29.1375 59.4815 29.0437 59.7454C28.9687 60.0093 28.8563 60.4429 28.8 60.7257C28.7438 61.0274 28.4437 61.5364 28.1625 61.8568C27.8625 62.1962 27.2812 62.6298 26.85 62.7994C26.4187 62.988 24.7687 63.3085 23.1937 63.5158C21.6375 63.7232 18.2812 64.2322 15.75 64.6469C13.2188 65.0617 8.94375 65.7404 6.225 66.1551C3.525 66.5699 1.0125 66.9092 0 66.9092V65.9666C0 65.156 0.075 64.9674 0.5625 64.5527C0.88125 64.2888 1.275 64.0814 1.4625 64.0814C1.63125 64.0814 2.2125 63.874 2.71875 63.6289C3.24375 63.4027 3.975 62.8372 4.36875 62.4224C4.74375 61.9888 5.23125 61.2347 5.45625 60.7257C5.6625 60.2356 5.9625 59.3307 6.09375 58.7086C6.24375 58.0864 7.21875 52.6193 8.25 46.549C9.3 40.4786 10.4438 33.8615 10.8188 31.8444C11.175 29.8272 11.4938 27.4707 11.5125 26.6412C11.5312 25.4535 11.4563 25.0199 11.2313 24.756C11.0438 24.5486 10.5938 24.2847 10.2 24.1716C9.7875 24.0396 9.01875 23.9265 8.49375 23.9265C7.78125 23.9265 7.48125 23.8511 7.40625 23.6437C7.35 23.4929 7.3125 23.1536 7.3125 22.8897C7.3125 22.6257 7.40625 22.2487 7.5 22.0413C7.59375 21.8339 7.85625 21.57 8.0625 21.4757C8.26875 21.3626 11.325 20.8159 14.8688 20.2504C18.3938 19.6848 21.4688 19.1758 21.7125 19.1192C21.9375 19.0627 22.2375 19.1381 22.4062 19.3078C22.5562 19.4586 22.6875 19.8922 22.6875 20.2504C22.6875 20.7217 22.5375 21.061 22.1813 21.438C21.8063 21.8151 21.3375 22.0413 20.5312 22.1921C19.9125 22.3052 19.0125 22.6634 18.525 22.9839C17.8125 23.4364 17.5125 23.7945 17.0625 24.7183C16.6313 25.6232 16.3125 26.9805 15.675 30.5247C15.2062 33.0698 14.7 35.8599 14.5312 36.7459C14.3813 37.632 13.9688 40.045 13.6125 42.1187C13.2562 44.1925 12.6562 47.7178 12.2812 49.9424C11.9062 52.1669 11.3438 55.3529 11.0438 57.0119C10.7438 58.6709 10.5 60.311 10.5 60.6315C10.5 61.0651 10.6312 61.329 10.9312 61.5364C11.2875 61.7626 11.6438 61.7626 13.875 61.4421C15.2625 61.2347 17.0812 60.9331 17.9062 60.7634C18.7313 60.5938 20.0812 60.2544 20.9062 59.9905C21.7313 59.7266 22.8 59.293 23.3063 59.0102C23.7938 58.7463 24.2437 58.4069 24.2812 58.275C24.3375 58.1618 24.0938 57.8791 23.775 57.6905C23.4375 57.4832 22.7812 56.8611 22.3312 56.3143C21.8813 55.7676 21.2437 54.7496 20.8875 54.0332C20.5312 53.3357 20.0813 52.1103 19.8563 51.2997C19.5938 50.2817 19.4438 49.0186 19.3688 47.1145C19.2938 45.4179 19.35 43.74 19.5 42.6843C19.6125 41.7606 19.8937 40.2712 20.1 39.3852C20.3062 38.4992 20.7938 36.7648 21.1875 35.5205C21.6 34.2763 22.3687 32.3722 22.9125 31.2788C23.4562 30.1854 24.3188 28.6584 24.8438 27.8854C25.35 27.1125 26.7563 25.4912 27.9375 24.2847C29.1375 23.0593 30.7125 21.702 31.5 21.1741C32.2687 20.684 33.5062 20.0241 34.2188 19.7225C34.9313 19.4209 36.15 19.0438 36.9 18.9119C37.6313 18.7611 38.625 18.6479 39.0938 18.6479C39.7875 18.6479 39.975 18.5725 40.1062 18.2143C40.2188 17.9881 40.65 15.7259 41.0625 13.1808C41.4938 10.6358 41.925 8.05309 42.0188 7.43097C42.1125 6.80885 42.1875 5.97936 42.1875 5.58347C42.1875 5.09331 42.0563 4.75398 41.7188 4.41464C41.3812 4.0753 40.95 3.90563 39 3.66056L38.9812 2.90647C38.9812 2.49173 39.0938 2.05813 39.225 1.92617C39.3563 1.81306 39.7687 1.66224 40.125 1.60568C40.4813 1.54913 42.4313 1.24749 44.4375 0.927009C46.4437 0.625376 48.6 0.286039 49.2188 0.191779C49.8375 0.0975186 51.525 0.0221104 52.9688 0.00325838ZM47.1188 3.47204C46.875 3.52859 46.575 3.83023 46.425 4.16956C46.275 4.5089 45.6 7.92112 44.925 11.7669C44.2313 15.5939 43.6875 18.9496 43.6875 19.2135C43.6875 19.534 43.8375 19.7791 44.175 19.9676C44.4563 20.1184 45.0563 20.684 45.525 21.193C45.975 21.7208 46.6688 22.6823 47.0625 23.361C47.4562 24.0396 47.9062 25.0576 48.075 25.6232C48.225 26.1888 48.4875 27.3953 48.6375 28.319C48.8062 29.2239 48.9375 30.1665 48.9375 30.4305C48.9375 30.6944 49.05 30.9583 49.1812 31.0149C49.2937 31.0714 49.7812 30.9583 50.25 30.7698C50.775 30.5436 51.3375 30.0911 51.7312 29.5633C52.0875 29.1108 53.0813 27.9986 53.9438 27.0748C54.8438 26.1322 55.7062 25.0199 55.9688 24.4355C56.3438 23.6626 56.4375 23.1536 56.4375 21.9848C56.4375 20.6274 56.4 20.5143 55.9312 20.1561C55.6312 19.9299 55.1063 19.7225 54.75 19.666C54.3937 19.6094 53.9625 19.4963 53.8125 19.4209C53.6625 19.3455 53.5125 19.0061 53.4937 18.6668C53.4562 18.252 53.55 17.9881 53.8687 17.743C54.1125 17.5545 55.0125 17.3094 55.9688 17.1775C56.9062 17.0267 57.9 16.8193 58.1812 16.7062C58.4625 16.5742 58.7812 16.2726 58.875 16.0087C58.9688 15.7447 59.1 14.5947 59.1562 13.4636C59.2313 12.2005 59.1937 10.8809 59.0625 10.0703C58.95 9.33502 58.65 8.2039 58.425 7.52523C58.2 6.84655 57.7313 5.90395 57.4125 5.39495C57.075 4.90479 56.4937 4.30153 56.1187 4.0376C55.725 3.79252 54.9 3.45318 54.2812 3.28352C53.6437 3.1327 52.4813 3.00074 51.5625 3.01959C50.6813 3.03844 49.425 3.11385 48.75 3.20811C48.075 3.28352 47.3438 3.41548 47.1188 3.47204ZM62.9625 18.9119C62.5125 19.0061 62.3812 19.1946 62.025 20.2881C61.8 21.0044 61.125 22.5503 60.525 23.738C59.7937 25.1707 59.3625 26.283 59.25 27.0371C59.1375 27.6592 58.8937 29.1485 58.6875 30.3362C58.4437 31.769 58.3688 32.5608 58.5 32.6927C58.625 32.8184 59.325 32.7179 60.6 32.3911C61.6688 32.1272 63.075 31.637 63.75 31.3165C64.425 30.996 65.4375 30.4116 66 29.9969C66.6375 29.5444 67.3312 28.8092 67.8375 28.0551C68.2687 27.3953 68.8125 26.3019 69.0188 25.6232C69.225 24.9445 69.45 23.8511 69.5063 23.1724C69.6 22.0979 69.5625 21.8151 69.1313 20.8536C68.7 19.9299 68.4937 19.7037 67.65 19.2701C66.9 18.893 66.3187 18.7611 65.25 18.7233C64.4812 18.6856 63.7687 18.6856 63.6562 18.7233C63.5438 18.7611 63.2437 18.8553 62.9625 18.9119ZM33.7688 22.72C33.225 23.0216 32.2875 23.6437 31.7063 24.115C31.0313 24.6806 30.2062 25.6609 29.3438 26.9428C28.6125 28.0363 27.5812 29.9403 27.0375 31.1846C26.475 32.4288 25.7437 34.2951 25.4062 35.332C25.05 36.3689 24.5812 38.0656 24.375 39.1024C24.0562 40.5729 23.9438 41.8737 23.8688 45.0408C23.7938 48.3965 23.8312 49.3202 24.0938 50.4137C24.2625 51.1489 24.675 52.2423 24.9938 52.8456C25.3313 53.4677 25.8375 54.2595 26.1562 54.5988C26.4562 54.9381 26.8312 55.2021 26.9437 55.2209C27.075 55.2209 27.4687 54.825 27.825 54.316C28.1812 53.8259 28.7812 52.8079 29.1937 52.0349C29.5875 51.262 30.1125 50.4702 30.375 50.2817C30.675 50.0366 31.0688 49.9423 31.5 49.9801C31.9875 50.0178 32.175 50.1309 32.2125 50.4137C32.25 50.621 31.875 51.8464 31.4062 53.1472C30.9188 54.448 30.5062 55.6168 30.45 55.7299C30.4125 55.8619 30.4875 56.0504 30.6 56.1447C30.75 56.2578 31.3687 56.1447 32.2875 55.8619C33.2812 55.5603 33.9562 55.2209 34.3875 54.7873C34.95 54.2406 35.0438 53.9955 35.3438 52.2989C35.5125 51.262 35.775 49.6407 35.925 48.717C36.0563 47.7932 36.1875 46.5301 36.1875 45.9269C36.1875 45.022 36.1312 44.8146 35.7562 44.5695C35.5312 44.3998 34.9312 44.2867 34.35 44.2867C33.5625 44.2867 33.3375 44.2113 33.1875 43.9097C33.075 43.7023 33.0375 43.2876 33.0938 42.9671C33.15 42.6466 33.375 42.2884 33.6 42.1376C33.8438 42.0056 34.7062 41.7983 35.5312 41.6663C36.3563 41.5532 38.4188 41.2327 40.125 40.9876C41.8312 40.7237 43.2562 40.4598 43.3125 40.4032C43.3688 40.3467 43.6312 39.4041 43.9125 38.3295C44.325 36.7836 44.3812 36.3312 44.1937 36.1803C44.0438 36.0672 42.975 36.1615 40.9688 36.4631C39.3187 36.7271 37.2 37.0664 36.2812 37.2172C35.3625 37.368 34.275 37.5 33.8812 37.5C33.2812 37.5 33.1687 37.4246 33.075 36.9721C33 36.6705 33.0563 36.2746 33.2063 36.0107C33.375 35.709 33.8063 35.464 34.4062 35.2754C34.9125 35.1246 35.6625 34.7853 36.0563 34.5025C36.5438 34.182 36.9563 33.6353 37.3313 32.8812C37.725 32.0518 37.9875 30.9583 38.3438 28.7338C38.625 27.0748 39 24.8691 39.2063 23.8323C39.4125 22.7954 39.525 21.8339 39.4688 21.702C39.4125 21.5512 38.925 21.4757 38.0062 21.4757C37.2 21.4946 36.2812 21.6266 35.7188 21.8339C35.1937 22.0036 34.3313 22.4184 33.7688 22.72ZM42.075 28.1682C41.7937 29.9215 41.5312 31.7124 41.4938 32.1272C41.4562 32.5796 41.5125 32.9755 41.6625 33.1452C41.8312 33.3148 42.225 33.3714 42.8812 33.3337C43.6125 33.2771 43.9875 33.1452 44.3438 32.787C44.8125 32.3157 44.8125 32.2968 44.6438 30.4305C44.5312 29.3936 44.325 27.942 44.1562 27.2256C43.9875 26.5092 43.6688 25.4912 43.4437 25.0011C43.2188 24.5109 42.975 24.0962 42.9 24.115C42.825 24.115 42.7125 24.3036 42.6562 24.5298C42.6188 24.7749 42.3375 26.415 42.075 28.1682ZM51.1875 33.4845C50.8312 33.6542 50.2125 34.0124 49.8188 34.2763C49.3688 34.5779 48.9187 35.1246 48.6375 35.709C48.375 36.2369 48.1875 36.9721 48.1875 37.4057C48.1875 37.8205 48.075 38.4992 47.925 38.9139C47.7563 39.404 47.7188 39.7811 47.8313 39.9885C47.9625 40.2335 48.225 40.3278 48.8438 40.3278C49.3125 40.3278 50.025 40.4975 50.4375 40.7048C50.85 40.9122 51.5625 41.4401 52.0312 41.8737C52.5 42.3261 52.9125 42.6466 52.9312 42.59C52.9687 42.5335 53.3062 40.6671 53.7 38.4426C54.075 36.2181 54.525 33.7107 54.675 32.8812C54.825 32.0518 54.9188 31.3165 54.8813 31.2411C54.8438 31.1657 54.15 31.5616 53.325 32.146C52.5187 32.7116 51.5438 33.3148 51.1875 33.4845ZM69.5625 43.9097C70.125 45.0408 70.6125 45.7949 70.7812 45.7949C70.9875 45.7949 71.1 45.5121 71.175 44.8146C71.25 44.2679 71.25 43.5138 71.1938 43.1556C71.1 42.6655 70.95 42.4392 70.5562 42.2696C70.275 42.1565 69.7125 42.0056 69.3188 41.9491C68.925 41.9114 68.6062 41.8925 68.6062 41.9491C68.625 41.9868 69.0375 42.8728 69.5625 43.9097ZM45.8438 45.3236C45.525 46.04 44.7188 47.567 44.0625 48.6981C43.1625 50.2063 42.3 51.3185 40.8187 52.9021C39.7125 54.0709 38.6437 55.3717 38.4375 55.7865C38.2313 56.2012 38.0812 56.7668 38.1 57.0684C38.1562 57.4832 38.25 57.5774 38.625 57.5586C38.8875 57.5397 39.675 57.4078 40.4062 57.2569C41.1188 57.0873 42.2625 56.7479 42.9375 56.4652C43.6125 56.2012 44.6063 55.6922 45.15 55.3529C45.6938 55.0324 46.4625 54.448 46.875 54.0898C47.5687 53.4677 47.6063 53.3734 47.625 52.3554C47.625 51.2997 47.6438 51.2431 48.3188 50.8095C48.7125 50.5456 49.1438 50.1309 49.2563 49.8669C49.4063 49.5842 49.5 48.6604 49.5 47.6801C49.5 46.3605 49.425 45.8137 49.125 45.2293C48.9188 44.8146 48.4313 44.2679 48.0375 44.004C47.6625 43.74 47.1938 43.5326 47.025 43.5326C46.8563 43.5326 46.6313 43.6458 46.5563 43.7777C46.4813 43.8908 46.1625 44.6072 45.8438 45.3236ZM40.3313 45.0031C40.2188 45.3801 40.0125 46.5113 39.8438 47.4916C39.675 48.4719 39.5625 49.3014 39.6 49.3391C39.6375 49.3579 39.9188 48.9809 40.2562 48.4907C40.5938 48.0006 41.1188 46.9449 41.4375 46.1719C41.775 45.399 42.15 44.4753 42.3 44.1548C42.5438 43.5515 42.5438 43.5326 42.1312 43.5326C41.9062 43.5326 41.4375 43.7023 41.1 43.9097C40.6875 44.1736 40.4438 44.513 40.3313 45.0031ZM86.2875 27.7158C86.6063 27.6969 86.7938 27.7912 86.7563 27.9231C86.7375 28.0551 86.5688 28.2813 86.3813 28.451C86.1562 28.6584 85.95 29.469 85.6313 31.4108C85.2188 34.0878 85.2188 34.0878 85.5938 34.3706C85.8438 34.5591 85.9062 34.7162 85.7812 34.8419C85.6687 34.9361 85.1438 35.0869 84.6 35.1812C83.7938 35.3132 83.625 35.2755 83.625 35.0492C83.625 34.8984 83.7562 34.6345 83.9062 34.4837C84.0563 34.3328 84.3187 33.3902 84.4688 32.4099C84.6375 31.4296 84.7313 30.5436 84.6938 30.4305C84.675 30.3174 84.0938 31.4108 83.4375 32.8435C82.6687 34.4648 82.1062 35.4263 81.9375 35.4263C81.7312 35.4263 81.525 34.8607 81.1875 33.2583C80.925 32.0706 80.6625 31.1657 80.6062 31.2411C80.55 31.3165 80.4 31.9952 80.2688 32.7493C80.1562 33.4845 80.0625 34.3706 80.0625 34.6722C80.0625 34.9927 80.1375 35.2377 80.25 35.2377C80.3625 35.2377 80.4375 35.3886 80.4375 35.5771C80.4375 35.8033 80.2312 35.9353 79.65 36.0295C79.2 36.0861 78.7875 36.1238 78.6938 36.0672C78.6188 36.0295 78.5625 35.8599 78.5625 35.709C78.5625 35.5582 78.6937 35.4263 78.8438 35.4263C79.0125 35.4263 79.1625 35.2 79.2188 34.9173C79.275 34.6156 79.4812 33.3337 79.6875 32.0329C79.8938 30.619 79.9688 29.6575 79.875 29.6387C79.7625 29.601 79.6875 29.4313 79.7063 29.2239C79.7063 28.9789 79.8937 28.828 80.3062 28.7526C80.6437 28.6961 81.0188 28.6395 81.1313 28.6395C81.2812 28.6395 81.45 29.092 81.5813 29.7329C81.675 30.3174 81.9 31.4485 82.3687 33.6353L83.7375 30.7698C84.6 28.9977 85.2375 27.8854 85.4438 27.8289C85.6313 27.7723 86.0063 27.7346 86.2875 27.7158ZM78.8438 29.092C79.3313 29.1108 79.4062 29.1862 79.35 29.5821C79.3313 29.8461 79.2562 30.242 79.2188 30.487C79.1625 30.751 79.0125 30.8829 78.7875 30.8452C78.6188 30.8264 78.45 30.619 78.4125 30.3739C78.3938 30.0534 78.2625 29.9592 77.8125 29.9592C77.3812 29.9592 77.2312 30.0534 77.1562 30.3928C77.1188 30.619 76.95 31.7313 76.7812 32.8812C76.6125 34.0312 76.4437 35.1058 76.3875 35.2943C76.35 35.5017 76.4437 35.6525 76.6875 35.709C76.8938 35.7656 77.0625 35.9541 77.0625 36.1426C77.0625 36.3877 76.8 36.5197 75.8062 36.6894C75.0938 36.8025 74.475 36.8779 74.3813 36.8213C74.3063 36.7836 74.25 36.6705 74.25 36.5574C74.25 36.4443 74.4563 36.2935 74.7188 36.1803C74.9812 36.0672 75.225 35.841 75.2625 35.6713C75.3187 35.4828 75.4875 34.4837 75.6375 33.4468C75.8063 32.4099 75.975 31.2788 76.0312 30.9583C76.1062 30.4116 76.0875 30.3362 75.7125 30.3928C75.4688 30.4116 75.0938 30.7133 74.85 31.0903C74.6063 31.4485 74.3063 31.7501 74.1938 31.7501C74.0438 31.7501 73.9875 31.4673 74.025 30.9018C74.0625 30.4305 74.1375 29.9969 74.2125 29.9215C74.2875 29.8461 75.225 29.6198 76.3125 29.4313C77.4 29.2239 78.5437 29.0731 78.8438 29.092Z" fill="#B6B6B6"/>
</svg>
