<svg width="95" height="92" viewBox="0 0 95 92" fill="none" xmlns="http://www.w3.org/2000/svg">
<path fill-rule="evenodd" clip-rule="evenodd" d="M48.552 0.0228531C49.9276 0.0552794 51.7564 0.201198 52.598 0.347116C53.4395 0.476821 54.7181 0.736231 55.4302 0.914576C56.1422 1.09292 57.3884 1.49825 58.1814 1.8063C58.9744 2.11435 60.3015 2.74666 61.0945 3.20063C61.8876 3.6546 63.0204 4.38419 63.6031 4.82194C64.1857 5.27591 65.0111 5.97308 65.4642 6.3784C65.9012 6.79995 66.6942 7.65924 67.2445 8.27534C67.7785 8.89144 68.6039 9.96151 69.0409 10.6262C69.494 11.291 70.1738 12.4259 70.546 13.1393C70.9344 13.8527 71.5009 15.0524 71.8083 15.8145C72.132 16.5765 72.569 17.7114 72.7794 18.3275C72.9898 18.9436 73.3782 20.3055 73.6371 21.3269C73.8961 22.3483 74.2198 23.7751 74.3654 24.4885C74.4949 25.2019 74.7215 26.661 74.8509 27.7311C74.9966 28.8012 75.1584 31.3953 75.207 33.4868C75.2555 35.5783 75.2555 37.9292 75.0937 40.1342L73.9932 40.8475C73.3944 41.2367 72.3586 41.8365 71.6951 42.1608C71.0315 42.5013 69.753 43.0039 68.8629 43.3119C67.9727 43.6038 66.6942 43.9442 64.8169 44.2361L63.1985 45.7925C62.3083 46.6518 60.9165 47.7868 60.1235 48.338C59.3305 48.873 58.0358 49.6188 57.2428 49.9917C56.4659 50.3647 55.2683 50.8673 54.5886 51.0942C53.8927 51.3212 52.598 51.6617 51.7078 51.84C50.494 52.0832 49.4583 52.1643 47.5 52.1643C45.5417 52.1643 44.506 52.0832 43.2922 51.84C42.402 51.6617 41.0911 51.3212 40.379 51.078C39.667 50.851 38.5017 50.3809 37.7896 50.0242C37.0775 49.6837 35.8313 48.9703 35.0383 48.4353C34.2453 47.9003 32.8211 46.7491 31.8825 45.8574C30.2641 44.3009 30.1508 44.2199 29.293 44.1064C28.8075 44.0415 27.6746 43.7659 26.7845 43.5065C25.8944 43.2471 24.5026 42.7121 23.7095 42.3391C22.9165 41.9662 21.7351 41.3177 21.1201 40.9124C20.0034 40.1666 19.9872 40.1504 19.8739 39.2911C19.8092 38.8209 19.7445 37.0861 19.7445 35.4324C19.7445 33.7786 19.8092 31.4926 19.9063 30.3252C20.0034 29.1741 20.23 27.2285 20.408 26.0287C20.6022 24.829 20.9906 22.851 21.2819 21.6512C21.5894 20.4514 22.1073 18.668 22.4634 17.679C22.8194 16.69 23.5153 15.0524 24.017 14.031C24.5349 13.0096 25.425 11.4369 26.0238 10.5452C26.7036 9.50754 27.7717 8.24292 28.9693 7.04314C30.2802 5.71367 31.3322 4.82194 32.5298 4.04371C33.4685 3.42761 34.9412 2.61696 35.8152 2.24405C36.6729 1.85494 38.0162 1.36854 38.793 1.14156C39.586 0.914576 40.8322 0.606526 41.5928 0.476821C42.3535 0.330903 43.6644 0.152558 44.506 0.0877056C45.3475 0.00663993 47.1763 -0.0257864 48.552 0.0228531ZM50.8986 21.5701C50.753 22.7375 50.6073 23.8886 50.5588 24.1642L50.4779 24.6506C43.7777 24.8127 40.7513 24.9911 39.408 25.137C38.0809 25.2667 35.8961 25.5748 34.5528 25.8017C33.2257 26.0125 31.3969 26.3692 30.5068 26.5638L28.8884 26.9205C28.8075 39.1127 28.8399 39.8748 29.0826 40.3449C29.2283 40.6206 29.6329 41.2691 29.9727 41.7555C30.3126 42.2419 31.0085 43.1174 31.5264 43.7011C32.0281 44.2847 32.9182 45.1764 33.5009 45.6791C34.0835 46.1817 34.9898 46.9113 35.5238 47.2842C36.0579 47.6733 37.1908 48.3218 38.0324 48.7433C38.8739 49.1649 40.1201 49.6837 40.7836 49.9107C41.4472 50.1215 42.6124 50.4457 43.3731 50.6078C44.425 50.8348 45.3961 50.9159 47.5 50.8997C49.523 50.8997 50.6073 50.8186 51.6269 50.6078C52.3876 50.4457 53.5852 50.1052 54.2973 49.862C55.0094 49.6188 56.1746 49.1325 56.8867 48.792C57.5988 48.4353 58.7317 47.7705 59.3952 47.3328C60.0588 46.895 61.0298 46.133 61.5801 45.6466C62.1141 45.1602 62.891 44.382 63.2956 43.9442C63.7164 43.4903 64.4608 42.5661 64.9625 41.8852L65.8688 40.6206V26.8394C64.6712 26.5962 63.6031 26.3854 62.7129 26.2071C61.8228 26.0287 60.075 25.7369 58.8288 25.5585C57.5826 25.3802 55.6082 25.137 54.4267 25.0235L52.2905 24.8127C52.0153 22.6726 51.8211 21.2621 51.7078 20.2731C51.5784 19.2841 51.4489 18.3113 51.4165 18.0843C51.4003 17.8573 51.3194 18.0843 51.2547 18.5707C51.1899 19.0571 51.0281 20.4028 50.8986 21.5701ZM7.68739 56.0393C8.39949 56.0393 9.27342 56.1041 9.62947 56.2014C9.98552 56.2987 10.6976 56.5743 11.2155 56.8013C11.9114 57.1255 12.1865 57.3687 12.3322 57.7254C12.4779 58.1307 12.4455 58.4388 12.1542 59.5089C11.96 60.2222 11.6848 61.0329 11.5715 61.2923C11.4259 61.5841 11.167 61.8273 10.8918 61.8922C10.5681 61.9733 10.0017 61.8598 8.98211 61.5193C8.01107 61.1842 7.36371 61.0491 7.04003 61.114C6.76491 61.1626 6.39267 61.3247 6.19847 61.4544C5.95571 61.6004 5.82623 61.8598 5.82623 62.1516C5.82623 62.4434 5.93952 62.6542 6.18228 62.7839C6.39267 62.8974 7.36371 63.2055 8.33475 63.4811C9.32198 63.7567 10.4063 64.162 10.7624 64.3566C11.1184 64.5674 11.7334 65.1024 12.1218 65.5239C12.5264 65.9617 12.9957 66.6426 13.1738 67.048C13.4489 67.6479 13.4974 68.1343 13.5136 69.6421C13.5136 71.2472 13.4651 71.5877 13.1576 72.1551C12.9634 72.5118 12.5264 73.1279 12.1865 73.517C11.8143 73.9386 11.1508 74.4249 10.5196 74.733C9.5 75.2194 9.41908 75.2356 7.36371 75.2194C5.79387 75.2032 4.9523 75.1221 4.046 74.8789C3.38245 74.7006 2.37905 74.3115 1.82879 74.0358C1.26235 73.7602 0.695911 73.3549 0.56644 73.1279C0.339864 72.755 0.356048 72.6253 0.744463 71.4742C0.987223 70.777 1.27853 70.015 1.39182 69.7718C1.52129 69.4962 1.79642 69.2854 2.07155 69.2205C2.37905 69.1557 2.84838 69.2854 3.6414 69.6421C4.38586 69.9826 5.11414 70.1933 5.74532 70.242C6.36031 70.2744 6.86201 70.2257 7.12095 70.096C7.41227 69.9339 7.54174 69.7231 7.57411 69.3502C7.59029 68.9773 7.50937 68.7504 7.25043 68.5396C7.04003 68.3937 6.03663 68.0532 5.01704 67.7938C3.99744 67.5344 2.89693 67.1939 2.58944 67.0318C2.28194 66.8858 1.78024 66.5129 1.47274 66.2049C1.16525 65.9131 0.712095 65.2321 0.453152 64.6971C0.0971039 63.9188 0 63.4973 0 62.638C0 61.8598 0.113288 61.2112 0.4046 60.4492C0.631175 59.8331 1.00341 59.0711 1.24617 58.7144C1.50511 58.3739 1.95826 57.9038 2.26576 57.6768C2.57325 57.4336 3.35009 57.0445 3.96508 56.7851C4.59625 56.5256 5.38927 56.25 5.74532 56.1852C6.10136 56.1203 6.9753 56.0555 7.68739 56.0393ZM79.4634 56.3635C79.9489 56.3635 80.8552 56.4608 81.4864 56.5905C82.1175 56.7202 82.9429 56.9472 83.3475 57.0769C83.8007 57.2228 84.4966 57.7092 85.2087 58.3415C85.8399 58.909 86.5843 59.7683 86.8918 60.2547C87.1993 60.7411 87.6201 61.6328 87.8305 62.2651C88.0409 62.8974 88.2836 64.0323 88.3807 64.8268C88.4778 65.7185 88.4617 66.7399 88.3646 67.583C88.2513 68.5882 88.0732 69.2205 87.5877 70.2095C87.2479 70.9229 86.6005 71.8957 86.1635 72.3821C85.7266 72.8685 85.0145 73.5008 84.5613 73.7764C84.1244 74.052 83.3475 74.4412 82.862 74.6357C82.3765 74.8465 81.3569 75.1221 80.5963 75.2518C79.6738 75.4302 78.8322 75.4788 78.0068 75.414C77.3433 75.3491 76.3237 75.1708 75.7411 75.0086C75.1584 74.8465 74.3654 74.5547 73.9608 74.3439C73.5562 74.1331 72.8441 73.6305 72.3586 73.2252C71.8893 72.8199 71.2581 72.074 70.9668 71.5877C70.6593 71.1013 70.2709 70.2582 70.109 69.7231C69.931 69.1881 69.7044 68.2802 69.5911 67.6965C69.4779 67.1128 69.4131 66.14 69.4617 65.5077C69.5102 64.8754 69.753 63.7081 70.0119 62.9136C70.3194 61.957 70.7564 61.0329 71.2905 60.2385C71.8407 59.4278 72.4072 58.8117 73.0707 58.3415C73.6048 57.9686 74.592 57.4336 75.2555 57.1742C75.9191 56.9148 76.9387 56.6229 77.5213 56.5419C78.1039 56.4608 78.9779 56.3797 79.4634 56.3635ZM77.0358 62.1516C76.8092 62.3137 76.4046 62.7353 76.1295 63.092C75.8543 63.4487 75.5468 64.0972 75.4497 64.5836C75.3365 65.0375 75.2555 65.8806 75.2555 66.4481C75.2555 67.1939 75.3526 67.6641 75.644 68.264C75.8543 68.7179 76.3237 69.2854 76.6635 69.5448C77.0034 69.8204 77.5537 70.096 77.8935 70.1609C78.2334 70.2258 78.8646 70.2257 79.3501 70.1285C80.046 69.9988 80.3211 69.8366 80.9199 69.2043C81.4054 68.6855 81.7291 68.1505 81.891 67.6154C82.0204 67.1777 82.1175 66.5129 82.1014 66.1562C82.1014 65.7996 81.9881 65.07 81.8748 64.5349C81.7615 63.9999 81.5026 63.3514 81.3245 63.0758C81.1465 62.8163 80.6772 62.411 80.2726 62.1678C79.868 61.9246 79.3177 61.6814 79.0588 61.649C78.7998 61.6004 78.3143 61.6328 78.0068 61.6976C77.6993 61.7787 77.2623 61.9895 77.0358 62.1516ZM22.8194 56.6878C23.7095 56.6716 24.7291 56.7688 25.247 56.8985C25.7487 57.0445 26.2019 57.2715 26.299 57.4336C26.3799 57.5957 26.8816 58.8928 27.3995 60.3195C27.9174 61.7463 28.5162 63.4162 28.7104 64.0485C28.9208 64.6809 29.3739 66.0265 29.73 67.048C30.086 68.0694 30.5068 69.2854 30.6363 69.7231C30.7819 70.1771 31.1218 71.2958 31.4131 72.2362C31.7368 73.3387 31.8825 74.1007 31.8177 74.3925C31.7692 74.6357 31.575 74.8951 31.3969 74.9924C31.1865 75.0897 30.2802 75.1059 28.937 75.041C27.2376 74.9438 26.7036 74.8627 26.4284 74.6357C26.2181 74.4736 25.8135 73.7602 25.5383 73.0468C25.1661 72.1551 24.9072 71.7174 24.6806 71.6525C24.5026 71.6039 23.4668 71.6201 22.3663 71.6849C20.4242 71.8308 20.3756 71.8471 20.2947 72.2362C20.2462 72.4632 20.1005 72.9658 19.971 73.3711C19.8577 73.7764 19.5664 74.279 19.3237 74.506C19 74.8141 18.6601 74.9438 17.8348 75.0248C17.2359 75.0897 16.2002 75.1383 15.5366 75.1545C14.6141 75.1545 14.2257 75.0897 13.9344 74.8789C13.6107 74.6357 13.5622 74.4898 13.6269 74.0196C13.6755 73.7116 13.9668 72.7874 14.2743 71.993C14.598 71.1985 15.5204 68.4909 16.3458 65.9941C17.155 63.4973 18.207 60.5465 18.6601 59.444C19.2589 58.0173 19.615 57.3525 19.9063 57.1742C20.1329 57.0445 20.5375 56.8823 20.7964 56.8175C21.0716 56.7526 21.9779 56.704 22.8194 56.6878ZM22.5119 63.8864C22.3986 64.1458 22.253 64.5511 22.1721 64.7781C22.0911 65.0051 21.9131 65.5726 21.7836 66.0428L21.5247 66.8858C23.1593 66.8858 23.661 66.821 23.7095 66.7237C23.7581 66.6264 23.6448 66.1076 23.483 65.5564C23.3049 64.9889 23.0622 64.2755 22.9165 63.9675L22.6899 63.4L22.5119 63.8864ZM35.8475 56.6716C36.8348 56.6716 37.8867 56.7364 38.1942 56.8175C38.5826 56.931 39.0358 57.2877 39.667 58.001C40.1525 58.5685 41.2368 59.9304 42.0784 61.0491C42.9037 62.1678 43.7615 63.2703 44.3441 63.9675L44.3279 63.4487C44.3279 63.1568 44.2308 61.8598 44.1175 60.5627C43.9395 58.6171 43.9557 58.1145 44.1337 57.693C44.247 57.4012 44.4736 57.0931 44.6354 57.012C44.7811 56.931 45.8654 56.8499 47.0145 56.8337C48.4872 56.8175 49.2479 56.8661 49.5715 57.0283C49.8305 57.1417 50.0732 57.4174 50.138 57.6444C50.2027 57.8713 50.2513 61.7463 50.2513 66.2535C50.2513 74.2466 50.2351 74.4736 49.9276 74.8141C49.6363 75.1383 49.4421 75.1708 47.6618 75.1545C46.4642 75.1545 45.5903 75.0735 45.3637 74.9438C45.1695 74.8303 44.6354 74.2466 44.1823 73.6143C43.7129 72.982 42.3535 71.2796 38.9225 67.1615L38.8901 70.7121C38.8577 73.8575 38.8092 74.2952 38.5664 74.5384C38.3237 74.7654 37.9029 74.8303 36.0741 74.8627C34.1968 74.9113 33.8245 74.8789 33.5656 74.6357C33.2743 74.3763 33.2581 73.9548 33.2581 57.0931L33.6627 56.8823C33.9216 56.7526 34.7308 56.6716 35.8475 56.6716ZM56.3526 56.9958C58.7641 56.9958 60.3825 57.0769 61.4668 57.2552C62.6482 57.4336 63.2956 57.6444 64.0886 58.0821C64.6712 58.3902 65.3833 58.8279 65.6746 59.0387C65.9497 59.2495 66.4838 59.8169 66.8399 60.2871C67.2121 60.7897 67.6814 61.7139 67.9889 62.5894C68.3612 63.6756 68.5068 64.4539 68.5715 65.5888C68.6201 66.4481 68.5715 67.5506 68.4744 68.1018C68.3773 68.6369 68.1184 69.5448 67.8918 70.1285C67.6652 70.7446 67.1797 71.5552 66.7266 72.0903C66.3058 72.5929 65.5937 73.2414 65.1405 73.5494C64.7036 73.8413 64.0077 74.2142 63.6031 74.3601C63.1985 74.5222 62.0009 74.7492 60.9327 74.8951C59.8646 75.0248 57.5664 75.1545 55.8186 75.187C52.8245 75.2356 52.6141 75.2194 52.2905 74.9113C51.9344 74.5871 51.9344 74.5547 51.9506 66.4481C51.9506 61.1788 52.0153 58.1307 52.1124 57.8551C52.2095 57.5957 52.4199 57.3039 52.5656 57.2066C52.7598 57.0445 53.7956 56.9958 56.3526 56.9958ZM58.0196 64.5511C58.0681 65.9617 58.1005 67.7289 58.1005 68.4747V69.8042C59.8969 69.8042 60.5605 69.7069 60.8194 69.5772C61.0622 69.4475 61.4506 69.1395 61.6934 68.8801C61.9361 68.6369 62.2436 68.1505 62.3893 67.8262C62.5511 67.4209 62.632 66.7075 62.632 65.7996C62.632 64.6322 62.5673 64.2593 62.2598 63.7243C62.0009 63.2541 61.661 62.9461 61.0136 62.6218C60.4202 62.3191 59.7567 62.1354 59.023 62.0705L57.9387 61.9733L58.0196 64.5511ZM92.5724 68.7504C93.3007 68.8152 93.5596 68.9125 93.9966 69.3502C94.2879 69.6421 94.6278 70.1285 94.7572 70.4203C94.8867 70.6959 95 71.3445 95 71.8308C95 72.3172 94.9029 72.9658 94.7734 73.2576C94.6439 73.5332 94.3526 73.971 94.1261 74.2304C93.8995 74.4736 93.4625 74.7816 93.1712 74.9276C92.799 75.1221 92.3458 75.1708 91.5852 75.1383C90.7598 75.0897 90.4037 74.9762 89.9668 74.6519C89.6593 74.4249 89.2547 73.9223 89.0605 73.517C88.8177 73.0468 88.6882 72.5118 88.6882 71.9606C88.6882 71.4255 88.8015 70.8581 89.0119 70.4527C89.1899 70.096 89.5784 69.6421 89.8535 69.4475C90.1448 69.253 90.6789 68.9935 91.0349 68.8801C91.4072 68.7666 92.0707 68.7017 92.5724 68.7504ZM68.0051 78.235C68.086 78.235 68.5392 78.6566 69.0247 79.1754C69.5264 79.678 69.931 80.1806 69.9148 80.2617C69.9148 80.359 69.7206 80.5859 69.0247 81.121L68.086 80.0833C67.5843 79.5159 67.1635 79.0133 67.1635 78.9646C67.1635 78.916 67.3254 78.7376 67.5196 78.5593C67.73 78.3972 67.9404 78.2513 68.0051 78.235ZM33.339 78.7214H34.5528C35.2164 78.7214 35.799 78.8025 35.8475 78.8836C35.8961 78.9808 35.8152 79.143 35.6695 79.2565C35.4915 79.4024 35.4267 79.7591 35.4429 81.8019H38.1942L38.1133 83.8286L35.4429 83.9096V84.85C35.4429 85.3526 35.3296 86.2281 35.2002 86.7956C35.0707 87.3468 34.7956 88.1088 34.6014 88.498C34.4233 88.8709 34.0349 89.4545 33.7598 89.8112C33.4847 90.1517 32.8211 90.7516 32.2871 91.1245C31.753 91.5136 31.138 91.8703 30.9114 91.9351C30.5877 92.0162 30.3773 91.9027 29.8756 91.4163C29.5358 91.0758 29.293 90.7029 29.3577 90.6057C29.4063 90.4922 29.7624 90.2328 30.1346 90.0382C30.523 89.8436 31.1542 89.3897 31.5588 89.0168C31.9796 88.6277 32.4651 87.9305 32.724 87.3793C32.9991 86.7794 33.2095 85.9525 33.4199 83.9096H29.7785V85.4175C29.7947 86.4389 29.73 86.9739 29.5843 87.1198C29.4549 87.2333 29.0503 87.2982 27.7555 87.2333L27.6746 83.9096L25.1661 83.8286L25.0852 81.8019H27.6746V78.8836H28.8075C29.552 78.8836 29.9727 78.9484 30.0375 79.0943C30.086 79.1916 30.0537 79.37 29.9566 79.451C29.8595 79.5483 29.7785 80.0995 29.7785 81.8019H33.339V78.7214ZM43.8586 78.7214L44.5383 78.9808C44.9267 79.1268 45.914 79.5645 46.7232 79.9536C47.5486 80.3428 48.2283 80.7481 48.2283 80.8291C48.2283 80.9264 48.0341 81.348 47.7751 81.8019C47.5324 82.2397 47.2572 82.6126 47.1763 82.6126C47.0792 82.6126 46.7232 82.4342 46.3671 82.2235C46.0111 82.0127 45.0724 81.5587 44.2956 81.2183C43.0494 80.667 42.8876 80.5373 42.9847 80.2617C43.0494 80.0833 43.2598 79.6618 43.4702 79.3375L43.8586 78.7214ZM60.3663 78.7052H61.661C62.7129 78.7052 62.9557 78.7539 62.9557 78.9484C62.9557 79.0943 62.891 79.2403 62.7939 79.2727C62.7129 79.3213 62.632 80.1158 62.632 81.1372C62.632 82.4667 62.6968 82.9206 62.8424 82.9206C62.9557 82.9206 63.7325 83.2125 64.5741 83.5529C65.4319 83.8934 66.5971 84.4122 67.1635 84.7041C67.7462 84.9959 68.2479 85.2553 68.2641 85.304C68.2802 85.3364 68.086 85.7579 67.8109 86.2443C67.552 86.7469 67.2768 87.1685 67.2121 87.2009C67.1474 87.2333 66.144 86.8118 64.9787 86.2281C63.8296 85.6607 62.8262 85.2067 62.7615 85.2067C62.6968 85.1905 62.6158 86.7145 62.5511 91.9189L60.3663 92V78.7052ZM65.9012 79.5159C65.9821 79.5159 66.4353 79.9374 66.9208 80.4562C67.4225 80.9751 67.8109 81.4615 67.8271 81.5425C67.8271 81.6398 67.6329 81.8992 67.4063 82.11C67.0503 82.4667 66.9693 82.4991 66.7913 82.2721C66.678 82.1424 66.2249 81.656 64.9787 80.3265L65.3833 79.9212C65.5937 79.7104 65.8365 79.5159 65.9012 79.5159ZM53.5528 80.0185C53.6014 80.0185 54.0221 80.2455 54.4591 80.5373C54.9123 80.8129 55.3169 81.0723 55.3492 81.0886C55.3978 81.121 55.333 81.3804 55.2036 81.6722C55.0579 81.9641 54.621 82.7099 54.2164 83.326C53.8118 83.9583 53.0349 84.9311 52.517 85.4985C51.983 86.066 50.9634 86.9739 50.2513 87.509C49.5392 88.044 48.3416 88.7898 47.5809 89.1627C46.8365 89.5356 45.9625 89.9409 45.6388 90.0706C45.3313 90.1841 44.9915 90.3949 44.8944 90.5408C44.7487 90.7516 44.6031 90.6219 43.9557 89.7302C43.5511 89.1627 43.2598 88.6439 43.3407 88.579C43.4054 88.5304 44.0852 88.2548 44.8296 87.9467C45.5903 87.6549 46.5451 87.2333 46.9336 87.0063C47.3382 86.7794 48.0664 86.3254 48.552 86.0011C49.0537 85.6607 49.9114 84.9311 50.4617 84.3636C51.0119 83.7961 51.724 82.9693 52.0477 82.5153C52.3552 82.0776 52.7922 81.3317 53.0187 80.8616C53.2453 80.3914 53.4881 80.0185 53.5528 80.0185ZM40.2172 30.7954C40.9293 30.8278 41.9327 30.9737 42.4506 31.1197C42.9685 31.2494 43.4864 31.4763 43.6158 31.606C43.7777 31.7682 43.8262 31.979 43.7453 32.2059C43.6806 32.4005 43.5511 32.5788 43.454 32.6275C43.3731 32.6599 42.7581 32.5302 42.0784 32.3356C41.1073 32.0438 40.6056 31.9952 39.4889 32.06C38.7445 32.1087 37.7411 32.2708 37.2879 32.4491C36.5273 32.7085 36.414 32.7248 36.1712 32.4978C36.0256 32.3681 35.9284 32.1087 35.9608 31.9303C35.9932 31.7682 36.2359 31.5088 36.4949 31.3953C36.77 31.2656 37.4174 31.071 37.9514 30.9413C38.5179 30.8116 39.4727 30.7468 40.2172 30.7954ZM55.6729 30.8116C56.3526 30.844 57.3237 31.0062 57.8416 31.1521C58.3756 31.3142 58.8773 31.5736 58.9744 31.7358C59.1039 31.9465 59.1039 32.0924 58.9744 32.3032C58.8773 32.4653 58.6508 32.5788 58.4889 32.5626C58.3271 32.5464 57.7121 32.4167 57.1295 32.2546C56.3526 32.0438 55.7215 31.9952 54.7019 32.06C53.9574 32.1087 53.0026 32.2708 52.598 32.4167C52.2095 32.5464 51.7564 32.6275 51.5945 32.5951C51.4327 32.5464 51.2709 32.4005 51.2223 32.2546C51.1899 32.1249 51.2061 31.8979 51.2709 31.7682C51.3356 31.6223 51.8211 31.3791 52.3552 31.2007C52.8893 31.0386 53.5852 30.8602 53.8927 30.8278C54.2164 30.7792 55.0094 30.7792 55.6729 30.8116ZM37.563 34.9297C37.7411 34.9297 38.0809 35.2216 38.3722 35.6269C38.6474 35.9998 38.9063 36.4538 38.9549 36.6321C39.0034 36.8267 38.9225 37.0699 38.7768 37.1996C38.5826 37.3941 38.4532 37.4104 38.2428 37.2644C38.0809 37.1672 37.7572 36.778 37.4983 36.3727C37.1908 35.8863 37.0775 35.5458 37.1422 35.3026C37.207 35.0757 37.3688 34.9297 37.563 34.9297ZM39.6993 34.9297C39.9744 34.9297 40.201 35.1567 40.5894 35.8215C40.8807 36.3241 41.075 36.8267 41.0264 36.9564C40.994 37.1023 40.8484 37.2644 40.7027 37.3293C40.5571 37.3941 40.3467 37.3455 40.1848 37.1834C40.023 37.0375 39.7317 36.5997 39.5051 36.2106C39.2785 35.8053 39.1652 35.3837 39.23 35.2216C39.2785 35.0594 39.4889 34.9297 39.6993 34.9297ZM56.8705 35.0432C56.9676 35.0757 57.2589 35.4324 57.5017 35.8215C57.7445 36.2268 57.9225 36.7294 57.9063 36.924C57.8739 37.1618 57.7391 37.2969 57.5017 37.3293C57.2266 37.3617 57.0162 37.1834 56.644 36.6321C56.385 36.243 56.1422 35.7242 56.1261 35.5134C56.0937 35.2378 56.1746 35.1081 56.385 35.0594C56.5468 35.027 56.7734 35.027 56.8705 35.0432ZM58.7964 34.946C58.8612 34.946 59.0068 35.027 59.1201 35.1405C59.2334 35.254 59.4923 35.6269 59.6865 35.9512C59.8969 36.2754 60.0426 36.7132 60.0102 36.924C59.9778 37.1618 59.843 37.2969 59.6056 37.3293C59.3305 37.3617 59.1201 37.1834 58.7479 36.6321C58.4889 36.243 58.2623 35.7404 58.23 35.5134C58.2138 35.3026 58.3109 35.0919 58.4404 35.0432C58.5698 34.9946 58.7317 34.9622 58.7964 34.946ZM35.4753 35.0919C35.6533 35.0919 35.977 35.3999 36.2359 35.789C36.4787 36.1619 36.7376 36.5997 36.8024 36.7618C36.8671 36.924 36.8024 37.1347 36.6567 37.2806C36.5111 37.4266 36.3492 37.5238 36.2845 37.5238C36.2198 37.5238 36.0903 37.4752 35.9932 37.4104C35.8961 37.3455 35.621 36.9726 35.3944 36.5997C35.1516 36.2268 34.9574 35.7728 34.9412 35.6107C34.925 35.4486 34.9736 35.2702 35.0383 35.2054C35.1192 35.1405 35.3135 35.0919 35.4753 35.0919ZM54.4429 35.1081C54.54 35.1081 54.7019 35.1567 54.799 35.2216C54.8799 35.2864 55.155 35.6593 55.3978 36.0322C55.6405 36.4051 55.8186 36.8429 55.8024 36.9888C55.7862 37.1347 55.6405 37.3293 55.4949 37.4266C55.2683 37.5725 55.155 37.5563 54.9284 37.3455C54.7666 37.1834 54.4429 36.7294 54.2164 36.3403C53.8765 35.7242 53.8441 35.5783 54.0383 35.3513C54.1678 35.2216 54.3458 35.0919 54.4429 35.1081ZM47.5 35.4324C48.6005 35.4324 49.3773 35.5296 49.9276 35.708C50.494 35.9025 50.753 36.0809 50.8015 36.3079C50.8177 36.4862 50.7206 36.7456 50.575 36.8753C50.3484 37.1023 50.2351 37.1023 49.5554 36.8915C49.1508 36.7618 48.2121 36.6483 47.5 36.6483C46.7879 36.6483 45.8816 36.7456 45.4608 36.8753C44.7811 37.1023 44.6678 37.1023 44.425 36.8753C44.2794 36.7456 44.1823 36.4862 44.2146 36.3079C44.247 36.0809 44.5221 35.9025 45.0724 35.708C45.6227 35.5296 46.3995 35.4324 47.5 35.4324ZM41.6414 41.7393C41.8356 41.7393 42.1269 41.869 42.2726 42.0311C42.4182 42.177 43.0009 42.5499 43.5673 42.8418C44.1337 43.1336 45.1695 43.4903 45.8816 43.6362C46.9821 43.8632 47.4029 43.8794 48.552 43.7173C49.6039 43.5713 50.2513 43.3768 51.2223 42.8742C51.9344 42.5175 52.7112 42.1122 52.9216 41.9662C53.1644 41.8041 53.4557 41.7393 53.6175 41.8041C53.8118 41.869 53.8927 42.0473 53.8603 42.3554C53.8279 42.6958 53.6014 42.939 52.9216 43.4092C52.4361 43.7335 51.4974 44.2037 50.8177 44.4631C49.7334 44.8684 49.4097 44.9008 47.5 44.9008C45.7521 44.9008 45.2342 44.8522 44.3441 44.5441C43.7777 44.3496 42.8228 43.8632 42.2402 43.4903C41.6252 43.085 41.1721 42.6634 41.1397 42.4689C41.1073 42.2905 41.1235 42.0635 41.1721 41.95C41.2206 41.8365 41.431 41.7393 41.6414 41.7393Z" fill="#B6B6B6"/>
</svg>
