<svg width="156" height="28" viewBox="0 0 156 28" fill="none" xmlns="http://www.w3.org/2000/svg">
<path fill-rule="evenodd" clip-rule="evenodd" d="M18.7991 0.0186356C27.7511 0.0279534 28.5096 0.0326123 28.8818 0.107155C29.1033 0.153744 29.4943 0.242263 29.7535 0.307488C30.0126 0.372712 30.4366 0.50782 30.6958 0.605657C30.9549 0.698835 31.346 0.866556 31.5674 0.969052C31.7889 1.07621 32.1469 1.26722 32.3684 1.39767C32.5898 1.52812 32.9291 1.75175 33.1222 1.89151C33.3154 2.03128 33.6593 2.30616 33.8855 2.50183C34.1116 2.70216 34.4556 3.04226 34.6535 3.26123C34.8561 3.4802 35.1293 3.80632 35.266 3.98336C35.4026 4.1604 35.6193 4.4772 35.7466 4.6822C35.8785 4.88719 36.0669 5.22263 36.1753 5.42762C36.279 5.63261 36.4392 5.97737 36.5287 6.19634C36.6229 6.41531 36.7737 6.85324 36.8679 7.17471C36.9621 7.49617 37.0799 7.98536 37.127 8.26955C37.1742 8.55374 37.2071 8.79601 37.193 8.8193C37.1836 8.83794 35.7701 8.85191 30.9314 8.85191L30.8984 8.21364C30.8795 7.85957 30.8324 7.40299 30.79 7.198C30.7476 6.99301 30.6392 6.64825 30.5497 6.42928C30.4602 6.21032 30.2717 5.86556 30.1351 5.66057C29.9937 5.45557 29.7205 5.13411 29.5226 4.94775C29.3247 4.76606 29.042 4.53311 28.896 4.43993C28.7452 4.34676 28.4766 4.20233 28.2929 4.11847C28.1091 4.03461 27.7935 3.91814 27.2092 3.75042H10.0121L9.60215 3.88087C9.37128 3.95075 9.03205 4.0812 8.8483 4.17438C8.65984 4.26755 8.41012 4.40732 8.29233 4.48652C8.17455 4.56572 7.92483 4.77537 7.73166 4.95707C7.53849 5.13877 7.26522 5.46489 7.11916 5.68386C6.96839 5.90283 6.77993 6.25691 6.69512 6.47587C6.61031 6.69484 6.50666 7.03028 6.46425 7.2213C6.39358 7.5381 6.38416 8.18103 6.38416 14C6.38416 19.819 6.39358 20.4619 6.46425 20.7787C6.50666 20.9697 6.6056 21.2958 6.68569 21.5008C6.76579 21.7058 6.95425 22.0646 7.10973 22.2928C7.2605 22.5211 7.53377 22.8519 7.7081 23.0196C7.88714 23.1874 8.16041 23.411 8.31589 23.5135C8.47137 23.616 8.68339 23.7418 8.78705 23.7977C8.8907 23.8489 9.0933 23.9328 9.23465 23.984C9.37599 24.0399 9.63042 24.1191 9.80003 24.1657C10.0921 24.2449 10.5539 24.2496 18.6342 24.2496C26.7145 24.2496 27.1762 24.2449 27.4684 24.1657C27.638 24.1191 27.8924 24.0399 28.0337 23.984C28.1751 23.9328 28.3777 23.8489 28.4813 23.7977C28.585 23.7464 28.8253 23.5927 29.0185 23.4622C29.2116 23.3318 29.4943 23.0895 29.6545 22.9218C29.8147 22.7541 30.0173 22.5165 30.1068 22.386C30.1963 22.2602 30.3565 21.9621 30.4649 21.7338C30.5733 21.5055 30.6958 21.1887 30.7382 21.0349C30.7759 20.8812 30.8324 20.5644 30.8607 20.3361C30.8842 20.1078 30.9078 19.7444 30.9078 19.5348C30.9078 19.2319 30.9219 19.1434 30.9785 19.1248C31.0162 19.1108 32.4108 19.1015 34.0787 19.1015C36.4957 19.0968 37.1129 19.1108 37.16 19.1574C37.2024 19.204 37.193 19.3298 37.127 19.7072C37.0799 19.9774 36.9951 20.3734 36.9386 20.5923C36.882 20.8113 36.7643 21.1887 36.6747 21.4309C36.5852 21.6732 36.4156 22.0739 36.2978 22.3161C36.18 22.5584 35.9774 22.9358 35.8455 23.1547C35.7089 23.3737 35.4544 23.7511 35.2707 23.9933C35.0917 24.2356 34.6959 24.6829 34.3991 24.9857C34.0975 25.2885 33.6876 25.6659 33.485 25.8243C33.2824 25.9827 32.9291 26.2343 32.7076 26.3834C32.4815 26.5324 32.0763 26.7654 31.803 26.9005C31.5297 27.0403 31.1057 27.2313 30.8607 27.3245C30.6157 27.4223 30.2435 27.5481 30.0362 27.6087C29.8288 27.6692 29.499 27.7484 29.3059 27.7903C29.1127 27.8323 28.7169 27.8975 28.4342 27.9348C27.9961 27.9907 26.4931 28 18.6106 28C10.8413 28 9.22522 27.986 8.81061 27.9301C8.53734 27.8975 8.1557 27.8323 7.96253 27.7903C7.76935 27.7484 7.45839 27.6739 7.27935 27.6226C7.10031 27.5714 6.74694 27.4549 6.50194 27.3617C6.25694 27.2686 5.80935 27.0729 5.51252 26.9238C5.21569 26.7747 4.75867 26.5138 4.49953 26.3414C4.2404 26.1691 3.87761 25.9082 3.69857 25.7591C3.51953 25.6146 3.16145 25.2885 2.91174 25.0323C2.65732 24.7807 2.33693 24.4313 2.19087 24.2496C2.04481 24.0679 1.79981 23.7324 1.64433 23.5042C1.48885 23.2759 1.21558 22.8007 1.04125 22.4559C0.866926 22.1111 0.63606 21.5521 0.522982 21.2213C0.409905 20.8905 0.277982 20.4246 0.226155 20.1963C0.174327 19.9681 0.103654 19.5348 0.0659618 19.2413C0.0141347 18.808 0 17.797 0 13.9767C0 10.1238 0.0141347 9.15474 0.0659618 8.73544C0.103654 8.45125 0.179039 8.03195 0.226155 7.80366C0.277982 7.57537 0.405194 7.12346 0.513559 6.802C0.617214 6.48053 0.838657 5.94942 1.00356 5.61398C1.16847 5.27854 1.44174 4.79867 1.61135 4.54243C1.77626 4.28619 2.04953 3.90882 2.21914 3.70383C2.38405 3.49884 2.72328 3.13544 2.96828 2.88852C3.21328 2.64626 3.59492 2.30616 3.81636 2.13844C4.0378 1.96606 4.39588 1.71448 4.61732 1.57005C4.83877 1.43028 5.19684 1.22063 5.41829 1.10416C5.63973 0.992346 5.99781 0.824626 6.21925 0.736106C6.44069 0.642928 6.75637 0.526456 6.92598 0.475208C7.0956 0.419301 7.41127 0.330782 7.63272 0.274875C7.85416 0.218968 8.2782 0.135108 8.57503 0.0885191C9.07916 0.0139767 9.7482 0.0093178 18.7991 0.0186356ZM57.6694 0.0046589C65.6555 0 67.2386 0.0139767 67.6344 0.0698835C67.8935 0.102496 68.294 0.177038 68.5295 0.232945C68.7651 0.284193 69.1232 0.38203 69.3305 0.447255C69.5378 0.512479 69.8865 0.642928 70.1079 0.731448C70.3294 0.819967 70.678 0.978369 70.8853 1.08087C71.0926 1.18802 71.3989 1.35574 71.5685 1.45824C71.7381 1.56539 72.0773 1.79834 72.3223 1.97537C72.5674 2.15707 72.9773 2.50649 73.2364 2.74875C73.4908 2.99101 73.8442 3.35907 74.0185 3.56406C74.1928 3.76905 74.4944 4.17903 74.6923 4.47255C74.8854 4.76606 75.1634 5.24126 75.3048 5.5208C75.4461 5.80499 75.6393 6.24293 75.7382 6.49917C75.8325 6.75541 75.9738 7.19334 76.0445 7.47754C76.1199 7.76173 76.2188 8.23228 76.2659 8.52579C76.346 9.01963 76.3507 9.44359 76.3507 18.9384L76.2376 19.5907C76.1764 19.9494 76.068 20.4572 75.9927 20.7228C75.9173 20.9837 75.7806 21.3937 75.6864 21.6313C75.5922 21.8642 75.3943 22.2882 75.2482 22.5724C75.1069 22.8566 74.8807 23.2433 74.7535 23.4343C74.6263 23.6253 74.3954 23.9514 74.24 24.1564C74.0845 24.3614 73.6981 24.7807 73.3872 25.0882C73.0715 25.4003 72.5909 25.8196 72.3176 26.02C72.0397 26.225 71.5826 26.5231 71.3047 26.6815C71.022 26.8399 70.5885 27.0589 70.3435 27.1614C70.0985 27.2686 69.7263 27.413 69.519 27.4829C69.3117 27.5574 68.9065 27.6692 68.6238 27.7344C68.3411 27.8043 67.8558 27.8882 67.5543 27.9301C67.069 27.9907 65.7827 28 57.7165 28C49.5985 28 48.3641 27.9907 47.8788 27.9255C47.5773 27.8882 47.1061 27.8043 46.8328 27.7391C46.5596 27.6785 46.1497 27.5574 45.9141 27.4782C45.6785 27.399 45.2875 27.2453 45.0425 27.1381C44.7975 27.0309 44.4347 26.8539 44.2415 26.7421C44.0483 26.6349 43.6855 26.4067 43.4405 26.2389C43.1955 26.0712 42.7903 25.7637 42.5453 25.5541C42.3003 25.3444 41.9281 24.9857 41.7208 24.7574C41.5135 24.5291 41.2167 24.175 41.0612 23.97C40.9104 23.7651 40.6701 23.4063 40.5241 23.178C40.3827 22.9497 40.1613 22.5398 40.0341 22.2696C39.9069 21.9993 39.7184 21.5381 39.6195 21.2446C39.5205 20.9511 39.3886 20.4805 39.3226 20.1963C39.2614 19.9121 39.1813 19.4742 39.1436 19.218C39.0965 18.8592 39.0823 17.6759 39.0823 14C39.0823 10.3381 39.0965 9.14077 39.1436 8.78203C39.1766 8.52579 39.2614 8.07388 39.3273 7.78037C39.3933 7.48686 39.5299 7.00233 39.6336 6.70882C39.7325 6.41531 39.954 5.90283 40.1189 5.56739C40.2838 5.23195 40.5476 4.7614 40.7125 4.51913C40.8727 4.27687 41.179 3.86689 41.391 3.61065C41.603 3.35441 41.9752 2.9584 42.2202 2.73012C42.4652 2.49717 42.8846 2.14775 43.1578 1.94742C43.4311 1.74709 43.874 1.45824 44.1473 1.30449C44.4205 1.15075 44.854 0.936439 45.1131 0.819967C45.3723 0.708153 45.7445 0.563727 45.9376 0.503161C46.1308 0.437937 46.4795 0.335441 46.7151 0.279534C46.9506 0.218968 47.3747 0.135108 47.6574 0.093178C48.1379 0.0139767 48.8494 0.0093178 57.6694 0.0046589ZM48.5054 3.93677C48.3782 3.9787 48.1097 4.09052 47.9165 4.18369C47.7233 4.27687 47.4029 4.47255 47.2098 4.61697C47.0166 4.7614 46.748 5.00366 46.6208 5.15275C46.4889 5.30649 46.3287 5.50216 46.2627 5.59068C46.1968 5.6792 46.079 5.87022 45.9989 6.00998C45.9235 6.14975 45.8057 6.41531 45.7351 6.59235C45.6691 6.76938 45.5843 7.09551 45.5419 7.31448C45.4712 7.66855 45.4665 8.39068 45.4759 14.1631L45.4901 20.6156C45.655 21.1933 45.7916 21.5381 45.8952 21.7571C45.9989 21.976 46.1779 22.2789 46.2863 22.4326C46.3994 22.5864 46.6161 22.8333 46.7669 22.987C46.9224 23.1361 47.1721 23.3504 47.3276 23.4622C47.483 23.5694 47.7893 23.7464 48.0107 23.8489C48.2322 23.9514 48.5808 24.0819 48.7881 24.1424L49.1651 24.2496C64.8216 24.2729 65.9429 24.2636 66.3057 24.203C66.5319 24.1657 66.9135 24.0586 67.1538 23.9654C67.3894 23.8769 67.7616 23.6859 67.9783 23.5461C68.1903 23.4063 68.506 23.1547 68.685 22.9824C68.8594 22.8053 69.1091 22.5072 69.2363 22.3161C69.3635 22.1251 69.5331 21.8223 69.6085 21.6406C69.6839 21.4589 69.7875 21.17 69.8441 20.9884C69.9383 20.6669 69.9383 20.5737 69.9524 14.1491C69.9666 7.94809 69.9619 7.62196 69.8771 7.21198C69.8299 6.97438 69.7216 6.61098 69.6321 6.40599C69.5472 6.201 69.3682 5.87488 69.241 5.68386C69.1138 5.49285 68.8594 5.18536 68.6756 5.00366C68.4919 4.82196 68.2045 4.58436 68.0348 4.47255C67.8652 4.36073 67.5778 4.20233 67.3988 4.11847C67.2197 4.03927 66.9088 3.9228 66.7156 3.86223L66.3622 3.75042C51.045 3.73644 49.3347 3.74576 49.0708 3.797C48.8918 3.82962 48.6374 3.89018 48.5054 3.93677ZM78.1647 0L89.5855 0.0232945L90.0001 1.2812C90.231 1.97537 90.6503 3.23328 90.9283 4.07654C91.211 4.92446 91.7528 6.53644 92.125 7.66389C92.5019 8.79135 93.3029 11.1907 93.9013 12.9983C94.4996 14.806 95.4231 17.5734 96.9025 22.0133L97.3313 20.7321C97.5669 20.0286 98.283 17.8809 98.9191 15.9567C99.5598 14.0373 100.356 11.6333 100.691 10.6223C101.03 9.61131 101.331 8.69817 101.369 8.59567C101.402 8.49318 101.944 6.8812 102.566 5.00832C103.188 3.1401 103.814 1.24393 104.22 0H115.622V28H110.015V2.65557L109.883 2.66955C109.756 2.67887 109.746 2.71148 109.091 4.6589C108.724 5.74908 107.909 8.18103 107.282 10.0632C106.655 11.9454 105.624 15.0483 104.988 16.9584C104.356 18.8686 103.551 21.2772 103.207 22.3161C102.858 23.3551 102.349 24.8832 102.076 25.7171C101.798 26.5511 101.515 27.399 101.313 27.9767L92.4878 28L91.3759 24.6596C90.7634 22.8193 90.0331 20.611 89.7457 19.7537C89.463 18.8965 88.9447 17.3451 88.6008 16.3062C88.2521 15.2672 87.682 13.5481 87.3287 12.4859C86.9753 11.4236 86.669 10.5012 86.6455 10.4359C86.6219 10.3707 86.1131 8.85191 85.5194 7.05824C84.921 5.26456 84.3509 3.54542 84.252 3.23794C84.0824 2.7208 84.0588 2.67887 83.8185 2.65557V28H78.1647V0ZM117.271 0H131.815C144.169 0 146.435 0.0139767 146.836 0.0698835C147.095 0.107155 147.552 0.195674 147.849 0.274875C148.145 0.349418 148.551 0.475208 148.744 0.54975C148.937 0.624293 149.243 0.759401 149.427 0.843261C149.606 0.927121 149.926 1.09484 150.134 1.21597C150.341 1.3371 150.69 1.56539 150.911 1.72845C151.133 1.88686 151.519 2.2223 151.778 2.46456C152.032 2.71148 152.362 3.0609 152.513 3.23794C152.659 3.41963 152.904 3.7411 153.05 3.96007C153.196 4.17903 153.422 4.55641 153.545 4.79867C153.672 5.04093 153.851 5.43228 153.941 5.66057C154.035 5.89351 154.171 6.32213 154.247 6.61564C154.322 6.90915 154.421 7.42629 154.468 7.75707C154.534 8.22296 154.544 8.53511 154.525 9.10815C154.511 9.51814 154.464 10.0306 154.426 10.2496C154.388 10.4686 154.313 10.8133 154.261 11.0183C154.209 11.2233 154.106 11.5681 154.025 11.787C153.95 12.006 153.818 12.3321 153.738 12.5092C153.658 12.6908 153.479 13.0263 153.347 13.2546C153.215 13.4875 152.946 13.8835 152.753 14.1398C152.56 14.396 152.178 14.8293 151.905 15.0995C151.632 15.3697 151.194 15.7471 150.935 15.9381C150.675 16.1291 150.27 16.3947 150.039 16.5251C149.804 16.6556 149.422 16.8466 149.191 16.9491C148.956 17.0516 148.555 17.2007 148.296 17.2845C148.037 17.3637 147.674 17.4616 147.495 17.4988C147.311 17.5408 146.944 17.6013 146.671 17.6339C146.256 17.6898 144.32 17.7038 122.877 17.7038V28H117.271V0ZM126.764 3.91814C126.581 3.97404 126.284 4.09052 126.105 4.17903C125.921 4.27221 125.648 4.43527 125.492 4.54243C125.337 4.64958 125.04 4.91514 124.833 5.13411C124.602 5.37171 124.366 5.68386 124.23 5.92146C124.107 6.13577 123.942 6.50849 123.867 6.74609C123.787 6.97903 123.702 7.3797 123.674 7.63128C123.636 7.91547 123.626 8.49318 123.645 9.17804C123.669 10.175 123.678 10.3148 123.796 10.7155C123.862 10.9577 124.003 11.3258 124.107 11.5308C124.211 11.7358 124.394 12.0386 124.522 12.2063C124.649 12.374 124.884 12.6349 125.049 12.784C125.214 12.9378 125.445 13.1241 125.563 13.2033C125.681 13.2779 125.935 13.4223 126.128 13.5201C126.321 13.6133 126.694 13.7531 126.953 13.823L127.424 13.9534H144.338C144.993 13.7857 145.356 13.6599 145.563 13.5621C145.771 13.4689 146.077 13.2965 146.247 13.1847C146.416 13.0729 146.69 12.8399 146.859 12.6722C147.029 12.5092 147.274 12.211 147.406 12.02C147.533 11.829 147.707 11.5121 147.787 11.3211C147.867 11.1301 147.971 10.8459 148.013 10.6922C148.051 10.5384 148.108 10.203 148.131 9.94676C148.155 9.69052 148.174 9.19667 148.174 8.85191C148.174 8.50715 148.155 8.02263 148.136 7.78037C148.112 7.5381 148.056 7.19334 148.013 7.01165C147.971 6.83461 147.839 6.48519 147.721 6.24293C147.608 6.00067 147.42 5.67454 147.311 5.5208C147.198 5.36705 146.963 5.10616 146.784 4.93844C146.605 4.77072 146.331 4.55175 146.176 4.45391C146.02 4.35141 145.742 4.20233 145.563 4.11847C145.38 4.03461 145.073 3.91814 144.88 3.85757L144.527 3.75042C131.382 3.7411 127.457 3.75507 127.33 3.77837C127.198 3.80166 126.943 3.86223 126.764 3.91814ZM154.586 25.0323C154.845 25.0463 155.001 25.0789 155.166 25.1627C155.293 25.2233 155.481 25.3584 155.585 25.4609C155.689 25.5634 155.83 25.7637 155.896 25.9035C156 26.1318 156.009 26.2063 155.995 26.579C155.981 26.8446 155.943 27.0589 155.891 27.1614C155.849 27.2499 155.74 27.4083 155.656 27.5108C155.566 27.618 155.368 27.7624 155.194 27.8509C154.925 27.986 154.85 28 154.515 28C154.237 28 154.082 27.972 153.926 27.9022C153.809 27.8463 153.644 27.7484 153.554 27.6832C153.465 27.6133 153.338 27.4735 153.267 27.371C153.191 27.2686 153.097 27.0589 153.055 26.9052C152.998 26.7095 152.979 26.5511 153.003 26.3694C153.017 26.2296 153.078 26.0106 153.14 25.8802C153.201 25.7544 153.328 25.5681 153.427 25.4749C153.521 25.377 153.686 25.2512 153.795 25.1953C153.903 25.1441 154.049 25.0789 154.115 25.0602C154.181 25.0369 154.393 25.0276 154.586 25.0323ZM153.672 25.815C153.592 25.9082 153.498 26.0666 153.469 26.1644C153.436 26.2669 153.408 26.4206 153.408 26.5092C153.408 26.5977 153.441 26.7654 153.479 26.8819C153.521 26.9983 153.62 27.1614 153.705 27.2453C153.785 27.3338 153.941 27.4456 154.044 27.5015C154.171 27.5667 154.322 27.5947 154.515 27.5947C154.713 27.5947 154.855 27.5667 154.987 27.4968C155.09 27.4409 155.227 27.3571 155.293 27.3058L155.411 27.2126C154.892 27.208 154.892 27.2033 154.704 26.9517C154.6 26.812 154.478 26.7002 154.431 26.7002C154.365 26.6955 154.351 26.7374 154.351 26.9517V27.208L153.809 27.1847V25.8336C154.61 25.815 154.921 25.829 155.01 25.8569C155.1 25.8802 155.222 25.9408 155.279 25.9967C155.34 26.0479 155.387 26.1458 155.387 26.2203C155.387 26.2995 155.34 26.3927 155.26 26.4672C155.184 26.5371 155.1 26.5977 155.071 26.607C155.034 26.621 155.09 26.7235 155.213 26.8725C155.321 27.0077 155.42 27.1195 155.434 27.1195C155.448 27.1195 155.486 27.0589 155.519 26.989C155.557 26.9191 155.594 26.7654 155.608 26.6489C155.623 26.5324 155.613 26.3461 155.58 26.2296C155.552 26.1131 155.458 25.9361 155.373 25.8336C155.283 25.7311 155.123 25.6007 155.005 25.5448C154.859 25.4702 154.713 25.4376 154.515 25.4376C154.313 25.4376 154.171 25.4702 154.025 25.5448C153.908 25.6007 153.752 25.7218 153.672 25.815ZM154.572 26.3601C154.76 26.3461 154.798 26.3321 154.798 26.2529C154.798 26.1737 154.76 26.1597 154.577 26.1458C154.369 26.1318 154.355 26.1364 154.351 26.2529C154.351 26.3647 154.36 26.3694 154.572 26.3601Z" fill="#B3B7BC"/>
</svg>
